<?xml version="1.0" encoding="utf-8"?>
<!-- Generator: Adobe Illustrator 27.5.0, SVG Export Plug-In . SVG Version: 6.00 Build 0)  -->
<svg version="1.1" xmlns="http://www.w3.org/2000/svg" xmlns:xlink="http://www.w3.org/1999/xlink" x="0px" y="0px"
	 viewBox="0 0 500 500" style="enable-background:new 0 0 500 500;" xml:space="preserve">
<g id="BACKGROUND">
</g>
<g id="OBJECTS">
	<path d="M109.557,110.239c-1.299-1.955-1.909-4.099-1.598-6.449c0.317-2.391,1.171-4.562,2.793-6.388
		c0.58-0.654,1.263-1.185,2.013-1.633c2.393-1.43,5.014-2.174,7.739-2.658c2.389-0.424,4.698,0.039,7.022,0.445
		c0.379,0.066,0.768,0.103,1.134,0.215c1.002,0.307,1.901,0.02,2.776-0.431c0.342-0.177,0.669-0.382,1.007-0.567
		c0.464-0.255,0.923-0.52,1.398-0.753c2.108-1.031,4.249-1.144,6.422-0.206c0.618,0.267,1.233,0.539,1.848,0.809
		c1.251,0.048,2.505,0.05,3.751,0.152c2.853,0.235,5.431,1.222,7.72,2.951c1.212,0.916,2.159,2.038,2.833,3.411
		c0.706,1.437,1.274,2.902,1.478,4.505c0.275,2.16-0.011,4.198-0.967,6.179c-0.748,1.55-1.67,2.91-3.082,3.927
		c-1.535,1.106-3.223,1.701-5.118,1.713c-0.428,0.003-0.864-0.077-1.262,0.071c-0.386,0.41-0.371,0.908-0.403,1.379
		c-0.117,1.682-0.202,3.366-0.323,5.048c-0.09,1.249-0.201,2.496-0.335,3.741c-0.051,0.473-0.192,0.935-0.292,1.399
		c-0.14,0-0.249,0.035-0.311-0.005c-2.338-1.487-4.936-2.385-7.53-3.272c-2.92-0.999-5.903-1.774-8.966-2.194
		c-4.064-0.558-8.145-0.83-12.25-0.589c-2.212,0.13-4.424,0.259-6.636,0.384c-0.139,0.008-0.28-0.026-0.408-0.039
		c-0.211-0.26-0.018-0.465,0.052-0.671c0.557-1.641,1.14-3.273,1.53-4.965c0.185-0.802,0.298-1.61,0.112-2.41
		C110.979,112.294,110.249,111.279,109.557,110.239z M19.959,175.196c-0.28-0.739-0.383-1.485-0.267-2.134
		c0.244-0.668,0.917-0.706,1.19-1.156c-0.036-0.578-0.518-0.969-0.503-1.686c0.044-0.634,0.514-1.146,1.145-1.565
		c0.697-0.463,1.471-0.7,2.279-0.869c1.226-0.256,2.441-0.562,3.671-0.791c0.767-0.143,1.48-0.422,2.083-0.632
		c0.53-0.255,0.629-0.747,0.994-1.003c0.064,0.059,0.162,0.105,0.169,0.163c0.058,0.465-0.069,0.981,0.4,1.341
		c0.589,0.198,1.108,0.003,1.616-0.319c0.446-0.283,0.895-0.573,1.376-0.786c1.036-0.458,1.65-0.287,2.412,0.601
		c0.124,0.145,0.227,0.309,0.313,0.428c0.373,0.253,0.768,0.273,1.144,0.336c1.762,0.294,3.513,0.62,5.103,1.502
		c0.099,0.055,0.263-0.007,0.498-0.02c-0.182-1.027-0.353-2.01-0.529-2.991c-0.316-1.759-0.513-3.528-0.531-5.318
		c-0.036-3.42,0.527-6.726,1.917-9.861c1.247-2.811,2.939-5.309,5.343-7.279c0.335-0.274,0.649-0.577,0.947-0.89
		c0.196-0.206,0.346-0.456,0.511-0.678c-0.026-0.661-0.438-1.083-0.785-1.536c-0.344-0.449-0.952-0.659-1.183-1.232
		c0.302-0.444,0.739-0.499,1.16-0.516c0.674-0.027,1.349,0.007,2.024,0.005c1.157-0.003,2.316,0.031,3.47-0.032
		c1.407-0.077,2.753-0.441,4.028-1.062c1.203-0.586,2.174-1.421,2.867-2.57c0.731-1.213,1.195-2.523,1.398-3.923
		c0.034-0.232,0.005-0.473,0.005-0.589c-0.369-0.666-1.019-0.752-1.485-1.197c-0.267-0.707-0.555-1.468-0.842-2.23
		c-0.997-2.645,0.88-5.144,3.433-5.308c0.777-0.05,1.548-0.013,2.303,0.146c1.776,0.373,2.995,1.92,3.017,3.73
		c0.012,0.983-0.121,1.905-0.68,2.754c-0.288,0.436-0.456,0.951-0.7,1.476c-0.332,0.419-0.851,0.438-1.151,0.944
		c0.172,1.889,0.84,3.639,2.342,5.006c1.766,1.608,3.87,2.514,6.217,2.841c1.869,0.26,3.751,0.24,5.632,0.09
		c0.47-0.037,0.949-0.163,1.372-0.017c0.329,0.37,0.203,0.671-0.008,1.014c-0.519,0.419-1.349,0.448-1.78,1.154
		c-0.068,0.71,0.324,1.265,0.754,1.782c0.275,0.331,0.602,0.631,0.948,0.887c2.02,1.498,3.457,3.476,4.669,5.638
		c1.908,3.401,2.73,7.085,2.799,10.954c0.027,1.503-0.163,2.994-0.614,4.426c-1.203,3.819-1.956,7.753-3.01,11.609
		c-0.023,0.086,0.014,0.188,0.023,0.278c0.179,0.262,0.422,0.156,0.65,0.117c1.052-0.179,2.104-0.178,3.17-0.103
		c0.964,0.068,1.51,0.535,1.748,1.432c0.025,0.092,0.035,0.189,0.056,0.301c-0.048,0.486-0.245,0.908-0.651,1.223
		c-0.434,0.337-0.924,0.525-1.472,0.524c-0.964-0.002-1.936,0.051-2.891-0.048c-2.212-0.229-4.431-0.241-6.647-0.253
		c-5.691-0.03-11.382-0.01-17.073-0.034c-5.594-0.024-11.188-0.076-16.782-0.119c-0.474-0.004-0.96,0.05-1.439-0.165
		c-0.237-0.46-0.134-0.953-0.188-1.42c-0.05-0.431-0.084-0.864-0.121-1.296c-0.033-0.384-0.048-0.77-0.092-1.154
		c-0.033-0.287-0.088-0.575-0.348-0.763c-0.237-0.015-0.334,0.149-0.384,0.329c-0.127,0.463-0.203,0.943-0.355,1.397
		c-0.719,2.153-2.155,3.236-4.403,3.293c-1.446,0.036-2.893,0.029-4.34,0.022c-3.762-0.02-7.525-0.125-11.285-0.042
		c-1.734,0.038-2.836-0.654-3.633-2.084C20.606,176.593,20.233,175.922,19.959,175.196z M44.042,172.061
		c-0.019,0.299,0.122,0.56,0.428,0.69c0.504-0.23,0.651-0.363,0.713-0.592c0.093-0.347,0.073-0.696-0.148-0.964
		c-0.372-0.451-0.383-1.221-1.17-1.383C43.409,170.632,44.09,171.319,44.042,172.061z M41.627,185.135
		c-4.389-0.007-8.778-0.034-13.166-0.034c-1.738,0-3.471-0.087-5.201-0.239c-0.911-0.08-1.829-0.182-2.718-0.384
		c-3.053-0.694-6.127-1.31-9.12-2.253c-1.011-0.318-2.031-0.615-2.979-1.103c-0.255-0.131-0.499-0.29-0.726-0.465
		c-0.163-0.126-0.199-0.318-0.11-0.525c0.335-0.25,0.734-0.162,1.106-0.161c3.762,0.003,7.523-0.036,11.283-0.192
		c0.289-0.012,0.579-0.01,0.868,0.005c5.398,0.294,10.802,0.225,16.201,0.148c8.295-0.118,16.589,0.057,24.883,0.038
		c4.437-0.01,8.874-0.007,13.311,0.048c4.87,0.06,9.739,0.186,14.609,0.289c0.275,0.006,0.55,0.063,0.952,0.112
		c-0.351,0.504-0.911,0.245-1.181,0.57c0.017,0.19,0.035,0.375,0.05,0.547c-0.413,0.417-0.947,0.518-1.45,0.666
		c-1.525,0.449-3.058,0.875-4.586,1.314c-1.813,0.521-3.669,0.822-5.54,1.007c-2.542,0.252-5.089,0.452-7.634,0.681
		c-0.083,0.007-0.16,0.078-0.242,0.12c-0.053,0.33,0.199,0.523,0.345,0.764c0.574,0.948,1.189,1.874,1.711,2.85
		c0.71,1.327,1.177,2.743,1.31,4.257c0.06,0.68,0.023,1.347-0.163,2.006c-0.382,1.355-0.495,2.745-0.53,4.147
		c-0.033,1.35,0.4,2.553,1.063,3.7c0.301,0.521,0.761,0.867,1.232,1.201c0.669,0.475,1.308,0.978,1.899,1.554
		c0.774,0.755,1.14,1.625,1.109,2.712c-0.045,1.547-0.124,3.097-0.492,4.594c-0.967,3.931-1.943,7.861-3.046,11.755
		c-0.893,3.154-2.089,6.211-3.452,9.197c-0.079,0.174-0.13,0.367-0.497,0.523c-1.319-1.315-2.804-2.468-4.216-3.705
		c-0.755-0.662-1.559-1.311-1.825-2.262c-0.069-0.45,0.125-0.747,0.229-1.063c0.74-2.242,1.504-4.476,2.226-6.723
		c0.689-2.145,0.922-4.329,0.461-6.564c-0.155-0.753-0.198-1.53-0.36-2.281c-0.121-0.561-0.297-1.124-0.54-1.644
		c-1.063-2.276-2.209-4.503-3.992-6.329c-0.64-0.655-1.226-1.363-1.87-2.014c-0.829-0.839-1.414-1.818-1.853-2.905
		c-0.831-2.057-1.564-4.147-2.24-6.26c-0.44-1.377-0.886-2.753-1.369-4.116c-0.434-1.225-0.924-2.429-1.683-3.402
		c-0.441-0.253-0.836-0.186-1.215-0.186C48.862,185.13,45.245,185.141,41.627,185.135z M59.757,185.93
		c0.025,0.086,0.024,0.222,0.079,0.25c1.28,0.669,2.721,0.853,4.068,1.323c0.21,0.073,0.446,0.203,0.66-0.016
		c0.116-0.335-0.093-0.545-0.303-0.738C63.092,185.676,61.742,185.434,59.757,185.93z M188.343,270.909
		c-0.077,1.96,0.349,3.828,0.791,5.707c0.408,1.735,0.817,3.471,1.159,5.22c0.279,1.427,0.273,2.881,0.117,4.325
		c-0.216,1.994-1.155,3.662-2.471,5.126c-0.934,1.04-1.911,2.042-2.885,3.046c-0.746,0.769-1.614,1.362-2.617,1.766
		c-1.921,0.775-3.822,1.602-5.75,2.36c-0.701,0.275-1.421,0.588-2.175,0.481c-0.275-0.22-0.216-0.473-0.184-0.703
		c0.053-0.382,0.164-0.756,0.2-1.138c0.108-1.151,0.5-2.14,1.439-2.884c0.675-0.535,1.004-1.288,1.127-2.124
		c0.211-1.43,0.426-2.86,0.588-4.296c0.092-0.814,0.07-1.639-0.187-2.436c-0.079-0.244-0.21-0.429-0.473-0.496
		c-0.327,0.112-0.391,0.401-0.419,0.685c-0.187,1.899-0.865,3.649-1.615,5.377c-0.211,0.487-0.431,0.972-0.961,1.284
		c-0.437,0.104-0.902,0.079-1.418-0.133c-0.216-0.498-0.098-1.023-0.033-1.535c0.091-0.717,0.196-1.433,0.331-2.142
		c0.265-1.389,0.267-2.777,0.069-4.174c-0.259-1.837-0.051-3.657,0.246-5.469c0.158-0.963,0.54-1.846,1.025-2.688
		c0.577-1.003,1.134-2.017,1.716-3.017c1.019-1.749,1.577-3.608,1.479-5.653c-0.053-1.101-0.04-2.206-0.054-3.182
		c-0.292-0.401-0.596-0.363-0.879-0.368c-0.771-0.014-1.544,0.004-2.314-0.03c-1.533-0.066-3.065-0.159-4.548-0.238
		c-0.296-0.256-0.283-0.554-0.288-0.839c-0.018-0.964-0.006-1.93-0.039-2.893c-0.088-2.554-0.133-5.112-0.314-7.66
		c-0.102-1.436-0.411-2.86-0.678-4.28c-0.498-2.652-1.071-5.288-1.421-7.968c-0.194-1.487-0.3-2.973-0.292-4.469
		c0.01-1.881,0.015-3.762,0.057-5.642c0.043-1.919-0.332-3.724-1.227-5.436c-0.783-1.497-1.389-3.073-1.907-4.682
		c-0.236-0.734-0.493-1.46-0.606-2.229c-0.047-0.318-0.066-0.674-0.435-0.836c-0.327,0.208-0.351,0.553-0.428,0.88
		c-0.86,3.659-1.689,7.326-2.603,10.971c-0.562,2.242-1.259,4.45-1.89,6.675c-0.065,0.229-0.099,0.468-0.16,0.766
		c0.975,0.841,1.227,1.98,1.255,3.223c0.016,0.721,0.148,1.438,0.197,2.158c0.059,0.871-0.067,1.729-0.199,2.59
		c-0.084,0.547-0.272,1.017-0.635,1.426c-0.158,0.179-0.304,0.368-0.406,0.491c-0.097,0.338,0.025,0.56,0.118,0.775
		c2.068,4.792,3.702,9.721,4.8,14.828c0.628,2.921,1.341,5.823,1.947,8.748c0.626,3.021,1.022,6.079,1.382,9.145
		c0.473,4.025,0.678,8.07,1.035,12.103c0.166,1.873,0.256,3.752,0.39,5.627c0.096,1.346,0.194,2.693,0.312,4.038
		c0.415,4.756,0.597,9.527,0.901,14.291c0.301,4.715,0.664,9.426,1.005,14.138c0.209,2.885,0.416,5.77,0.645,8.654
		c0.251,3.172,0.537,6.341,0.786,9.513c0.147,1.874,0.242,3.753,0.382,5.628c0.251,3.366,0.526,6.729,0.777,10.095
		c0.136,1.827,0.252,3.656,0.36,5.485c0.031,0.524,0.005,1.052,0.005,1.476c-0.259,0.421-0.591,0.488-0.917,0.573
		c-2.332,0.613-4.689,1.106-7.08,1.426c-1.338,0.179-2.676,0.356-4.013,0.54c-0.184,0.025-0.364,0.084-0.603,0.14
		c0.407,2.463,0.538,4.899,0.514,7.345c-0.013,1.304-0.035,2.608-0.373,3.877c-0.13,0.489-0.103,0.953,0.039,1.422
		c0.181,0.6,0.382,1.194,0.554,1.796c0.57,2.002,0.91,4.041,0.983,6.124c0.086,2.465-0.052,4.916-0.43,7.353
		c-0.315,2.028-0.996,3.913-2.138,5.632c-0.367,0.553-0.832,1.066-0.993,1.776c0.104,0.158,0.191,0.332,0.315,0.472
		c1.141,1.291,1.582,2.85,1.693,4.518c0.068,1.01,0.039,2.023-0.192,3.022c-0.13,0.563-0.225,1.136-0.3,1.709
		c-0.157,1.193-0.563,2.24-1.596,2.958c-0.07,0.049-0.095,0.162-0.151,0.262c-0.08,0.568,0.259,1.011,0.56,1.429
		c0.767,1.063,1.352,2.219,1.892,3.405c0.504,1.106,1.239,2.063,1.968,3.024c0.902,1.19,1.859,2.344,2.545,3.684
		c0.198,0.386,0.399,0.77,0.584,1.162c0.776,1.641,0.631,3.279-0.045,4.905c-0.347,0.834-0.908,1.478-1.784,1.784
		c-0.331,0.115-0.605,0.29-0.836,0.545h-9.549c-0.118-0.077-0.226-0.193-0.355-0.226c-2.295-0.597-4.142-2.017-6.062-3.3
		c-0.635-0.424-0.968-1.044-1.072-1.807c-0.078-0.572-0.197-1.14-0.339-1.699c-0.199-0.783-0.631-1.393-1.4-1.733
		c-0.482-0.213-0.949-0.461-1.281-0.623c-0.399-0.416-0.501-0.789-0.539-1.176c-0.067-0.671-0.142-1.344-0.155-2.017
		c-0.04-2.025-0.048-4.051-0.076-6.076c-0.01-0.722-0.036-1.445-0.314-2.18c-0.132-0.091-0.275-0.229-0.445-0.3
		c-0.614-0.254-1.024-0.699-1.305-1.288c-1.774-3.729-3.175-7.56-3.111-11.77c0.038-2.514,0.307-5.011,0.999-7.433
		c0.991-3.47,0.73-2.822,0.314-5.969c-0.374-2.827-0.641-5.65-0.541-8.503c0.019-0.53,0.021-1.061,0.049-1.591
		c0.093-1.743-0.082-3.468-0.334-5.188c-0.126-0.858-0.272-1.714-0.41-2.57c-0.038-0.233-0.027-0.484-0.271-0.694
		c-0.089-0.025-0.225-0.097-0.361-0.096c-4.242,0.046-8.485,0.098-12.727,0.156c-0.186,0.003-0.371,0.081-0.571,0.127
		c-0.565,0.777-0.755,1.681-0.898,2.575c-0.236,1.474-0.445,2.958-0.562,4.446c-0.361,4.62-0.442,9.246-0.207,13.877
		c0.14,2.76-0.076,5.491-0.714,8.184c-0.527,2.229-1.292,4.344-2.9,6.056c-0.234,0.249-0.409,0.535-0.459,0.922
		c0.067,0.145,0.12,0.339,0.231,0.491c0.983,1.34,1.292,2.884,1.374,4.496c0.105,2.071,0.197,4.142,0.307,6.213
		c0.064,1.204,0.157,2.406,0.228,3.609c0.011,0.189-0.023,0.381-0.034,0.541c-0.293,0.419-0.73,0.508-1.133,0.655
		c-2.049,0.75-4.182,1.13-6.335,1.417c-0.573,0.076-1.146,0.158-1.721,0.221c-0.475,0.053-0.949,0.191-1.494,0.021
		c-0.407-0.658-0.556-1.474-0.9-2.255c-0.501-0.111-0.962,0.03-1.421,0.14c-0.468,0.112-0.948,0.199-1.393,0.371
		c-0.627,0.242-1.237,0.535-1.839,0.836c-3.25,1.626-6.616,2.94-10.239,3.392c-2.869,0.358-5.758,0.523-8.658,0.305
		c-2.165-0.163-4.321-0.378-6.466-0.709c-1.726-0.266-3.396-0.709-4.933-1.567c-0.935-0.522-1.158-0.783-1.577-1.83
		c0.282-1.616,1.209-2.747,2.747-3.409c1.3-0.56,2.679-0.773,4.063-0.978c1.859-0.275,3.723-0.522,5.574-0.84
		c3.9-0.67,7.002-2.67,9.283-5.872c1.226-1.721,2.276-3.566,3.351-5.27c-0.028-0.223-0.006-0.346-0.057-0.406
		c-0.919-1.082-0.658-2.268-0.229-3.411c0.44-1.17,0.968-2.309,1.643-3.372c0.438-0.691,0.834-1.408,1.206-2.039
		c0.015-0.529-0.291-0.802-0.516-1.103c-0.561-0.752-0.903-1.595-1.053-2.51c-0.33-2.018-0.383-4.027,0.25-6.01
		c0.366-1.147,0.688-2.309,1.063-3.454c0.333-1.019,0.421-2.077,0.555-3.126c0.281-2.199,0.532-4.402,0.791-6.604
		c0.045-0.383,0.087-0.767,0.104-1.152c0.07-1.583,0.131-3.167,0.197-4.827c-2.002-0.814-3.977-0.282-5.261-2.432
		c-1.629-2.729-2.293-6.841-3.232-9.912c-1.741-5.688-3.515-11.596-3.311-17.59c0.212-6.242,1.314-12.404,2.054-18.594
		c0.269-2.249,0.482-4.505,0.712-6.759c0.264-2.589,0.507-5.181,0.783-7.769c0.333-3.115,0.684-6.229,1.04-9.342
		c0.312-2.73,0.621-5.46,0.971-8.185c0.571-4.446,1.178-8.885,1.923-13.307c0.736-4.373,1.497-8.739,2.4-13.082
		c0.501-2.412,1.211-4.763,1.882-7.127c0.342-1.203,0.594-2.436,1.109-3.527c-0.436-3.777-0.068-7.467,0.342-11.156
		c0.053-0.479,0.097-0.959,0.157-1.437c0.124-0.975-0.037-1.877-0.378-2.818c-0.757-2.089-1.143-4.279-1.367-6.492
		c-0.039-0.384-0.048-0.77-0.094-1.153c-0.029-0.24-0.112-0.469-0.347-0.602c-0.191,0.055-0.336,0.17-0.412,0.363
		c-0.212,0.538-0.427,1.075-0.632,1.616c-0.548,1.444-1.211,2.834-1.943,4.194c-1.12,2.081-2.713,3.733-4.609,5.112
		c-0.551,0.401-1.155,0.701-1.815,0.872c-2.055,0.534-4.102,0.512-6.121-0.161c-1.284-0.428-2.492-1.035-3.663-1.712
		c-2.211-1.279-4.42-2.562-6.626-3.85c-0.834-0.487-1.653-0.998-2.073-1.965c0.406-0.82,0.836-1.622,1.206-2.452
		c0.906-2.027,1.619-4.127,2.276-6.245c1.128-3.639,1.938-7.363,2.882-11.051c0.143-0.56,0.276-1.124,0.426-1.682
		c0.552-2.055,0.901-4.143,1.024-6.268c0.016-0.285,0.042-0.568,0.057-0.779c0.306-0.277,0.524-0.103,0.733-0.025
		c1.363,0.512,2.609,1.24,3.788,2.087c0.503,0.361,1.005,0.724,1.483,1.069c0.167-0.09,0.19-0.164,0.133-0.257
		c-0.225-0.369-0.449-0.738-0.629-1.034c-0.146-0.621-0.029-1.145,0.038-1.669c0.239-1.872,0.666-3.696,1.327-5.468
		c1.468-3.933,2.686-7.937,3.565-12.048c0.362-1.692,0.948-3.336,1.409-5.008c0.217-0.788,0.41-1.586,0.56-2.389
		c0.163-0.871,0.46-1.664,1.031-2.354c0.276-0.333,0.517-0.697,0.754-1.059c0.32-0.489,0.485-1.012,0.541-1.617
		c0.323-3.511,1.428-6.783,3.224-9.808c1.063-1.79,2.615-3.077,4.498-3.952c2.23-1.036,4.498-1.978,6.831-2.764
		c2.374-0.8,4.743-1.616,7.099-2.465c0.859-0.309,1.684-0.718,2.511-1.11c0.341-0.162,0.709-0.322,0.909-0.777
		c-0.247-1.394-1.022-2.608-1.651-3.932c-1.186,0.105-2.285,0.203-3.384,0.3c-1.299,0.114-2.595,0.185-3.884-0.121
		c-0.856-0.203-1.642-0.556-2.367-1.044c-0.562-0.378-0.838-0.903-0.808-1.596c0.021-0.485,0.097-0.954,0.219-1.424
		c0.303-1.168,0.602-2.343,0.402-3.566c-0.092-0.566,0.379-0.982,0.385-1.573c-0.463-0.976-1.742-1.576-1.561-2.844
		c0.095-0.594,0.699-0.761,0.81-1.296c-0.289-0.67-1.09-0.948-1.347-1.705c-0.094-0.423,0.478-0.535,0.55-1.093
		c-0.216-1.231-1.205-2.063-2.294-2.796c0.427-0.852,0.959-1.471,1.5-2.085c0.863-0.977,1.655-2.007,2.407-3.072
		c1.081-1.532,1.473-3.219,1.265-5.068c-0.048-0.429-0.059-0.861-0.082-1.215c0.204-0.38,0.511-0.388,0.791-0.431
		c0.333-0.051,0.67-0.088,1.006-0.105c2.793-0.141,5.586-0.287,8.38-0.41c3.678-0.161,7.316,0.258,10.944,0.803
		c4.277,0.642,8.291,2.155,12.283,3.731c0.714,0.282,1.384,0.678,2.064,1.04c0.295,0.157,0.587,0.338,0.765,0.737
		c0.101,0.465-0.017,0.987-0.135,1.499c-0.617,2.679-1.257,5.356-2.518,7.823c-1.344,2.63-0.753,5.146,0.385,7.633
		c0.175,0.383,0.513,0.692,0.775,1.035c0.088,0.322-0.088,0.553-0.268,0.784c-0.419,0.537-0.93,0.975-1.475,1.378
		c-0.972,0.717-1.989,1.362-3.048,1.94c-0.931,0.508-1.87,1.001-2.797,1.515c-4.683,2.596-8.49,6.153-11.532,10.544
		c-0.774,1.117-1.341,2.341-1.757,3.632c-0.533,1.654-0.616,3.015-0.302,4.711c0.329,0.361,0.69,0.495,1.182,0.069
		c0.208-1.116,0.437-2.295,0.646-3.477c0.238-1.346,0.708-2.598,1.446-3.752c1.466-2.29,3.205-4.341,5.273-6.11
		c2.607-2.23,5.323-4.303,8.378-5.899c0.725-0.379,1.416-0.825,2.109-1.262c1.303-0.821,2.567-1.697,3.575-2.787
		c0.382,0.016,0.501,0.239,0.607,0.445c0.574,1.114,1.177,2.215,1.687,3.358c0.271,0.608,0.666,1.033,1.201,1.391
		c2.368,1.586,4.809,3.023,7.49,4.039c1.214,0.46,2.363,1.088,3.562,1.592c1.332,0.559,2.694,1.048,4.03,1.597
		c1.381,0.567,2.748,1.17,4.121,1.758c0.903,0.387,1.648,0.986,2.308,1.706c1.214,1.323,2.244,2.773,3.045,4.38
		c1.161,2.33,2.231,4.699,3.142,7.142c1.582,4.245,3.134,8.5,4.424,12.844c1.317,4.436,2.439,8.923,3.429,13.442
		c0.496,2.264,1.249,4.453,1.948,6.656c1.461,4.603,2.476,9.309,3.3,14.059c0.452,2.611,0.92,5.222,1.27,7.847
		c0.33,2.483,0.616,4.98,0.741,7.48c0.236,4.719,0.358,9.445,0.32,14.173c-0.028,3.424-0.007,6.848-0.016,10.272
		c-0.001,0.379,0.09,0.772-0.116,1.131c-0.093,0.021-0.199,0.083-0.27,0.056c-1.587-0.619-3.261-0.861-4.931-1.088
		c-1.575-0.214-3.161-0.362-4.746-0.489c-3.099-0.247-6.165-0.009-9.186,0.745c-0.367,0.092-0.753,0.144-1.07,0.411
		c0.146,0.276,0.401,0.177,0.597,0.169c1.108-0.046,2.215-0.103,3.321-0.176c2.458-0.163,4.917-0.18,7.373-0.014
		c2.887,0.194,5.758,0.551,8.619,0.975c0.184,0.027,0.364,0.087,0.453,0.11c0.256,0.241,0.18,0.417,0.053,0.68
		c-0.883,0.362-1.847,0.495-2.857,0.206c-0.417,0.571-0.399,1.221-0.508,1.823C188.622,268.033,188.4,269.456,188.343,270.909z
		 M105.57,197.024c0.018,0.648,0.421,1.061,0.954,1.338c0.515,0.268,1.027,0.2,1.478-0.175c0.414-0.345,0.751-0.743,0.79-1.302
		c-0.043-0.428-0.281-0.721-0.587-0.969c-0.304-0.246-0.654-0.399-1.033-0.487c-0.409-0.095-0.766,0.029-1.06,0.306
		C105.744,196.079,105.556,196.521,105.57,197.024z M108.771,217.453c-0.282-0.352-0.646-0.57-1.223-0.687
		c-0.849,0.154-1.4,0.605-1.577,1.399c0.043,0.468,0.225,0.807,0.452,1.119c0.512,0.703,1.33,0.824,2.026,0.315
		C109.196,219.053,109.332,218.152,108.771,217.453z M117.216,178.47c-0.027-0.789-0.794-1.469-1.54-1.363
		c-0.785,0.111-1.585,0.967-1.654,1.769c-0.067,0.79,0.464,1.498,1.163,1.553C116.263,180.513,117.253,179.559,117.216,178.47z
		 M137.47,173.948c0.034-0.001,0.066-0.062,0.175-0.171c-0.269-0.442-0.662-0.504-1.041-0.537c-1.006-0.089-2.014-0.186-3.023-0.208
		c-3.129-0.07-6.259-0.079-9.387-0.163c-2.649-0.071-5.295-0.029-7.942,0.024c-0.522,0.01-1.064-0.072-1.607,0.23
		c-0.073,0.12-0.197,0.273-0.258,0.447c-0.042,0.121,0.003,0.273,0.01,0.424c0.152,0.052,0.286,0.14,0.418,0.138
		C122.366,173.991,129.92,174.249,137.47,173.948z M133.324,230.531c0.01-0.737-0.697-1.345-1.57-1.351
		c-0.796-0.005-1.531,0.776-1.516,1.611c0.013,0.701,0.777,1.462,1.504,1.498C132.483,232.326,133.312,231.404,133.324,230.531z
		 M133.803,218.735c0.03-0.863-0.6-1.552-1.472-1.611c-0.755-0.051-1.502,0.644-1.505,1.402c-0.003,0.78,0.733,1.569,1.516,1.625
		C133.124,220.206,133.773,219.577,133.803,218.735z M136.674,197.129c-0.054-1.219-1.522-2.044-2.484-1.496
		c-0.434,0.247-0.754,0.593-0.805,1.127c-0.071,0.742,0.488,1.42,1.348,1.624c0.728,0.173,1.588-0.195,1.838-0.804
		C136.642,197.407,136.657,197.21,136.674,197.129z M137.878,174.419c-0.746,0.502-1.557,0.916-2.078,1.734
		c0.064,0.536,0.228,0.877,0.5,1.161c0.38,0.397,1.049,0.566,1.445,0.321c0.639-0.396,1.093-0.969,1.139-1.732
		C138.926,175.221,138.549,174.735,137.878,174.419z M157.347,238.132c-0.148,0.042-0.293,0.045-0.313,0.096
		c-0.262,0.682-0.09,3.298,0.285,4.396c0.384-0.41,0.331-0.915,0.34-1.376C157.677,240.202,157.666,239.151,157.347,238.132z"/>
	<path d="M411.675,222.724c0.44-0.859,0.77-1.755,0.82-2.869c0.17,0.519,0.316,0.911,0.425,1.313
		c0.117,0.434,0.209,0.876,0.296,1.317c0.197,1.001,0.445,1.997,0.563,3.007c0.167,1.43,0.381,2.855,0.456,4.296
		c0.052,0.987,0.202,1.97,0.292,2.956c0.02,0.219,0.131,0.383,0.222,0.564c-0.111-0.026-0.226-0.042-0.332-0.082
		c-1.387-0.515-2.244-1.593-2.85-2.857c-0.584-1.217-0.945-2.526-1.317-3.827c-0.209-0.732-0.083-1.356,0.311-1.966
		c0.195-0.303,0.385-0.609,0.571-0.918C411.319,223.35,411.511,223.044,411.675,222.724z M321.41,115.986
		c0.777,1.347,1.923,2.241,3.462,2.521c0.918,0.167,1.857,0.124,2.786-0.038c1.785-0.31,3.501-0.871,5.227-1.398
		c0.286-0.087,0.568-0.186,0.817-0.269c0.201,0.059,0.297,0.168,0.338,0.322c0.07,0.261,0.159,0.521,0.193,0.787
		c0.118,0.925,0.258,1.85,0.31,2.78c0.104,1.862,0.28,3.723,0.219,5.592c-0.003,0.089,0.017,0.179,0.031,0.312
		c0.452,0.447,0.842,0.975,1.01,1.635c0.029,0.114,0.057,0.238-0.084,0.348c-0.176-0.196-0.354-0.393-0.53-0.592
		c-0.44-0.495-1.037-0.588-1.645-0.6c-0.344-0.007-0.625,0.175-0.821,0.48c-0.356,0.554-0.487,1.169-0.451,1.81
		c0.036,0.66,0.094,1.321,0.261,1.965c0.256,0.991,0.444,1.996,0.616,3.004c0.157,0.923,0.426,1.814,0.831,2.662
		c0.658,1.378,1.364,2.013,2.782,2.496c0.109,0.12,0.129,0.269,0.141,0.419c0.126,1.589,0.27,3.177,0.369,4.768
		c0.054,0.875,0.197,1.728,0.389,2.58c0.28,1.241,0.979,2.183,2.003,2.9c0.765,0.536,1.576,0.998,2.412,1.415
		c0.404,0.202,0.81,0.4,1.218,0.592c1.535,0.723,2.509,1.927,3.029,3.522c0.168,0.515,0.338,1.03,0.515,1.542
		c0.058,0.168,0.143,0.327,0.22,0.5c0.623,0.177,1.251,0.227,1.88,0.233c0.722,0.007,1.443-0.001,2.165-0.057
		c0.689-0.053,1.384-0.023,2.076-0.033c0.238-0.003,0.483,0.046,0.702-0.08c0.184-0.157,0.174-0.375,0.202-0.583
		c0.108-0.775,0.235-1.544,0.481-2.293c0.221-0.675,0.565-1.263,1.099-1.73c0.271-0.237,0.55-0.47,0.849-0.671
		c0.724-0.487,1.462-0.953,2.194-1.43c0.328-0.213,0.653-0.432,0.979-0.647c1.772-1.17,2.731-2.846,3.016-4.919
		c0.147-1.072,0.239-2.152,0.348-3.229c0.079-0.778,0.143-1.558,0.221-2.336c0.012-0.116,0.061-0.229,0.082-0.304
		c0.184-0.213,0.397-0.223,0.608-0.235c1.13-0.061,1.901-0.667,2.444-1.615c0.316-0.551,0.556-1.137,0.745-1.74
		c0.496-1.584,0.817-3.205,0.977-4.857c0.038-0.389,0.067-0.78,0.111-1.168c0.08-0.699-0.057-1.382-0.174-2.062
		c-0.077-0.447-0.356-0.732-0.825-0.851c-1.034-0.262-1.905-0.056-2.591,0.794c-0.093,0.115-0.2,0.218-0.305,0.323
		c-0.013,0.013-0.052,0.002-0.121,0.002c-0.067-0.354,0.134-0.625,0.292-0.903c0.165-0.292,0.376-0.55,0.68-0.706
		c0.292-0.15,0.596-0.278,0.883-0.411c0.203-0.489,0.068-0.979,0.129-1.452c0.057-0.442,0.096-0.887,0.142-1.312
		c0.185-0.045,0.278,0.023,0.35,0.122c0.543,0.747,1.25,1.293,2.064,1.715c0.507,0.263,1,0.556,1.51,0.813
		c1.064,0.535,2.189,0.832,3.389,0.816c0.662-0.009,1.322-0.005,1.983-0.076c1.587-0.173,3.022-0.779,4.412-1.513
		c0.584-0.309,1.161-0.632,1.681-1.052c0.767-0.618,1.342-1.368,1.728-2.275c0.481-1.129,0.693-2.296,0.594-3.523
		c-0.055-0.676-0.254-1.296-0.598-1.874c-0.42-0.707-0.954-1.312-1.611-1.809c-0.65-0.492-1.346-0.911-2.05-1.316
		c-0.182-0.104-0.387-0.172-0.582-0.443c-0.08-0.639-0.146-1.296-0.249-1.948c-0.099-0.623-0.202-1.25-0.366-1.858
		c-0.668-2.476-2.012-4.481-4.175-5.907c-0.579-0.382-1.161-0.753-1.779-1.068c-1.031-0.525-2.128-0.814-3.27-0.97
		c-0.898-0.123-1.798-0.161-2.701-0.154c-1.119,0.009-2.212-0.231-3.319-0.348c-0.143-0.015-0.284-0.09-0.418-0.153
		c-0.408-0.193-0.812-0.392-1.216-0.592c-0.463-0.229-0.941-0.357-1.467-0.388c-1.248-0.072-2.408-0.5-3.536-1.01
		c-0.441-0.199-0.795-0.539-1.173-0.836c-1.018-0.8-2.029-1.61-3.154-2.259c-1.49-0.859-3.034-1.594-4.691-2.081
		c-0.698-0.205-1.408-0.313-2.124-0.402c-0.208-0.026-0.423-0.035-0.631-0.015c-1.107,0.109-2.221,0.18-3.292,0.519
		c-1.492,0.473-2.997,0.902-4.523,1.246c-1.275,0.288-2.335,0.925-3.265,1.824c-0.584,0.564-1.2,1.095-1.803,1.64
		c-1.264,1.145-2.715,1.98-4.279,2.647c-1.955,0.835-3.708,1.987-5.243,3.463c-0.151,0.146-0.309,0.293-0.427,0.465
		c-1.514,2.211-2.355,4.592-1.865,7.318C320.468,113.715,320.786,114.905,321.41,115.986z M492.349,282.681
		c-0.332,1.472-0.826,2.892-1.409,4.282c-0.257,0.612-0.556,1.201-0.928,1.752c-0.834,1.236-1.872,2.289-3.044,3.188
		c-2.392,1.836-5.081,3.095-7.976,3.92c-1.798,0.512-3.634,0.831-5.485,1.085c-1.642,0.225-3.29,0.38-4.941,0.485
		c-1.682,0.107-3.37,0.108-5.057,0.066c-0.963-0.024-1.927-0.034-2.888-0.095c-0.991-0.063-1.976-0.202-2.966-0.268
		c-1.806-0.12-3.592-0.364-5.354-0.771c-3.737-0.862-7.216-2.303-10.305-4.618c-0.752-0.564-1.429-1.201-2.033-1.915
		c-0.919-1.086-1.643-2.301-2.3-3.557c-0.649-1.241-1.014-2.57-1.173-3.957c-0.017-0.145-0.057-0.299,0.106-0.449
		c0.814-0.205,1.679-0.28,2.549-0.326c0.111-0.006,0.25-0.001,0.266-0.189c-0.05-0.059-0.098-0.136-0.165-0.192
		c-0.554-0.463-1.125-0.906-1.663-1.387c-0.854-0.764-1.731-1.496-2.655-2.172c-0.656-0.48-1.337-0.925-1.99-1.409
		c-1.749-1.297-3.685-2.143-5.837-2.492c-0.562-0.091-1.121-0.165-1.66-0.112c-0.257,0.254-0.334,0.547-0.447,0.825
		c-0.101,0.25-0.21,0.499-0.335,0.737c-0.115,0.217-0.275,0.397-0.653,0.461c-0.1,0.043-0.138-0.298-0.342-0.232
		c-0.262,0.108-0.056,0.331-0.143,0.492c-0.737,0.561-1.543,0.226-2.331,0.126c-0.345,0.21-0.691,0.394-1.009,0.619
		c-0.56,0.397-1.133,0.326-1.717,0.091c-0.25-0.101-0.491-0.222-0.693-0.315c-0.887,0.112-1.687,0.428-2.554,0.4
		c-0.441-0.232-0.967-0.299-1.363-0.6c-0.126-0.259,0.133-0.496-0.062-0.777c-0.569-0.533-1.276-0.409-1.995-0.204
		c-0.238-0.144-0.467-0.283-0.668-0.405c-0.1-0.228-0.184-0.418-0.272-0.618c-0.286-0.173-0.57-0.343-0.852-0.515
		c-0.231-0.141-0.463-0.28-0.69-0.427c-0.414-0.27-0.658-0.639-0.779-1.076c0.066-0.463,0.055-0.934-0.024-1.394
		c0.01-0.039,0.02-0.078,0.032-0.117c0.044-0.143,0.104-0.285-0.013-0.455c-0.059-0.047-0.122-0.079-0.187-0.103
		c-0.255-0.777-0.709-1.491-1.319-2.04c-0.126-0.113-0.251-0.217-0.376-0.315c-0.039-0.341-0.255-0.668-0.436-0.998
		c-0.359-0.652-0.506-1.336-0.472-2.08c0.042-0.932,0.042-1.866,0.053-2.799c0.01-0.908-0.137-1.795-0.346-2.678
		c-0.513-2.175-1.297-4.26-2.098-6.336c-0.299-0.777-0.762-1.491-1.115-2.167c-0.301-0.173-0.545-0.146-0.784-0.151
		c-0.572-0.013-1.144-0.014-1.716-0.036c-0.881-0.034-1.722-0.259-2.545-0.562c-0.71-0.261-1.24-0.729-1.602-1.388
		c-0.159-0.29-0.314-0.584-0.443-0.888c-0.823-1.939-1.63-3.884-2.348-5.865c-0.205-0.564-0.448-1.117-0.711-1.657
		c-0.252-0.52-0.419-1.064-0.547-1.621c-0.052-0.228-0.11-0.473,0.056-0.74c0.233-0.133,0.525-0.187,0.821-0.24
		c0.385-0.069,0.768-0.15,1.146-0.249c0.166-0.044,0.357-0.091,0.441-0.395c-0.358-0.707-0.735-1.486-1.206-2.189
		c0.047-0.206,0.087-0.379,0.117-0.512c-0.073-0.232-0.209-0.345-0.386-0.409c-0.452-0.164-0.903-0.332-1.361-0.48
		c-0.261-0.084-0.515-0.173-0.723-0.355c-0.525-0.457-1.043-0.921-1.166-1.693c-0.537-0.245-0.75-0.728-0.893-1.271
		c-0.085-0.323-0.144-0.645-0.163-0.977c-0.054-0.932-0.063-1.864-0.04-2.798c0.029-1.207,0.205-2.396,0.36-3.561
		c-0.137-0.6-0.396-1.102-0.768-1.55c-0.288-0.348-0.557-0.712-0.854-1.051c-0.258-0.293-0.538-0.568-0.82-0.838
		c-0.115-0.11-0.26-0.15-0.374,0.02c-0.006,0.061-0.026,0.123-0.015,0.179c0.383,1.955,0.498,3.938,0.625,5.919
		c0.056,0.874,0.169,1.736,0.323,2.595c0.207,1.157,0.526,2.286,0.863,3.41c0.277,0.926,0.472,1.866,0.516,2.835
		c0.018,0.397-0.022,0.772-0.189,1.144c-0.183,0.411-0.324,0.842-0.464,1.27c-0.151,0.462-0.361,0.892-0.642,1.288
		c-0.454,0.639-0.866,1.305-1.221,2.004c-0.411,0.809-0.873,1.573-1.558,2.192c-0.547,0.494-0.693,1.111-0.399,1.805
		c0.167,0.394,0.146,0.758-0.135,1.097c-0.033,0.039-0.022,0.114-0.037,0.205c0.128,0.136,0.268,0.285,0.426,0.453
		c-0.089,0.521-0.258,1.049-0.061,1.639c0.343,0.382,0.614,0.836,0.38,1.403c-0.222,0.233-0.5,0.274-0.76,0.327
		c-1.269,0.255-2.544,0.477-3.809,0.745c-0.761,0.161-1.433,0.005-2.05-0.434c-0.466-0.331-0.928-0.67-1.375-1.026
		c-0.948-0.756-1.993-1.342-3.094-1.845c-1.212-0.554-2.476-0.722-3.79-0.607c-0.422,0.037-0.836,0.12-1.215,0.319
		c-0.89,0.467-1.153,1.471-0.597,2.3c0.116,0.173,0.264,0.329,0.413,0.476c0.503,0.496,1.112,0.82,1.771,1.053
		c0.968,0.342,1.967,0.571,2.981,0.715c1.042,0.148,2.091,0.242,3.137,0.36c0.206,0.023,0.428,0.001,0.603,0.232
		c0.052,0.45-0.071,0.918-0.168,1.384c-0.358,1.708-0.736,3.412-1.096,5.12c-0.205,0.971-0.38,1.949-0.588,2.92
		c-0.222,1.036-0.542,2.036-1.183,2.904c-0.024,0.033,0.004,0.105,0.01,0.184c0.081-0.043,0.163-0.069,0.222-0.121
		c0.464-0.41,0.734-0.947,0.967-1.507c0.336-0.811,0.502-1.67,0.705-2.518c0.385-1.61,0.746-3.225,1.145-4.831
		c0.196-0.789,0.467-1.558,0.876-2.269c0.089-0.156,0.173-0.322,0.426-0.361c0.413,0.081,0.672,0.419,0.914,0.761
		c0.384,0.543,0.692,1.132,0.924,1.754c0.337,0.902,0.668,1.807,0.97,2.722c0.331,1.003,0.564,2.035,0.65,3.087
		c0.134,1.649,0.204,3.303,0.405,4.947c0.08,0.656,0.139,1.315,0.234,1.969c0.035,0.242,0.05,0.472,0.005,0.713
		c-0.091,0.478-0.071,0.959,0.011,1.437c0.168,0.978,0.328,1.957,0.508,2.933c0.136,0.739,0.225,1.489,0.471,2.205
		c0.294,0.854,0.596,1.705,1.2,2.365c0.404,0.214,0.786,0.204,1.172,0.082c0.113-0.035,0.229-0.077,0.221-0.232
		c-0.032-0.049-0.053-0.121-0.098-0.144c-0.775-0.396-1.177-1.098-1.506-1.852c-0.277-0.637-0.45-1.309-0.568-1.993
		c-0.24-1.393-0.443-2.792-0.59-4.199c-0.163-1.557-0.266-3.117-0.362-4.679c-0.076-1.23-0.082-2.467-0.284-3.689
		c-0.476-2.88-1.373-5.606-2.914-8.102c-0.142-0.23-0.278-0.465-0.403-0.705c-0.035-0.069-0.02-0.163-0.03-0.265
		c0.323-0.086,0.535,0.113,0.752,0.245c1.519,0.925,2.945,1.983,4.338,3.087c0.094,0.075,0.183,0.156,0.272,0.238
		c0.397,0.365,0.834,0.698,0.882,1.309c0.01,0.134,0.137,0.263,0.221,0.388c0.185,0.275,0.371,0.549,0.567,0.816
		c0.752,1.027,1.335,2.146,1.803,3.325c0.943,2.373,1.479,4.828,1.478,7.39c-0.001,1.064,0.17,2.098,0.532,3.098
		c0.564,1.559,0.96,3.166,1.375,4.768c0.282,1.089,0.345,2.197,0.323,3.315c-0.004,0.208-0.002,0.425-0.174,0.591
		c-0.275,0.174-0.656,0.119-0.776,0.262c-0.211,0.269-0.204,0.421-0.159,0.566c0.063,0.201,0.145,0.396,0.219,0.592
		c0.302,0.795,0.476,1.611,0.471,2.467c-0.005,0.964,0.004,1.926-0.101,2.887c-0.039,0.357-0.033,0.722-0.017,1.082
		c0.027,0.601,0.058,1.203,0.123,1.801c0.115,1.047,0.226,2.095,0.398,3.133c0.144,0.869,0.478,1.677,1.048,2.37
		c0.115,0.139,0.233,0.28,0.321,0.436c0.265,0.469,0.53,0.941,0.527,1.461c-0.13,0.305-0.345,0.479-0.536,0.668
		c-0.527,0.521-0.723,1.157-0.717,1.883c0.008,0.797,0.172,1.55,0.521,2.268c0.381,0.785,0.751,1.576,1.038,2.402
		c0.069,0.2,0.142,0.4,0.026,0.603c-0.044,0.047-0.077,0.103-0.126,0.133c-0.772,0.464-1.002,1.157-0.859,2.011
		c0.015,0.089,0.022,0.179,0.036,0.268c0.397,2.436,0.809,4.869,1.67,7.198c0.052,0.141,0.077,0.291,0.127,0.433
		c0.521,1.479,0.527,2.935-0.103,4.397c-0.396,0.92-0.572,1.895-0.502,2.909c0.1,1.441,0.179,2.883,0.275,4.324
		c0.044,0.661,0.098,1.321,0.165,1.979c0.094,0.928,0.197,1.855,0.307,2.781c0.135,1.135,0.236,2.277,0.43,3.402
		c0.374,2.169,1.028,4.267,1.716,6.355c0.054,0.163,0.185,0.322,0.042,0.561c-0.335,0.249-0.796,0.281-1.225,0.403
		c-0.146,0.041-0.293,0.068-0.405,0.251c-0.05,0.168,0.001,0.372,0.051,0.577c0.293,1.198,0.559,2.404,0.884,3.593
		c0.468,1.713,0.928,3.424,1.125,5.197c0.167,1.503,0.205,3.005,0.034,4.506c-0.098,0.866-0.254,1.726-0.399,2.586
		c-0.071,0.421-0.074,0.837-0.02,1.258c0.134,1.048,0.37,2.073,0.704,3.075c0.2,0.599,0.41,1.196,0.597,1.799
		c0.51,1.644,0.893,3.313,0.944,5.042c0.059,1.992-0.103,3.967-0.456,5.93c-0.165,0.916-0.449,1.806-0.56,2.735
		c-0.062,0.521-0.069,1.002,0.166,1.493c0.324,0.678,0.595,1.382,0.887,2.075c0.468,1.115,0.821,2.262,0.987,3.463
		c0.159,1.149,0.107,2.281-0.247,3.392c-0.167,0.524-0.401,1.006-0.816,1.383c-0.111,0.101-0.225,0.2-0.229,0.37
		c0.048,0.188,0.201,0.293,0.342,0.403c0.56,0.439,0.953,0.998,1.214,1.655c0.245,0.615,0.488,1.231,0.739,1.843
		c0.129,0.313,0.21,0.635,0.157,0.969c-0.085,0.532,0.146,0.916,0.492,1.29c0.777,0.84,1.56,1.674,2.401,2.451
		c0.197,0.182,0.413,0.356,0.646,0.487c0.66,0.369,1.265,0.811,1.859,1.276c0.544,0.426,1.078,0.87,1.707,1.178
		c0.246,0.12,0.493,0.201,0.762,0.26c0.83,0.18,1.668,0.21,2.512,0.207c0.632-0.002,1.27-0.023,1.894,0.054
		c0.541,0.067,1.078,0.114,1.619,0.097c1.989-0.06,3.966,0.186,5.951,0.215c0.15,0.002,0.305,0.008,0.448,0.046
		c0.443,0.118,0.895,0.101,1.345,0.125c1.05,0.057,2.112,0.056,3.147,0.219c1.075,0.169,2.157,0.138,3.233,0.276
		c1.007,0.129,2.025,0.293,3.053,0.247c0.149-0.007,0.301,0.02,0.448,0.046c1.007,0.175,2.013,0.354,3.018,0.534
		c0.12,0.022,0.224,0.075,0.258,0.303c-0.031,0.018-0.105,0.074-0.188,0.106c-0.336,0.131-0.668,0.279-1.013,0.377
		c-1.075,0.304-2.18,0.446-3.286,0.576c-0.806,0.095-1.617,0.151-2.423,0.248c-1.165,0.141-2.327,0.3-3.502,0.32
		c-0.18,0.003-0.365-0.003-0.54,0.031c-1.068,0.208-2.158,0.205-3.235,0.266c-1.71,0.098-3.419,0.262-5.137,0.255
		c-0.81-0.003-1.62,0.104-2.431,0.134c-0.842,0.031-1.686,0.022-2.529,0.041c-0.327,0.007-0.668-0.015-0.927,0.22
		c-0.129,0.171-0.129,0.348-0.097,0.531c0.125,0.71,0.237,1.424,0.379,2.131c0.109,0.54-0.068,0.985-0.503,1.256
		c-0.56,0.348-1.165,0.645-1.841,0.699c-0.93,0.074-1.861,0.15-2.793,0.17c-1.505,0.033-3.011,0.023-4.516,0.027
		c-1.808,0.004-3.61-0.103-5.4-0.363c-1.101-0.16-2.209-0.302-3.272-0.65c-1.258-0.412-2.508-0.85-3.761-1.276
		c-0.201-0.069-0.397-0.145-0.548-0.41c-0.137-0.473,0.029-1.082-0.285-1.575c-0.256-0.17-0.528-0.187-0.798-0.197
		c-0.421-0.015-0.843-0.025-1.264-0.032c-0.693-0.01-1.38-0.044-2.068-0.158c-1.187-0.197-2.381-0.348-3.574-0.506
		c-0.416-0.055-0.851-0.166-1.254-0.026c-0.503,0.174-1.007,0.159-1.517,0.147c-2.648-0.064-5.296-0.056-7.944-0.124
		c-2.979-0.077-5.954-0.231-8.934-0.279c-0.12-0.002-0.241-0.011-0.361-0.021c-0.988-0.088-1.975-0.203-2.965-0.261
		c-1.742-0.102-3.486-0.169-5.23-0.251c-0.18-0.008-0.363,0-0.541-0.024c-1.318-0.176-2.644-0.146-3.968-0.159
		c-3.312-0.033-6.622,0.009-9.928,0.232c-0.87,0.059-1.743,0.106-2.608,0.216c-1.344,0.172-2.688,0.32-4.045,0.319
		c-0.271,0-0.547-0.009-0.811,0.038c-0.627,0.113-1.258,0.113-1.89,0.121c-1.264,0.015-2.529,0.024-3.794,0.035
		c-0.482,0.004-0.96,0.034-1.441,0.076c-0.802,0.07-1.623,0.172-2.344-0.315c-0.261,0.085-0.49,0.156-0.716,0.232
		c-1.031,0.347-2.085,0.596-3.169,0.684c-1.049,0.085-2.103,0.125-3.154,0.189c-0.209,0.013-0.42,0.033-0.625,0.072
		c-0.078,0.015-0.143,0.093-0.222,0.147c-0.043,0.45,0.198,0.9-0.042,1.381c-0.281,0.26-0.671,0.418-1.055,0.589
		c-1.825,0.809-3.748,1.308-5.675,1.794c-0.876,0.221-1.758,0.411-2.671,0.401c-0.15-0.001-0.302,0.011-0.449,0.039
		c-0.658,0.123-1.325,0.109-1.981,0.047c-0.752-0.071-1.503-0.075-2.255-0.084c-1.114-0.014-2.229-0.003-3.342-0.044
		c-0.841-0.032-1.68-0.118-2.517-0.205c-0.265-0.028-0.528-0.121-0.781-0.213c-1.03-0.373-1.245-0.736-1.127-1.845
		c0.07-0.658,0.13-1.317,0.196-1.976c0.018-0.181,0.046-0.361-0.105-0.546c-0.272-0.225-0.633-0.243-0.995-0.256
		c-1.171-0.04-2.348,0.038-3.512-0.172c-0.175-0.032-0.361-0.01-0.541-0.012c-0.662-0.006-1.325-0.009-1.987-0.017
		c-0.271-0.004-0.551,0.022-0.81-0.037c-0.596-0.136-1.196-0.112-1.797-0.126c-0.661-0.015-1.318-0.064-1.977-0.128
		c-0.896-0.086-1.784-0.251-2.692-0.265c-0.749-0.012-1.496-0.128-2.243-0.208c-0.508-0.054-1.014-0.123-1.52-0.19
		c-0.774-0.103-1.548-0.202-2.32-0.319c-0.475-0.072-0.95-0.155-1.416-0.27c-0.184-0.045-0.423-0.108-0.416-0.37
		c0.055-0.151,0.169-0.193,0.287-0.218c0.704-0.152,1.397-0.335,2.12-0.423c1.132-0.137,2.246-0.405,3.374-0.581
		c0.799-0.125,1.607-0.21,2.413-0.277c1.287-0.106,2.573-0.256,3.868-0.208c0.06,0.002,0.12-0.009,0.179-0.018
		c1.248-0.189,2.513-0.194,3.766-0.327c0.269-0.028,0.537-0.056,0.806-0.084c0.298-0.03,0.597-0.078,0.896-0.086
		c0.632-0.017,1.264-0.01,1.897-0.021c0.24-0.004,0.488,0,0.717-0.058c0.416-0.105,0.835-0.104,1.256-0.107
		c0.391-0.003,0.783,0.004,1.174-0.014c0.708-0.033,1.354-0.233,1.907-0.706c0.32-0.273,0.668-0.513,1.011-0.757
		c0.638-0.454,1.28-0.901,1.923-1.347c0.498-0.346,0.994-0.713,1.298-1.238c0.381-0.657,0.843-1.245,1.322-1.825
		c0.515-0.623,0.834-1.319,0.836-2.14c0.001-0.64,0.177-1.246,0.333-1.86c0.16-0.627,0.425-1.185,0.888-1.646
		c0.125-0.124,0.276-0.24,0.283-0.49c-0.05-0.065-0.113-0.165-0.194-0.248c-0.883-0.901-1.47-1.968-1.812-3.18
		c-0.1-0.355-0.149-0.707-0.103-1.07c0.094-0.747,0.188-1.495,0.447-2.207c0.236-0.65,0.461-1.306,0.726-1.945
		c0.749-1.808,1.437-3.639,2.078-5.488c0.257-0.741,0.423-1.503,0.538-2.28c0.209-1.419,0.05-2.823-0.122-4.228
		c-0.066-0.537-0.132-1.078-0.351-1.581c-0.369-0.846-0.341-1.703-0.067-2.559c0.174-0.544,0.377-1.08,0.593-1.608
		c0.229-0.559,0.42-1.13,0.549-1.718c0.13-0.587,0.27-1.179,0.198-1.787c-0.06-0.508-0.135-1.014-0.225-1.517
		c-0.127-0.711-0.307-1.413-0.406-2.127c-0.217-1.555-0.228-3.122-0.164-4.688c0.03-0.72,0.135-1.435,0.258-2.149
		c0.281-1.639,0.767-3.217,1.308-4.784c0.304-0.881,0.568-1.777,0.841-2.669c0.078-0.256,0.162-0.52,0.03-0.826
		c-0.361-0.375-0.973-0.389-1.34-0.744c-0.085-0.293,0.021-0.518,0.082-0.748c0.276-1.048,0.55-2.095,0.825-3.143
		c0.306-1.165,0.569-2.337,0.725-3.535c0.222-1.701,0.412-3.405,0.509-5.118c0.051-0.901,0.107-1.804,0.221-2.699
		c0.161-1.26,0.178-2.522,0.153-3.786c-0.008-0.419-0.061-0.841-0.126-1.256c-0.156-0.99-0.174-1.974,0.006-2.964
		c0.222-1.217,0.374-2.44,0.277-3.682c-0.016-0.208,0.006-0.425-0.111-0.575c-0.276-0.332-0.749-0.328-0.951-0.666
		c0.008-0.096-0.005-0.165,0.02-0.213c0.228-0.424,0.435-0.863,0.701-1.262c0.649-0.974,1.07-2.016,1.095-3.2
		c0.003-0.149,0.047-0.297,0.064-0.447c0.088-0.779,0.098-1.562,0.079-2.345c-0.006-0.241-0.028-0.482-0.195-0.721
		c-0.324-0.334-0.833-0.534-1.072-1.037c0.09-0.333,0.324-0.576,0.506-0.846c0.287-0.427,0.532-0.869,0.647-1.38
		c0.29-1.293,0.504-2.597,0.609-3.953c-0.423-0.544-0.368-1.155-0.156-1.78c0.039-0.114,0.051-0.237,0.097-0.348
		c0.278-0.672,0.431-1.378,0.56-2.089c0.205-1.125,0.439-2.246,0.586-3.379c0.158-1.224,0.314-2.447,0.54-3.66
		c0.088-0.473,0.163-0.949,0.225-1.425c0.022-0.17,0.05-0.361-0.137-0.534c-0.12,0.25-0.231,0.49-0.351,0.727
		c-0.164,0.323-0.345,0.636-0.614,0.886c-0.158,0.146-0.331,0.263-0.586,0.223c-1.336-0.603-2.141-1.681-2.561-3.069
		c-0.157-0.518-0.27-1.051-0.286-1.596c-0.026-0.931-0.039-1.863-0.06-2.794c-0.004-0.155-0.038-0.299-0.251-0.372
		c-0.692,0.38-1.059,0.997-1.159,1.785c-0.034,0.268-0.024,0.541-0.031,0.812c-0.039,1.502,0.061,3.001,0.13,4.531
		c0.842,1.158,1.462,2.453,1.855,3.858c0.146,0.523,0.355,1.023,0.601,1.508c0.192,0.379,0.325,0.778,0.333,1.209
		c0.008,0.44-0.091,0.834-0.504,1.127c-0.378-0.087-0.712-0.285-1.026-0.516c-1.097-0.806-2.287-1.459-3.525-2.007
		c-1.34-0.594-2.544-1.372-3.574-2.405c-0.938-0.94-2.067-1.541-3.299-1.971c-0.547-0.191-0.95-0.519-1.17-1.049
		c-0.219-0.527-0.457-1.053-0.606-1.602c-0.223-0.82-0.512-1.611-0.941-2.337c-0.45-0.762-0.565-1.576-0.542-2.429
		c0.008-0.301,0.028-0.602,0.068-0.9c0.134-0.984,0.248-1.972,0.428-2.947c0.327-1.777,0.56-3.566,0.794-5.356
		c0.07-0.537,0.13-1.076,0.178-1.615c0.03-0.329,0.058-0.668-0.129-0.968c-0.357-0.57-0.478-1.231-0.726-1.844
		c-0.162-0.4-0.198-0.812-0.136-1.241c0.099-0.685,0.188-1.371,0.271-2.058c0.082-0.687,0.201-1.374,0.215-2.064
		c0.037-1.806,0.028-3.613,0.032-5.419c0.001-0.207,0.015-0.425-0.2-0.659c-0.309-0.174-0.734-0.219-1.144-0.286
		c-1.247-0.203-2.498-0.377-3.746-0.573c-1.307-0.205-2.617-0.407-3.901-0.732c-0.337-0.085-0.673-0.195-0.993-0.332
		c1.144-4.598,1.96-9.214,2.068-13.925c1.085-0.04,2.171-0.08,3.256-0.121c0.271-0.01,0.542-0.019,0.812-0.033
		c0.212-0.011,0.419-0.048,0.602-0.168c0.507-0.727,0.747-1.213,1.048-2.177c0.412-1.322,0.75-2.664,1.019-4.023
		c0.124-0.625,0.18-1.266,0.046-1.886c-0.237-1.098-0.126-2.223-0.306-3.323c-0.034-0.205-0.023-0.423,0.003-0.631
		c0.13-1.014,0.216-2.033,0.412-3.04c0.316-1.625,0.766-3.218,1.081-4.844c0.338-1.744,0.618-3.494,0.825-5.257
		c0.134-1.135,0.279-2.27,0.467-3.397c0.549-3.295,1.238-6.563,1.974-9.82c0.657-2.906,1.399-5.79,2.169-8.668
		c0.443-1.657,0.899-3.31,1.388-4.954c0.385-1.298,0.844-2.573,1.242-3.867c1.293-4.2,2.664-8.373,4.226-12.481
		c0.343-0.903,0.739-1.779,1.212-2.619c0.612-1.088,1.466-1.901,2.667-2.311c0.228-0.078,0.454-0.16,0.682-0.238
		c1.254-0.429,2.503-0.885,3.668-1.514c1.274-0.687,2.585-1.287,3.903-1.879c2.306-1.035,4.566-2.167,6.881-3.186
		c2.783-1.224,5.554-2.47,8.408-3.522c0.592-0.218,1.171-0.476,1.745-0.741c0.466-0.215,0.905-0.479,1.253-0.923
		c0.074-0.445,0.131-0.924,0.236-1.393c0.125-0.557,0.27-1.112,0.446-1.655c0.213-0.657,0.466-1.301,0.704-1.95
		c0.009-0.024,0.038-0.046,0.063-0.056c0.022-0.009,0.051-0.002,0.113-0.002c0.005,0.835,0.273,1.59,0.735,2.282
		c0.355,0.531,0.791,0.991,1.294,1.376c0.549,0.42,1.118,0.817,1.701,1.188c0.736,0.469,1.494,0.904,2.243,1.351
		c1.208,0.721,2.042,1.756,2.575,3.05c0.233,0.566,0.406,1.133,0.251,1.753c-0.013,0.051,0.025,0.115,0.04,0.178
		c0.21,0.358,0.568,0.403,0.935,0.427c1.682,0.107,3.362,0.243,5.045,0.313c2.167,0.09,4.322,0.289,6.475,0.541
		c2.213,0.259,4.409,0.625,6.603,1c0.503,0.086,1.001,0.215,1.49,0.364c0.845,0.257,1.391,0.803,1.56,1.698
		c0.073,0.386,0.137,0.769,0.139,1.163c0.003,0.903,0.016,1.806,0.016,2.71c0.001,2.077-0.023,4.155,0.001,6.233
		c0.018,1.474,0.027,2.949,0.125,4.423c0.061,0.927,0.098,1.865-0.071,2.793c-0.037,0.205-0.019,0.42-0.019,0.631
		c-0.001,1.807,0.002,3.613,0,5.42c-0.003,2.769,0.032,5.539-0.168,8.305c-0.12,1.651-0.17,3.306-0.252,4.96
		c-0.004,0.09-0.01,0.18-0.015,0.271c-0.093,1.712-0.194,3.424-0.277,5.137c-0.044,0.902-0.039,1.807-0.091,2.708
		c-0.083,1.442-0.197,2.882-0.291,4.323c-0.084,1.291-0.155,2.583-0.24,3.874c-0.053,0.811-0.123,1.62-0.185,2.43
		c-0.092,1.2-0.22,2.398-0.27,3.6c-0.087,2.074-0.241,4.146-0.2,6.226c0.019,0.963-0.016,1.927-0.033,2.89
		c-0.005,0.27-0.027,0.541-0.049,0.811c-0.09,1.109-0.228,2.215-0.261,3.326c-0.039,1.295-0.118,2.585-0.241,3.873
		c-0.154,1.617-0.314,3.233-0.348,4.858c-0.012,0.571,0.006,1.141-0.096,1.71c-0.054,0.306-0.01,0.629-0.01,0.944
		c0.051-0.486,0.249-0.937,0.277-1.421c0.062-1.081,0.144-2.161,0.231-3.24c0.065-0.809,0.14-1.618,0.225-2.425
		c0.082-0.777,0.195-1.552,0.276-2.329c0.153-1.466,0.295-2.933,0.438-4.4c0.154-1.587,0.335-3.172,0.447-4.762
		c0.148-2.101,0.266-4.205,0.351-6.31c0.079-1.954,0.048-3.913,0.237-5.863c0.044-0.449,0.037-0.902,0.068-1.353
		c0.101-1.441,0.21-2.881,0.314-4.322c0.071-0.99,0.101-1.985,0.215-2.971c0.17-1.468,0.156-2.945,0.255-4.416
		c0.118-1.741,0.067-3.49,0.173-5.234c0.099-1.622,0.095-3.249,0.182-4.873c0.1-1.863,0.108-3.73,0.193-5.595
		c0.112-2.435,0.13-4.875,0.173-7.313c0.035-1.987-0.025-3.972-0.078-5.959c-0.081-3.009-0.04-6.02-0.198-9.028
		c-0.033-0.633-0.076-1.262-0.207-1.882c-0.272-1.285-1.044-2.144-2.267-2.595c-0.338-0.124-0.693-0.205-1.045-0.286
		c-1.585-0.362-3.189-0.623-4.801-0.831c-1.611-0.208-3.228-0.368-4.843-0.549c-0.15-0.017-0.301-0.032-0.425-0.251
		c-0.022-0.684,0.091-1.426,0.172-2.172c0.099-0.903,0.543-1.582,1.266-2.093c0.319-0.225,0.665-0.412,0.997-0.618
		c0.664-0.413,1.335-0.818,1.99-1.245c0.837-0.545,1.582-1.2,2.257-1.935c0.535-0.583,0.964-1.23,1.25-1.971
		c0.052-0.134,0.048-0.302,0.214-0.371c0.111,0.007,0.128,0.1,0.159,0.177c0.363,0.895,0.655,1.816,0.831,2.763
		c0.425,2.298,0.258,2.807-0.814,4.538c-0.491,0.793-1.01,1.569-1.509,2.358c-0.105,0.166-0.298,0.307-0.221,0.551
		c0.144,0.033,0.221-0.065,0.292-0.15c1.245-1.481,2.202-3.14,2.998-4.904c0.115,0.022,0.209,0.022,0.287,0.058
		c1.207,0.548,2.454,0.99,3.701,1.437c0.906,0.325,1.811,0.661,2.691,1.049c2.313,1.02,4.613,2.069,6.916,3.111
		c1.234,0.558,2.445,1.169,3.697,1.682c1.978,0.811,3.954,1.62,5.847,2.618c0.613,0.324,1.26,0.56,1.936,0.733
		c0.787,0.201,1.553,0.475,2.289,0.827c1.016,0.487,1.769,1.234,2.251,2.253c0.064,0.136,0.129,0.272,0.191,0.409
		c1.202,2.694,2.335,5.416,3.29,8.21c0.214,0.626,0.449,1.246,0.705,1.856c1.035,2.471,1.939,4.993,2.887,7.497
		c0.671,1.773,1.271,3.573,1.959,5.339c0.701,1.797,1.323,3.618,1.855,5.469c0.88,3.065,1.734,6.138,2.598,9.208
		c1.019,3.62,2.026,7.244,3.063,10.86c0.268,0.936,0.354,1.888,0.454,2.846c0.121,1.155-0.135,2.203-0.767,3.179
		c-0.425,0.656-0.813,1.338-1.195,2.021c-0.22,0.393-0.412,0.803-0.589,1.217c-0.266,0.622-0.338,1.262-0.216,1.942
		c0.161,0.893,0.36,1.771,0.737,2.598c0.449,0.986,0.921,1.961,1.385,2.94c0.076,0.16,0.197,0.305,0.164,0.543
		c-0.405,0.174-0.851,0.204-1.3,0.21c-1.235,0.016-2.466,0.084-3.694,0.217c-0.676,0.073-1.47,0.255-2.025,0.505
		c0.149,0,0.27,0.014,0.386-0.002c1.252-0.179,2.509-0.272,3.774-0.291c1.085-0.016,2.164,0.055,3.246,0.133
		c1.232,0.09,2.457,0.218,3.678,0.395c0.806,0.116,1.595,0.309,2.361,0.591c0.538,0.198,1.09,0.398,1.522,0.776
		c1.085,0.948,1.935,2.063,2.24,3.514c0.062,0.294,0.091,0.595,0.138,0.892c0.274,1.746-0.001,3.418-0.696,5.027
		c-0.577,1.335-1.549,2.284-2.901,2.817c-0.473,0.187-0.973,0.317-1.471,0.425c-0.587,0.128-1.185,0.204-1.779,0.301
		c-0.092,0.015-0.165,0.045-0.157,0.161c0.131,0.176,0.328,0.14,0.492,0.11c1.005-0.182,2.02-0.316,2.988-0.673
		c1.202-0.443,2.16-1.175,2.798-2.298c0.163-0.288,0.313-0.584,0.462-0.879c0.283-0.561,0.561-1.124,0.842-1.686
		c0.001,0.348-0.064,0.67-0.123,0.994c-0.125,0.692-0.399,1.32-0.787,1.905c-0.821,1.239-1.998,1.975-3.383,2.42
		c-0.746,0.24-1.507,0.418-2.279,0.551c-0.353,0.061-0.705,0.121-0.997,0.259c-0.186,0.353-0.039,0.642,0.028,0.925
		c0.448,1.879,1.12,3.683,1.839,5.471c0.166,0.412,0.454,0.702,0.824,0.926c0.306,0.186,0.629,0.35,0.849,0.629
		c0.021,0.347-0.186,0.675,0.05,1.028c0.273,0.28,0.681,0.409,1.061,0.583c0.547,0.251,1.093,0.505,1.645,0.742
		c0.624,0.268,1.009,0.742,1.222,1.371c0.067,0.199,0.121,0.403,0.177,0.605c0.065,0.235,0.155,0.453,0.342,0.624
		c0.11,0.101,0.221,0.212,0.294,0.339c0.477,0.83,1.156,1.456,1.957,1.962c0.051,0.032,0.098,0.07,0.146,0.107
		c0.506,0.391,0.786,0.903,0.808,1.546c0.012,0.331,0.01,0.662,0.019,0.993c0.004,0.149-0.004,0.303,0.199,0.488
		c0.014,0.009,0.034,0.016,0.055,0.022c-0.114,0.276-0.165,0.574-0.205,0.914c-0.068,0.575,0.198,1.079,0.606,1.445
		c-0.183-0.004-0.368,0.008-0.551,0.014c-0.131,0.005-0.215,0.084-0.205,0.238c0.186,0.236,0.48,0.224,0.735,0.28
		c0.44,0.097,0.889,0.156,1.334,0.231c2.654,0.446,5.224,1.187,7.668,2.314c2.709,1.249,5.326,2.672,7.815,4.323
		c1.706,1.132,3.434,2.227,5.212,3.245c0.669,0.383,1.374,0.602,2.144,0.618c0.391,0.008,0.783,0.021,1.174,0.022
		c1.234,0.003,2.469-0.001,3.704,0c6.834,0.006,13.669-0.069,20.503,0.058c3.853,0.071,7.708,0.055,11.561,0.075
		c1.325,0.007,2.65-0.003,3.975,0.003c0.234,0.001,0.485-0.054,0.712,0.146C492.492,282.036,492.421,282.36,492.349,282.681z
		 M363.799,166.416c0.431,0.764,1.101,1.169,1.956,1.286c0.281,0.038,0.536-0.043,0.759-0.217c0.535-0.419,0.798-0.964,0.752-1.665
		c0.064-0.465-0.115-0.875-0.425-1.223c-0.407-0.458-0.916-0.659-1.536-0.538c-0.77,0.151-1.306,0.577-1.585,1.315
		C363.585,165.733,363.61,166.082,363.799,166.416z M363.75,192.876c0.287,0.694,0.906,0.927,1.585,1.026
		c0.489,0.071,0.955-0.085,1.415-0.221c0.241-0.072,0.392-0.263,0.514-0.48c0.185-0.33,0.199-0.688,0.195-1.219
		c-0.012-0.072-0.022-0.317-0.095-0.542c-0.313-0.973-1.208-1.448-2.212-1.199c-0.266,0.066-0.516,0.164-0.741,0.319
		C363.58,191.131,363.423,192.086,363.75,192.876z M361.486,213.275c0.484,0.506,1.006,0.928,1.693,1.129
		c1.031,0.302,1.947-0.309,2.047-1.383c0.125-1.351-0.821-2.326-2.242-2.312c-0.971-0.026-1.61,0.533-1.813,1.414
		C361.072,212.55,361.158,212.932,361.486,213.275z M360.336,236.723c0.156,0.197,0.379,0.279,0.58,0.348
		c1.427-0.248,1.811-0.191,3.051,0.458c0.316-0.279,0.41-0.649,0.345-1.046c-0.062-0.382-0.157-0.764-0.288-1.128
		c-0.366-1.011-1.448-1.469-2.404-1.305c-0.736,0.127-1.302,0.709-1.423,1.44C360.141,235.819,360.184,236.199,360.336,236.723z
		 M342.55,234.194c-0.145-0.038-0.288-0.082-0.435-0.107c-1.571-0.272-2.409,1.155-1.949,2.256c0.023,0.055,0.052,0.107,0.119,0.243
		c0.125,0.089,0.261,0.161,0.365,0.264c0.583,0.577,1.307,0.662,2.075,0.623c0.435-0.022,0.75-0.232,0.926-0.606
		C344.146,235.814,343.758,234.508,342.55,234.194z M342.146,212.32c-0.264-0.87-1.045-1.449-1.945-1.439
		c-0.893,0.01-1.48,0.437-1.751,1.267c-0.086,0.263-0.105,0.526-0.049,0.796c0.163,0.786,0.941,1.621,1.651,1.727
		C341.473,214.883,342.539,213.618,342.146,212.32z M339.921,189.911c-0.349,0.085-0.698,0.166-1.044,0.263
		c-0.208,0.059-0.367,0.196-0.484,0.38c-0.164,0.259-0.263,0.537-0.259,0.852c0.09,0.956,0.526,1.707,1.368,2.185
		c0.358,0.203,0.734,0.171,1.112-0.037c0.913-0.503,1.295-1.719,0.964-2.56c-0.135-0.343-0.345-0.628-0.642-0.849
		C340.632,189.92,340.298,189.819,339.921,189.911z M338.036,177.924c-0.084-0.031-0.171-0.059-0.259-0.07
		c-0.178-0.022-0.357-0.031-0.536-0.046c-1.022-0.05-1.697,0.65-1.854,1.269c-0.06,0.237-0.084,0.465-0.026,0.707
		c0.093,0.386,0.259,0.735,0.518,1.034c0.495,0.572,1.128,0.764,1.86,0.611c0.682-0.143,1.088-0.6,1.299-1.237
		C339.377,179.172,338.972,178.27,338.036,177.924z M334.611,164.433c0.066,0.197,0.164,0.385,0.254,0.573
		c0.357,0.743,0.766,1.082,1.923,0.887c0.787-0.132,1.299-0.742,1.373-1.559c0.095-1.055-0.619-1.936-1.676-2.063
		c-0.148-0.018-0.298-0.018-0.24-0.015c-0.988-0.034-1.479,0.358-1.674,0.941C334.434,163.604,334.476,164.028,334.611,164.433z
		 M314.084,185.379c0.087-2.428,0.013-4.856-0.018-7.283C313.92,179.06,313.931,184.538,314.084,185.379z M314.017,225.119
		c0.174,0.575,0.342,1.153,0.511,1.73c0.197,0.671,0.09,1.309-0.205,1.928c-0.129,0.271-0.259,0.544-0.373,0.822
		c-0.044,0.108-0.06,0.236,0.07,0.321c0.21-0.017,0.291-0.191,0.381-0.34c0.393-0.648,0.679-1.343,0.845-2.082
		c0.302-1.35,0.594-2.703,0.887-4.055c0.108-0.5,0.211-1.001,0.306-1.503c0.033-0.172,0.095-0.353-0.054-0.57
		c-0.677,1.184-1.385,2.32-2.471,3.096C313.842,224.733,313.956,224.92,314.017,225.119z M303.483,254.891
		c0.022,0.02,0.042,0.053,0.064,0.054c1.432,0.09,2.864,0.181,4.296,0.261c0.298,0.017,0.599-0.002,0.898-0.015
		c0.275-0.012,0.526-0.113,0.76-0.251c0.183-0.108,0.328-0.255,0.412-0.444c-0.098-0.146-0.168-0.039-0.218,0.009
		c-0.419,0.399-0.925,0.525-1.487,0.505c-0.836-0.03-1.67,0.006-2.506-0.139c-0.584-0.101-1.194-0.055-1.793-0.065
		C303.766,254.803,303.608,254.773,303.483,254.891z M302.275,239.552c-1.639-0.564-3.198-0.852-4.783-1.037
		c-2.932-0.342-5.874-0.349-8.819-0.296c-0.053,0.001-0.105,0.046-0.19,0.085c0.104,0.033,0.182,0.077,0.262,0.081
		c1.65,0.073,3.298,0.155,4.95,0.194c1.952,0.046,3.895,0.247,5.818,0.604c0.62,0.115,1.237,0.249,1.854,0.374
		C301.63,239.61,301.892,239.672,302.275,239.552z M317.167,245.516c0.24-0.294,0.516-0.584,0.496-1.026
		c-0.105-0.259-0.307-0.289-0.479-0.439c0.045-0.275,0.366-0.451,0.369-0.762c0.012-0.293-0.118-0.527-0.35-0.691
		c-0.634-0.447-1.033-1.083-1.429-1.725c-0.158-0.256-0.318-0.511-0.475-0.768c-0.22-0.359-0.453-0.711-0.652-1.082
		c-0.182-0.34-0.325-0.701-0.482-1.043c-0.174-0.081-0.298-0.008-0.419,0.091c-0.462,0.376-0.884,0.809-1.483,1.01
		c-0.112,0.448-0.41,0.723-0.783,0.945c-0.514,0.307-0.8,0.8-0.981,1.349c-0.102,0.31-0.274,0.605-0.263,0.948
		c0.044,0.213,0.232,0.278,0.394,0.333c0.655,0.221,1.315,0.426,1.976,0.628c0.342,0.105,0.689,0.191,0.95,0.262
		c0.207,0.23,0.185,0.415,0.146,0.589c-0.073,0.322-0.161,0.642-0.253,0.959c-0.749,2.601-1.495,5.203-2.254,7.801
		c-0.143,0.49-0.328,0.968-0.512,1.445c-0.283,0.732-0.846,1.143-1.584,1.351c-0.498,0.14-1.005,0.181-1.518,0.183
		c-0.963,0.004-1.927,0.002-2.889,0.021c-0.703,0.014-1.123,0.133-1.759,0.448c-0.097,0.351-0.139,0.74-0.144,1.128
		c-0.016,1.233-0.077,2.467,0.079,3.697c0.16,1.257,0.411,2.492,0.836,3.688c0.213,0.6,0.539,1.141,0.894,1.666
		c0.826,1.223,1.581,2.487,2.292,3.781c0.94,1.712,1.508,3.544,1.74,5.47c0.104,0.862,0.047,1.743,0.064,2.615
		c0.009,0.451,0.03,0.902,0.025,1.353c-0.005,0.431,0.071,0.849,0.266,1.223c0.395,0.759,0.567,1.58,0.743,2.403
		c0.036,0.168,0.014,0.368,0.213,0.455c0.124,0.025,0.183-0.067,0.197-0.144c0.115-0.639,0.046-1.255-0.25-1.842
		c-0.162-0.322-0.307-0.652-0.459-0.98c-0.133-0.286-0.143-0.58-0.052-0.88c0.026-0.086,0.039-0.177,0.069-0.262
		c0.363-1.065,0.449-2.176,0.547-3.285c0.133-1.498,0.221-3.001,0.402-4.493c0.207-1.699,0.407-3.404,0.981-5.036
		c0.137-0.391,0.285-0.796,0.253-1.281c-0.515-0.601-0.46-1.295-0.13-1.993c0.773-1.637,1.249-3.385,1.897-5.069
		c0.216-0.561,0.441-1.119,0.649-1.684c0.207-0.564,0.4-1.134,0.595-1.702c0.097-0.284,0.168-0.579,0.278-0.858
		c0.522-1.314,1.037-2.63,1.326-4.021c0.018-0.086,0.069-0.166,0.123-0.293c0.181-0.135,0.394-0.294,0.599-0.448
		c0.017-0.115,0.06-0.211,0.037-0.288c-0.153-0.515-0.134-1.007,0.143-1.479c0.044-0.075,0.095-0.179,0.077-0.252
		c-0.122-0.486,0.199-0.861,0.302-1.217C317.528,245.949,317.216,245.808,317.167,245.516z M317.984,192.339
		c-0.028-0.147-0.039-0.298-0.047-0.447c-0.076-1.348-0.149-2.696-0.226-4.044c-0.003-0.057-0.028-0.114-0.047-0.186
		c-0.147,0.144-0.084,0.32-0.082,0.473c0.014,0.989-0.054,1.983,0.14,2.965c0.034,0.174,0.016,0.36,0.022,0.54
		c0.02,0.63,0.039,1.257,0.142,1.884c0.087,0.528,0.066,1.073,0.093,1.611C318.078,194.191,318.158,193.261,317.984,192.339z
		 M328.59,198.587c0.521-0.148,1.033-0.326,1.548-0.492c0.259-0.084,0.516-0.173,0.694-0.417c0.17-0.296,0.117-0.633,0.117-0.96
		c-0.008-3.792-0.02-7.584-0.029-11.376c-0.004-1.445,0.004-2.889-0.007-4.334c-0.002-0.324,0.052-0.665-0.158-1.001
		c-0.411-0.277-0.894-0.232-1.367-0.148c-0.621,0.11-1.24,0.244-1.853,0.396c-1.343,0.331-2.683,0.677-4.023,1.022
		c-1.838,0.473-3.642,1.047-5.375,1.83c-0.273,0.124-0.559,0.229-0.776,0.449c-0.084,0.086-0.15,0.187-0.056,0.307
		c0.082,0.071,0.173,0.061,0.253,0.019c1.314-0.69,2.722-1.119,4.141-1.529c2.457-0.71,4.921-1.39,7.442-1.84
		c0.238-0.042,0.471-0.098,0.71-0.047c0.192,0.085,0.251,0.257,0.283,0.437c0.087,0.49,0.046,2.513-0.06,3.076
		c-0.123,0.089-0.261,0.189-0.406,0.294c0.146,0.069,0.278,0.131,0.428,0.202c0.02,0.119,0.057,0.235,0.058,0.351
		c0.016,4.153,0.029,8.306,0.039,12.458c0,0.085-0.049,0.17-0.082,0.275c-0.323,0.266-0.72,0.399-1.117,0.542
		c-2.128,0.765-4.336,1.238-6.523,1.785c-0.816,0.204-1.639,0.381-2.457,0.579c-0.218,0.053-0.427,0.137-0.807,0.262
		c0.271,0.019,0.362,0.047,0.443,0.029C322.637,200.063,325.638,199.428,328.59,198.587z M372.154,360.739
		c-0.35-1.682-0.507-3.39-0.724-5.09c-0.126-0.984-0.264-1.967-0.405-2.95c-0.217-1.518-0.48-3.031-0.55-4.567
		c-0.007-0.153-0.036-0.298-0.167-0.436c-0.362-0.135-0.749-0.021-1.133,0.012c-1.139,0.096-2.275,0.236-3.415,0.296
		c-3.005,0.159-6.013,0.263-9.017,0.429c-2.798,0.155-5.596,0.096-8.395,0.064c-1.655-0.019-3.31-0.075-4.963-0.148
		c-1.652-0.073-3.304-0.184-4.955-0.287c-1.051-0.066-2.101-0.136-3.15-0.226c-1.049-0.09-2.095-0.208-3.142-0.309
		c-0.689-0.066-1.378-0.127-2.067-0.182c-0.116-0.009-0.236,0.023-0.323,0.033c-0.124,0.107-0.181,0.213-0.168,0.34
		c0.188,1.819-0.108,3.603-0.429,5.379c-0.241,1.331-0.531,2.654-0.813,3.977c-0.233,1.091-0.375,2.196-0.464,3.305
		c-0.164,2.037-0.712,3.962-1.59,5.797c-0.389,0.814-0.779,1.63-1.215,2.419c-0.838,1.52-1.105,3.167-1.173,4.867
		c-0.05,1.268,0.097,2.522,0.227,3.78c0.124,1.196,0.259,2.392,0.273,3.598c0.012,0.997-0.131,1.982-0.223,2.969
		c-0.143,1.53-0.468,3.03-0.881,4.511c-0.385,1.379-0.966,2.653-1.915,3.745c-0.235,0.27-0.432,0.577-0.621,0.883
		c-0.165,0.267-0.206,0.567-0.079,0.866c0.417,0.985,0.473,2.046,0.639,3.081c0.133,0.831,0.242,1.668,0.305,2.507
		c0.063,0.836,0.05,1.677,0.08,2.516c0.01,0.27,0.043,0.539,0.08,0.807c0.012,0.084,0.071,0.161,0.099,0.223
		c0.242,0.222,0.523,0.181,0.789,0.183c1.234,0.009,2.468,0.004,3.702,0.018c0.931,0.011,1.865-0.059,2.789,0.137
		c0.26,0.055,0.54,0.023,0.811,0.025c1.053,0.008,2.107,0.009,3.16,0.022c0.631,0.008,1.265-0.013,1.888,0.13
		c0.058,0.013,0.12,0.018,0.18,0.016c1.357-0.033,2.704,0.125,4.053,0.222c2.614,0.189,5.234,0.119,7.848,0.232
		c4.423,0.191,8.847,0.036,13.27,0.078c3.034-0.244,6.078-0.067,9.113-0.196c1.502-0.064,3.008-0.063,4.505-0.177
		c1.021-0.077,2.041-0.108,3.062-0.16c0.416-0.021,0.83-0.101,1.219-0.15c0.164-0.263,0.111-0.409,0.093-0.557
		c-0.076-0.6-0.053-1.201,0.008-1.801c0.034-0.328,0.076-0.656,0.096-0.985c0.08-1.261,0.167-2.52,0.344-3.773
		c0.111-0.783,0.325-1.527,0.651-2.244c0.148-0.326,0.344-0.641,0.299-1.037c-0.063-0.295-0.279-0.516-0.445-0.764
		c-0.585-0.875-1.25-1.695-1.78-2.609c-1.039-1.791-1.708-3.702-1.988-5.76c-0.212-1.564-0.173-3.118-0.021-4.681
		c0.113-1.168,0.14-2.345,0.283-3.508c0.147-1.2,0.156-2.4,0.185-3.603c0.024-1.021-0.19-1.961-0.693-2.854
		c-0.384-0.681-0.689-1.405-1.05-2.099C373.213,365.063,372.609,362.927,372.154,360.739z M365.421,252.511
		c-1.503,0.031-3.01,0.038-4.505,0.174c-1.471,0.135-2.941,0.132-4.413,0.169c-0.24,0.006-0.485,0.005-0.718,0.053
		c-0.387,0.08-0.776,0.087-1.167,0.089c-1.203,0.006-2.406,0.009-3.609,0.024c-0.234,0.003-0.481-0.054-0.709,0.074
		c0.159,0.133,0.344,0.085,0.516,0.09c0.57,0.019,1.141-0.013,1.702,0.144c0.197,0.055,0.418,0.033,0.628,0.035
		c0.421,0.005,0.838,0.011,1.253,0.121c0.228,0.061,0.478,0.055,0.717,0.054c2.075-0.006,4.154,0.048,6.224-0.049
		c1.683-0.079,3.371-0.027,5.045-0.176c1.378-0.123,2.765-0.045,4.136-0.269c0.353-0.057,0.721-0.047,1.081-0.038
		c0.757,0.018,1.493-0.155,2.241-0.224c0.257-0.024,0.524-0.093,0.691-0.384c-0.12-0.04-0.2-0.09-0.279-0.089
		c-0.781,0.015-1.563-0.033-2.341,0.098c-0.265,0.045-0.54,0.034-0.81,0.037C369.21,252.467,367.315,252.472,365.421,252.511z
		 M382.796,178.54c-0.006,1.053-0.042,2.108,0.101,3.157c0.016,0.119,0.023,0.24,0.022,0.36c-0.02,1.598,0.148,3.189,0.271,4.777
		c0.181,2.339,0.35,4.68,0.618,7.012c0.272,2.367,0.295,4.743,0.109,7.122c-0.101,1.29-0.149,2.584-0.206,3.877
		c-0.069,1.569,0.075,3.125,0.273,4.68c0.122,0.953,0.17,1.916,0.25,2.875c0.017,0.207,0.03,0.415,0.044,0.622
		c0.135-0.759,0.156-1.506,0.048-2.253c-0.039-0.267-0.071-0.538-0.073-0.807c-0.011-1.897-0.019-3.794-0.017-5.691
		c0.001-0.993,0.08-1.984,0.124-2.976c0.12-2.678,0.081-5.357-0.044-8.036c-0.025-0.541-0.036-1.084-0.027-1.625
		c0.02-1.239-0.14-2.463-0.288-3.688c-0.201-1.673-0.426-3.343-0.618-5.016c-0.102-0.896-0.161-1.798-0.23-2.698
		c-0.055-0.718-0.26-1.418-0.196-2.226C382.736,178.212,382.797,178.39,382.796,178.54z M381.963,232.784
		c-0.167-0.318-0.353-0.632-0.57-0.918c-0.745-0.983-1.45-1.993-2.094-3.046c-0.675-1.103-1.391-2.181-2.06-3.287
		c-0.772-1.276-1.253-2.662-1.491-4.135c-0.08-0.495-0.139-0.998-0.319-1.448c-0.182-0.015-0.201,0.077-0.207,0.164
		c-0.066,0.97,0.088,1.923,0.287,2.863c0.161,0.763,0.374,1.521,0.631,2.258c1.182,3.383,2.193,6.815,3.047,10.295
		c0.172,0.701,0.386,1.392,0.531,2.098c0.294,1.43,0.247,2.871,0.047,4.309c-0.058,0.417-0.148,0.829-0.216,1.244
		c-0.024,0.145-0.061,0.296,0.119,0.566c0.174-0.472,0.319-0.83,0.437-1.198c0.193-0.601,0.374-1.206,0.547-1.813
		c0.219-0.768,0.208-1.544,0.07-2.325c-0.21-1.186-0.5-2.353-0.806-3.518c-0.137-0.523-0.243-1.055-0.342-1.586
		c-0.051-0.275-0.013-0.316,0.266-0.631c0.355,0.046,0.654,0.252,0.968,0.422c0.211,0.115,0.42,0.234,0.637,0.337
		c0.139,0.066,0.29,0.072,0.44-0.001C382.11,233.246,382.077,233.002,381.963,232.784z M385.4,226.604
		c-0.337-0.901-0.696-1.794-1.017-2.701c-0.511-1.446-1.019-2.893-1.487-4.353c-0.395-1.233-0.833-2.448-1.325-3.644
		c-1.294-3.149-2.325-6.381-3.171-9.678c-0.464-1.805-1.019-3.587-1.544-5.376c-0.349-1.189-0.576-2.393-0.609-3.636
		c-0.017-0.63-0.094-1.259-0.157-1.887c-0.018-0.177-0.069-0.353-0.124-0.523c-0.026-0.08-0.098-0.146-0.161-0.236
		c-0.262,0.009-0.351,0.136-0.399,0.278c-0.249,0.746-0.417,1.493-0.287,2.298c0.235,1.46,0.654,2.873,1.062,4.288
		c0.607,2.11,1.225,4.217,1.873,6.314c0.843,2.73,1.745,5.44,2.754,8.114c0.478,1.267,1,2.514,1.533,3.759
		c0.318,0.744,0.53,1.533,0.795,2.3c0.561,1.622,1.252,3.19,2.004,4.732c0.064,0.132,0.15,0.253,0.232,0.389
		C385.547,226.875,385.448,226.734,385.4,226.604z M388.919,180.905c0.001-0.81-0.061-1.619-0.096-2.428
		c-0.062-1.436-0.173-2.879,0.056-4.316c0.06-0.38,0.049-0.768-0.032-1.15c-0.109,0.953-0.306,1.891-0.29,2.856
		c0.032,1.922-0.036,3.849,0.07,5.766c0.071,1.29,0.091,2.579,0.134,3.868c0.003,0.086,0.032,0.172,0.111,0.257
		c0.006-0.236,0.014-0.472,0.016-0.708C388.899,183.669,388.917,182.287,388.919,180.905z M385.195,250.659
		c0.143-0.21,0.027-0.393-0.035-0.584c-0.11-0.033-0.195-0.085-0.276-0.079c-0.838,0.064-1.677,0.126-2.514,0.211
		c-0.807,0.082-1.611,0.19-2.416,0.288c-0.115,0.014-0.24,0.017-0.303,0.153c-0.009,0.095,0.049,0.158,0.131,0.203
		c0.237,0.13,0.468,0.275,0.714,0.385c1.48,0.66,2.709,1.661,3.837,2.802c0.317,0.32,0.642,0.632,0.974,0.936
		c0.106,0.097,0.239,0.188,0.445,0.048c-0.108-1.439-0.755-2.795-0.913-4.177C384.953,250.637,385.086,250.684,385.195,250.659z
		 M368.781,246.556c-0.618,0.062-1.036,0.731-0.887,1.336c0.129,0.524,0.452,0.905,0.906,1.188c0.574,0.358,1.211,0.538,1.867,0.633
		c1.368,0.199,2.741,0.354,4.125,0.409c0.48,0.019,0.959,0.07,1.439,0.102c0.177,0.011,0.365,0.036,0.536-0.225
		c-0.092-0.115-0.156-0.217-0.241-0.298c-1.276-1.217-2.72-2.173-4.366-2.822C371.06,246.445,369.924,246.442,368.781,246.556z"/>
	<path d="M226.066,112.068c-0.331,1.187,0.12,2.13,0.917,2.97c1.269,1.337,2.603,2.603,4.062,3.734
		c0.535,0.414,1.06,0.841,1.645,1.306c-0.582,0.724-1.319,1.081-2.017,1.462c-1.556,0.847-3.112,1.701-4.715,2.452
		c-2.166,1.017-3.163,2.677-3.095,5.044c0.031,1.09-0.019,2.182-0.02,3.273c-0.013,18.484-0.023,36.967-0.035,55.451
		c-0.001,0.803,0.081,1.616-0.351,2.618c11.453,2.667,22.79,2.647,34.126-0.245c-10.658,0.458-21.318,1.148-32.063-0.385
		c0-5.396-0.004-10.817,0.001-16.238c0.012-14.118,0.035-28.235,0.039-42.353c0.001-4.595,0.238-4.371,3.756-6.3
		c3.53-1.935,7.223-3.525,10.754-5.448c2.696-1.469,5.305-3.077,7.954-4.619c1.669-0.971,3.057-2.281,4.325-3.717
		c0.973-1.102,0.966-1.173,0.784-2.722c2.077,2.222,2.092,4.164,0.009,6.32c-0.662,0.685-1.384,1.314-2.099,1.947
		c-0.66,0.585-1.347,1.14-2.095,1.77c2.723-0.397,5.606-3.243,6.471-5.865c3.108,1.676,6.479,2.719,9.636,4.263
		c3.059,1.496,6.161,2.906,9.215,4.413c2.473,1.221,4.125,3.308,5.545,5.587c2.463,3.955,4.256,8.224,5.853,12.585
		c1.268,3.463,2.211,7.008,2.988,10.613c1.008,4.673,2.34,9.242,4.835,13.399c1.331,2.218,1.015,4.623,0.266,6.938
		c-0.349,1.079-0.542,2.089-0.262,3.185c0.065,0.255,0.165,0.57,0.075,0.785c-0.898,2.157-0.892,4.536-1.702,6.722
		c-0.509,1.373-1.073,2.649-2.297,3.526c-1.213,0.869-1.782,1.997-1.54,3.52c0.211,1.328-0.111,2.575-0.769,3.736
		c-2.249,3.965-4.501,7.929-6.729,11.854c-1.045,0.279-1.623-0.789-2.671-0.694c-0.893,0.644-1.26,1.79-1.983,2.719
		c0.307,2.861,1.202,5.591,1.696,8.401c1.299,7.392,2.173,14.834,2.733,22.314c0.443,5.914,0.869,11.829,1.272,17.745
		c0.403,5.918,0.783,11.838,1.145,17.759c0.441,7.214,0.844,14.43,1.281,21.644c0.194,3.192,0.434,6.381,0.667,9.779
		c-4.881,2.59-10.32,2.722-15.612,3.696c-0.573,1.434-1.178,6.007-0.92,8.111c0.255,2.076,0.241,4.094-0.757,5.984
		c-0.562,1.064,0.141,1.969,0.272,2.835c-0.169,0.967-1.036,1.38-1.339,2.291c0.706,0.613,0.798,1.52,1.038,2.428
		c0.534,2.019,1.596,3.749,3.718,4.575c1.338,0.521,2.707,0.919,4.095,1.272c4.179,1.064,5.481,3.046,4.924,7.62
		c-3.904,1.956-8.148,2.205-12.467,2.049c-4.39-0.159-8.076-2.213-11.434-4.366c-4.122,0.829-7.92,1.152-11.645,0.021
		c-0.394-1.083-0.212-2.048-0.277-2.993c-0.091-1.33,0.09-2.641-0.577-3.962c-0.629-1.245-0.113-6.155,0.482-7.51
		c-2.42-3.64-1.936-7.258,0.565-10.746c-1.129-2.095-1.271-4.366-1.761-6.776c-1.704-0.189-3.437-0.115-5.281-0.033
		c-0.415,2.317-0.707,4.559-1.913,6.529c2.573,3.599,2.536,7.183,0.275,10.771c0.697,2.376,0.734,4.852,0.235,7.106
		c-0.534,2.411-0.479,4.812-0.699,7.142c-2.497,1.67-8.845,1.656-11.248-0.017c-1.281,0.32-2.45,1.057-3.577,1.766
		c-2.54,1.596-5.275,2.505-8.23,2.861c-4.452,0.536-8.842,0.355-13.141-1.032c-0.587-0.189-1.164-0.391-1.605-0.896
		c-0.295-0.703-0.166-1.463-0.104-2.199c0.28-3.329,1.549-4.747,4.836-5.335c1.479-0.264,2.948-0.498,4.344-1.1
		c2.818-1.214,4.789-3.088,5.08-6.173c0.301-0.734,1.065-0.805,1.424-1.512c-0.38-0.638-1.497-0.624-1.677-1.58
		c-0.008-0.535,0.399-0.942,0.688-1.391c0.566-0.881,0.68-1.768,0.145-2.695c-0.497-0.863-0.537-1.809-0.564-2.771
		c-0.083-2.862,0.05-5.731-0.27-8.585c-0.052-0.467-0.129-0.931-0.213-1.533c-2.315-0.262-4.591-0.6-6.855-1.02
		c-2.692-0.5-5.321-1.188-7.841-2.255c-1.857-0.786-1.999-1.119-1.74-3.122c0.673-5.207,1.014-10.446,1.294-15.682
		c0.328-6.132,1.042-12.225,1.58-18.336c0.501-5.703,0.893-11.417,1.439-17.116c0.688-7.188,1.165-14.396,2.277-21.544
		c0.607-3.905,1.289-7.796,1.921-11.696c0.426-2.629,1.142-5.187,1.874-7.742c0.169-0.588,0.26-1.205,0.483-1.771
		c0.578-1.469-0.009-2.508-1.146-3.374c-0.321-0.244-0.598-0.57-1.213-0.608c-0.544-0.043-0.765,0.769-1.435,0.904
		c-0.136-0.069-0.343-0.124-0.479-0.253c-0.856-0.809-1.405-1.836-1.959-2.853c-1.273-2.335-2.611-4.628-4.026-6.882
		c-1.476-2.351-2.397-4.891-2.002-7.562c-0.161-0.298-0.195-0.456-0.292-0.53c-2.568-1.95-3.627-4.676-4.059-7.751
		c-0.122-0.872-0.264-1.767-0.705-2.55c-0.466-0.828-0.529-1.66-0.275-2.561c0.27-0.955,0.094-1.856-0.277-2.784
		c-0.879-2.194-0.911-4.428,0.282-6.512c2.75-4.803,4.101-10.051,5.263-15.403c1.841-8.478,5.216-16.329,10.157-23.484
		c0.99-1.434,2.247-2.595,3.843-3.283c3.758-1.62,7.332-3.611,11.025-5.359c1.967-0.931,4.012-1.698,6.034-2.51
		c0.891-0.358,1.763-0.729,2.486-1.379L226.066,112.068z M270.127,189.911c0.875-0.121,1.147-0.897,1.529-1.5
		c1.459-2.3,1.645-4.858,1.414-7.486c-0.077-0.882-0.146-1.765-0.265-2.641c-0.16-1.176,0.197-2.093,1.098-2.896
		c1.008-0.898,1.915-1.91,2.585-3.23c-0.823-1.037-2.234-1.433-2.741-2.703c-0.497-1.242-1.026-2.47-1.628-3.913
		c-0.684,1.962-0.572,3.838-1.163,5.591c-1.879,5.577-2.412,11.297-1.519,17.132C269.527,188.861,269.533,189.5,270.127,189.911z
		 M203.033,172.053c0.598,1.264,1.32,1.919,2.043,2.511c1.542,1.265,1.948,2.831,1.669,4.736c-0.197,1.344-0.261,2.714-0.298,4.074
		c-0.058,2.128,0.728,3.996,1.937,5.705c0.277,0.392,0.592,0.756,1.201,0.595c0.08-0.16,0.199-0.33,0.253-0.518
		c0.113-0.393,0.23-0.791,0.277-1.195c0.538-4.631,0.674-9.24-0.604-13.799c-0.66-2.356-1.395-4.702-1.558-7.173
		c-0.021-0.32,0.069-0.837-0.64-0.903C206.725,168.623,205.37,170.672,203.033,172.053z M254.93,194.16
		c-10.543,0.968-21.045,1.265-31.53-0.264C233.888,196.598,244.41,196.734,254.93,194.16z M233.21,87.162
		c-1.965,0.248-3.857,0.768-5.699,1.572c-0.439-0.817-0.08-1.281,0.597-1.671c1.312-0.754,2.723-1.293,4.195-1.523
		c5.691-0.89,11.365-1.041,16.936,0.779c0.641,0.21,1.275,0.477,1.862,0.808c0.647,0.365,1.298,0.79,1.193,1.708
		c0.97-0.937,0.547-2.172,0.682-3.28c0.154-1.263-0.06-2.609,0.916-3.646c0.908-0.167,1.808-0.232,2.64-0.503
		c3.253-1.057,6.054-2.773,6.831-6.362c0.755-3.487-0.174-6.599-2.912-9.07c-2.337-2.11-5.165-3.04-8.198-3.238
		c-2.041-0.133-3.806-0.679-5.54-1.762c-4.556-2.847-9.341-2.971-13.961-0.312c-2.403,1.384-4.804,2.115-7.522,1.98
		c-0.135-0.007-0.273,0.007-0.408,0.02c-3.425,0.34-6.294,1.725-8.281,4.604c-1.398,2.026-2.229,4.363-3.339,6.548
		c-0.176,0.346-0.196,0.796-0.204,1.199c-0.051,2.649,0.957,4.775,3.214,6.224c2.433,1.562,5.08,1.82,7.859,1.197
		c0.703-0.158,1.389-0.489,2.411-0.361c0.13,3.313,0.259,6.601,0.768,9.799c-0.56,0.497-1.315,0.003-1.811,0.587
		c-0.785,1.438-0.247,2.865,0.225,4.289c0.235,0.709,0.693,1.401,0.717,2.112c0.05,1.47,0.57,2.615,1.663,3.339
		c0.295,2.236,1.094,4.214,1.073,6.348c-0.008,0.74,0.552,1.385,1.096,1.916c0.731,0.713,1.455,1.445,2.257,2.074
		c1.98,1.554,4.022,3.032,5.379,5.235c2.252-0.831,4.19-1.969,6.106-3.13c1.802-1.091,3.709-2.047,5.183-3.613
		c0.958-1.017,1.75-2.066,1.422-3.629c-0.12-0.572-0.076-1.294,0.178-1.806c0.562-1.136,0.618-2.341,0.723-3.64
		c1.09-0.484,1.605-1.366,1.598-2.561c-0.003-0.563,0.239-1.053,0.495-1.541c0.514-0.982,0.745-2.041,0.804-3.143
		c0.108-1.997-0.03-2.212-2.061-3.004c0.387-0.946,0.562-1.935,0.037-2.904C246.074,86.897,239.701,86.343,233.21,87.162z
		 M226.066,112.068c1.875,3.331,4.544,5.822,7.822,7.615c0.948-0.41,1.793-0.656,2.468-1.389c-0.811-1.129-1.87-1.871-2.832-2.71
		c-2.284-1.99-4.921-3.634-6.28-6.673c-0.665,1.138-1.132,2.106-1.11,3.242L226.066,112.068z"/>
</g>
</svg>
