<?xml version="1.0" encoding="utf-8"?>
<!-- Generator: Adobe Illustrator 27.5.0, SVG Export Plug-In . SVG Version: 6.00 Build 0)  -->
<svg version="1.1" id="Layer_1" xmlns="http://www.w3.org/2000/svg" xmlns:xlink="http://www.w3.org/1999/xlink" x="0px" y="0px"
	 viewBox="0 0 800 800" style="enable-background:new 0 0 800 800;" xml:space="preserve">
<radialGradient id="SVGID_1_" cx="414.9992" cy="387.9984" r="680.3846" gradientUnits="userSpaceOnUse">
	<stop  offset="0.1458" style="stop-color:#3E3320"/>
	<stop  offset="0.2796" style="stop-color:#38332A"/>
	<stop  offset="0.4488" style="stop-color:#333333"/>
	<stop  offset="1" style="stop-color:#000000"/>
</radialGradient>
<rect style="fill:url(#SVGID_1_);" width="800" height="800"/>
<g>
	<g>
		<path style="fill:#DDCFB5;" d="M398.911,772.345h0.648v-0.817c0-0.854,0.107-1.528,0.322-2.032
			c0.214-0.502,0.584-0.867,1.098-1.096c0.515-0.229,1.221-0.342,2.117-0.342c1.593,0,2.383,0.385,2.383,1.168
			c0,0.25-0.083,0.467-0.25,0.646c-0.164,0.179-0.361,0.268-0.586,0.268c-0.104,0-0.292-0.018-0.552-0.061
			c-0.252-0.036-0.477-0.06-0.657-0.06c-0.49,0-0.805,0.147-0.947,0.435c-0.136,0.288-0.205,0.702-0.205,1.242v0.648h0.662
			c1.04,0,1.557,0.312,1.557,0.939c0,0.44-0.136,0.724-0.414,0.846c-0.273,0.119-0.654,0.178-1.143,0.178h-0.662v7.211
			c0,0.535-0.127,0.944-0.388,1.225c-0.254,0.285-0.583,0.426-0.99,0.426c-0.384,0-0.705-0.141-0.963-0.426
			c-0.256-0.281-0.382-0.69-0.382-1.225v-7.211h-0.749c-0.407,0-0.718-0.088-0.938-0.273c-0.219-0.181-0.329-0.419-0.329-0.712
			C397.544,772.668,397.999,772.345,398.911,772.345z"/>
		<path style="fill:#DDCFB5;" d="M407.817,779.242v2.276c0,0.55-0.136,0.964-0.394,1.237c-0.257,0.278-0.585,0.414-0.982,0.414
			c-0.397,0-0.722-0.138-0.969-0.421c-0.253-0.276-0.381-0.689-0.381-1.23v-7.58c0-1.223,0.44-1.835,1.323-1.835
			c0.457,0,0.78,0.144,0.98,0.429c0.2,0.288,0.31,0.707,0.331,1.269c0.324-0.561,0.657-0.98,0.997-1.269
			c0.346-0.285,0.8-0.429,1.371-0.429c0.576,0,1.129,0.144,1.667,0.429c0.537,0.288,0.809,0.666,0.809,1.138
			c0,0.331-0.116,0.609-0.345,0.821c-0.232,0.219-0.474,0.326-0.74,0.326c-0.104,0-0.346-0.064-0.724-0.188
			c-0.386-0.119-0.724-0.182-1.015-0.182c-0.398,0-0.724,0.108-0.976,0.313c-0.252,0.214-0.45,0.521-0.59,0.93
			c-0.139,0.415-0.233,0.907-0.286,1.474C407.841,777.733,407.817,778.426,407.817,779.242z"/>
		<path style="fill:#DDCFB5;" d="M420.326,778.307h-5.323c0.008,0.617,0.129,1.164,0.374,1.636c0.243,0.469,0.564,0.823,0.967,1.066
			c0.404,0.238,0.848,0.357,1.33,0.357c0.329,0,0.624-0.036,0.893-0.117c0.27-0.074,0.531-0.195,0.783-0.357
			c0.253-0.161,0.483-0.335,0.697-0.523c0.212-0.186,0.488-0.438,0.829-0.757c0.141-0.119,0.338-0.181,0.598-0.181
			c0.278,0,0.504,0.076,0.678,0.23c0.174,0.155,0.26,0.369,0.26,0.648c0,0.248-0.096,0.533-0.286,0.862
			c-0.194,0.333-0.485,0.645-0.876,0.949c-0.39,0.3-0.878,0.555-1.466,0.75c-0.588,0.2-1.264,0.3-2.028,0.3
			c-1.749,0-3.107-0.495-4.075-1.492c-0.971-1-1.459-2.352-1.459-4.059c0-0.805,0.121-1.552,0.361-2.24
			c0.238-0.69,0.589-1.275,1.048-1.771c0.459-0.493,1.022-0.869,1.692-1.131c0.671-0.262,1.414-0.392,2.232-0.392
			c1.064,0,1.977,0.224,2.735,0.676c0.762,0.445,1.336,1.025,1.712,1.737c0.378,0.715,0.568,1.436,0.568,2.176
			c0,0.681-0.197,1.124-0.59,1.328C421.59,778.204,421.037,778.307,420.326,778.307z M415.003,776.76h4.935
			c-0.066-0.929-0.316-1.626-0.752-2.085c-0.435-0.465-1.007-0.693-1.721-0.693c-0.676,0-1.235,0.232-1.669,0.703
			C415.36,775.153,415.096,775.843,415.003,776.76z"/>
		<path style="fill:#DDCFB5;" d="M431.645,778.307h-5.322c0.005,0.617,0.131,1.164,0.373,1.636c0.241,0.469,0.565,0.823,0.965,1.066
			c0.402,0.238,0.847,0.357,1.333,0.357c0.323,0,0.623-0.036,0.888-0.117c0.273-0.074,0.53-0.195,0.788-0.357
			c0.252-0.161,0.483-0.335,0.697-0.523c0.209-0.186,0.485-0.438,0.826-0.757c0.14-0.119,0.34-0.181,0.597-0.181
			c0.281,0,0.508,0.076,0.682,0.23c0.171,0.155,0.254,0.369,0.254,0.648c0,0.248-0.093,0.533-0.29,0.862
			c-0.186,0.333-0.476,0.645-0.871,0.949c-0.386,0.3-0.879,0.555-1.464,0.75c-0.586,0.2-1.264,0.3-2.03,0.3
			c-1.745,0-3.104-0.495-4.075-1.492c-0.972-1-1.457-2.352-1.457-4.059c0-0.805,0.121-1.552,0.361-2.24
			c0.241-0.69,0.588-1.275,1.045-1.771c0.46-0.493,1.024-0.869,1.695-1.131c0.671-0.262,1.416-0.392,2.232-0.392
			c1.061,0,1.974,0.224,2.742,0.676c0.757,0.445,1.328,1.025,1.705,1.737c0.376,0.715,0.568,1.436,0.568,2.176
			c0,0.681-0.197,1.124-0.588,1.328C432.906,778.204,432.353,778.307,431.645,778.307z M426.322,776.76h4.934
			c-0.067-0.929-0.321-1.626-0.753-2.085c-0.438-0.465-1.009-0.693-1.723-0.693c-0.677,0-1.233,0.232-1.669,0.703
			C426.677,775.153,426.412,775.843,426.322,776.76z"/>
		<path style="fill:#DDCFB5;" d="M437.605,773.634v0.326c0.509-0.631,1.045-1.095,1.6-1.39c0.545-0.298,1.173-0.447,1.87-0.447
			c0.836,0,1.609,0.219,2.314,0.65c0.704,0.434,1.259,1.064,1.668,1.894c0.41,0.834,0.617,1.814,0.617,2.952
			c0,0.835-0.119,1.607-0.355,2.309c-0.235,0.702-0.561,1.288-0.971,1.765c-0.414,0.471-0.902,0.84-1.462,1.097
			c-0.566,0.253-1.166,0.381-1.811,0.381c-0.775,0-1.431-0.157-1.959-0.469c-0.528-0.308-1.03-0.771-1.511-1.371v4.085
			c0,1.192-0.439,1.795-1.305,1.795c-0.515,0-0.85-0.155-1.02-0.462c-0.161-0.314-0.247-0.76-0.247-1.354v-11.745
			c0-0.518,0.112-0.902,0.336-1.161c0.229-0.253,0.54-0.384,0.931-0.384c0.386,0,0.699,0.131,0.94,0.394
			C437.486,772.761,437.605,773.137,437.605,773.634z M442.939,777.588c0-0.719-0.109-1.335-0.328-1.85
			c-0.22-0.517-0.524-0.909-0.91-1.183c-0.388-0.276-0.82-0.417-1.295-0.417c-0.747,0-1.383,0.298-1.896,0.886
			c-0.517,0.596-0.773,1.464-0.773,2.613c0,1.081,0.254,1.926,0.769,2.528c0.512,0.6,1.143,0.899,1.901,0.899
			c0.453,0,0.874-0.131,1.257-0.39c0.389-0.265,0.698-0.657,0.929-1.184C442.825,778.966,442.939,778.331,442.939,777.588z"/>
		<path style="fill:#DDCFB5;" d="M448.414,770.837c-0.381,0-0.702-0.118-0.971-0.35c-0.27-0.235-0.407-0.56-0.407-0.982
			c0-0.386,0.141-0.705,0.416-0.955c0.276-0.248,0.596-0.374,0.962-0.374c0.354,0,0.664,0.112,0.938,0.336
			c0.271,0.228,0.409,0.56,0.409,0.993c0,0.418-0.134,0.744-0.4,0.981C449.095,770.719,448.781,770.837,448.414,770.837z
			 M449.762,773.648v7.87c0,0.542-0.131,0.954-0.391,1.23c-0.26,0.283-0.588,0.421-0.988,0.421c-0.399,0-0.719-0.141-0.971-0.426
			c-0.248-0.29-0.376-0.697-0.376-1.225v-7.791c0-0.538,0.128-0.943,0.376-1.212c0.252-0.278,0.571-0.412,0.971-0.412
			c0.4,0,0.729,0.134,0.988,0.412C449.631,772.784,449.762,773.168,449.762,773.648z"/>
		<path style="fill:#DDCFB5;" d="M458.533,781.928l-2.399-3.952l-1.476,1.396v2.166c0,0.523-0.141,0.926-0.417,1.207
			c-0.271,0.285-0.593,0.426-0.952,0.426c-0.419,0-0.747-0.138-0.985-0.421c-0.24-0.276-0.361-0.689-0.361-1.23v-11.609
			c0-0.6,0.118-1.061,0.35-1.379c0.233-0.318,0.568-0.473,0.997-0.473c0.422,0,0.75,0.143,0.995,0.431
			c0.25,0.283,0.374,0.707,0.374,1.261v6.603l3.059-3.213c0.381-0.396,0.666-0.672,0.869-0.816c0.197-0.146,0.441-0.22,0.724-0.22
			c0.343,0,0.623,0.109,0.854,0.324c0.221,0.216,0.335,0.487,0.335,0.812c0,0.397-0.368,0.934-1.106,1.598l-1.445,1.323l2.793,4.39
			c0.202,0.328,0.352,0.57,0.442,0.74c0.091,0.169,0.136,0.335,0.136,0.485c0,0.433-0.119,0.771-0.354,1.023
			c-0.236,0.247-0.55,0.371-0.931,0.371c-0.334,0-0.591-0.085-0.772-0.268C459.083,782.72,458.838,782.394,458.533,781.928z"/>
		<path style="fill:#DDCFB5;" d="M464.446,783.17c-0.412,0-0.767-0.133-1.066-0.399c-0.296-0.262-0.45-0.636-0.45-1.117
			c0-0.404,0.147-0.754,0.431-1.045c0.288-0.292,0.641-0.438,1.06-0.438c0.416,0,0.771,0.146,1.071,0.431
			c0.293,0.29,0.445,0.642,0.445,1.052c0,0.475-0.152,0.848-0.445,1.112C465.191,783.037,464.844,783.17,464.446,783.17z"/>
		<path style="fill:#DDCFB5;" d="M477.978,779.802c0,0.336-0.102,0.7-0.305,1.086c-0.202,0.385-0.512,0.752-0.929,1.102
			c-0.414,0.348-0.935,0.631-1.57,0.843c-0.631,0.212-1.343,0.321-2.131,0.321c-1.683,0-2.997-0.492-3.942-1.471
			c-0.94-0.981-1.411-2.297-1.411-3.944c0-1.121,0.214-2.104,0.647-2.964c0.429-0.854,1.055-1.518,1.873-1.987
			c0.816-0.469,1.798-0.702,2.928-0.702c0.707,0,1.354,0.102,1.945,0.309c0.588,0.204,1.083,0.474,1.495,0.795
			c0.404,0.331,0.719,0.676,0.933,1.042c0.219,0.369,0.326,0.715,0.326,1.036c0,0.323-0.121,0.6-0.364,0.823
			c-0.242,0.228-0.538,0.343-0.881,0.343c-0.228,0-0.416-0.06-0.563-0.174c-0.152-0.119-0.319-0.305-0.503-0.569
			c-0.333-0.502-0.681-0.883-1.045-1.133c-0.361-0.254-0.821-0.381-1.38-0.381c-0.801,0-1.45,0.314-1.943,0.943
			c-0.492,0.626-0.737,1.49-0.737,2.575c0,0.512,0.064,0.985,0.19,1.414c0.124,0.426,0.305,0.792,0.547,1.095
			c0.241,0.303,0.526,0.531,0.864,0.688c0.343,0.16,0.715,0.236,1.116,0.236c0.551,0,1.015-0.126,1.402-0.379
			c0.396-0.252,0.738-0.638,1.035-1.156c0.167-0.305,0.346-0.543,0.536-0.717c0.192-0.172,0.431-0.262,0.709-0.262
			c0.334,0,0.609,0.129,0.826,0.381C477.869,779.245,477.978,779.519,477.978,779.802z"/>
		<path style="fill:#DDCFB5;" d="M489.724,777.638c0,0.81-0.129,1.56-0.377,2.245c-0.257,0.686-0.621,1.273-1.102,1.762
			c-0.474,0.492-1.05,0.868-1.712,1.133c-0.669,0.26-1.414,0.393-2.244,0.393c-0.824,0-1.565-0.133-2.224-0.399
			c-0.654-0.262-1.23-0.646-1.707-1.136c-0.482-0.5-0.85-1.085-1.102-1.759c-0.243-0.676-0.371-1.422-0.371-2.238
			c0-0.823,0.131-1.578,0.378-2.264c0.253-0.686,0.617-1.271,1.091-1.754c0.471-0.485,1.042-0.859,1.711-1.123
			c0.674-0.263,1.414-0.394,2.224-0.394c0.826,0,1.573,0.131,2.244,0.4c0.669,0.264,1.243,0.644,1.724,1.133
			c0.48,0.495,0.845,1.081,1.093,1.755C489.597,776.074,489.724,776.819,489.724,777.638z M486.99,777.638
			c0-1.109-0.245-1.971-0.732-2.592c-0.486-0.621-1.143-0.929-1.969-0.929c-0.533,0-1,0.139-1.407,0.415
			c-0.404,0.273-0.714,0.681-0.935,1.221c-0.219,0.538-0.331,1.166-0.331,1.885c0,0.715,0.108,1.331,0.324,1.861
			c0.219,0.536,0.526,0.943,0.931,1.225c0.404,0.28,0.876,0.423,1.419,0.423c0.826,0,1.482-0.311,1.969-0.933
			C486.745,779.593,486.99,778.733,486.99,777.638z"/>
		<path style="fill:#DDCFB5;" d="M500.102,777.841v3.615c0,0.574-0.126,0.998-0.391,1.288c-0.259,0.285-0.6,0.426-1.025,0.426
			c-0.41,0-0.748-0.141-0.998-0.426c-0.257-0.29-0.39-0.714-0.39-1.288v-4.334c0-0.686-0.021-1.219-0.064-1.6
			c-0.05-0.374-0.177-0.689-0.381-0.929c-0.205-0.245-0.533-0.366-0.978-0.366c-0.891,0-1.474,0.305-1.759,0.921
			c-0.281,0.607-0.424,1.485-0.424,2.633v3.675c0,0.564-0.129,0.993-0.384,1.283c-0.257,0.288-0.595,0.431-1.011,0.431
			c-0.415,0-0.75-0.143-1.015-0.431c-0.262-0.29-0.396-0.719-0.396-1.283v-7.786c0-0.512,0.119-0.902,0.355-1.166
			c0.237-0.27,0.55-0.4,0.933-0.4c0.374,0,0.684,0.129,0.934,0.374c0.25,0.25,0.373,0.593,0.373,1.033v0.257
			c0.477-0.561,0.979-0.978,1.517-1.24c0.54-0.271,1.136-0.404,1.795-0.404c0.684,0,1.273,0.138,1.764,0.409
			c0.493,0.273,0.896,0.686,1.217,1.235c0.459-0.555,0.952-0.969,1.476-1.24c0.528-0.268,1.107-0.404,1.745-0.404
			c0.745,0,1.388,0.15,1.926,0.44c0.537,0.293,0.938,0.714,1.201,1.254c0.236,0.495,0.351,1.27,0.351,2.326v5.313
			c0,0.574-0.131,0.998-0.386,1.288c-0.26,0.285-0.602,0.426-1.028,0.426c-0.412,0-0.75-0.143-1.012-0.431
			c-0.265-0.29-0.393-0.719-0.393-1.283v-4.577c0-0.586-0.026-1.052-0.076-1.404c-0.048-0.353-0.185-0.65-0.402-0.888
			c-0.222-0.238-0.555-0.359-1-0.359c-0.356,0-0.697,0.109-1.021,0.32c-0.321,0.21-0.571,0.498-0.754,0.855
			C500.204,775.86,500.102,776.674,500.102,777.841z"/>
		<g>
			<path style="fill-rule:evenodd;clip-rule:evenodd;fill:#DDCFB5;" d="M380.065,784.122c0,0-1.488-0.235-2.935-1.82
				c-1.461-1.6-1.706-3.293-1.706-3.293s1.852,0.435,3.182,0.584c2.345,0.264,4.454,0.116,5.448,0.009
				c2.156-0.237,3.302-0.636,3.766-0.749c2.751-0.66,5.398-2.442,5.398-2.442s0.334,2.068-1.221,4.36
				c-0.605,0.898-1.813,1.926-3.204,2.635C384.03,785.437,380.065,784.122,380.065,784.122z"/>
			<path style="fill-rule:evenodd;clip-rule:evenodd;fill:#DDCFB5;" d="M391.317,772.373c-0.514-0.619-2.217-3.542-5.667-3.964
				c-0.883-0.107-5.547,0.074-8.346,2.666c-0.278,0.26-1.7,1.51-2.171,3.833c-0.367,1.794,0.234,3.817,0.234,3.817
				s3.104,0.646,5.443,0.586c3.709-0.093,5.575-0.422,7.513-1.007c2.857-0.866,4.877-2.313,4.877-2.313
				S391.831,772.996,391.317,772.373z M380.614,776.819c-1.569,0.103-2.918-1.081-3.016-2.642c-0.098-1.557,1.096-2.906,2.665-3.001
				c1.568-0.107,2.92,1.08,3.015,2.637C383.378,775.374,382.183,776.722,380.614,776.819z M388.625,774.806
				c-0.987,0.059-1.837-0.684-1.898-1.666c-0.062-0.979,0.691-1.826,1.677-1.891c0.986-0.064,1.839,0.686,1.898,1.664
				C390.365,773.894,389.611,774.743,388.625,774.806z"/>
			<path style="fill-rule:evenodd;clip-rule:evenodd;fill:#DDCFB5;" d="M389.974,770.352l0.901-1.08c0,0,1.246,0.611,2.046,1.764
				c0.797,1.149,1.315,2.202,1.315,2.202l-1.487,0.904c0,0-0.461-1.109-1.153-2C390.908,771.254,389.974,770.352,389.974,770.352z"
				/>
			<path style="fill-rule:evenodd;clip-rule:evenodd;fill:#DDCFB5;" d="M392.804,771.104c0.232-0.141,0.626-0.162,0.602-0.493
				c-0.018-0.326-0.239-0.976,0.409-1.197c0.654-0.219,0.286,0.192,0.061,0.478c-0.224,0.285-0.151,0.462-0.125,0.883
				c0.026,0.414-0.268,0.555-0.71,0.76C392.602,771.747,392.571,771.242,392.804,771.104z"/>
			<path style="fill-rule:evenodd;clip-rule:evenodd;fill:#DDCFB5;" d="M376.272,771.769c0,0-1.044,1.211-1.308,2.307
				c-0.264,1.1-0.211,2.423-0.211,2.423l-1.546-0.533c0,0-0.088-1.518,0.614-2.747c0.783-1.361,1.783-1.974,1.783-1.974
				L376.272,771.769z"/>
			<path style="fill-rule:evenodd;clip-rule:evenodd;fill:#DDCFB5;" d="M373.999,773.146c-0.251-0.164-0.275-0.555-0.473-0.81
				c-0.2-0.262-0.249-0.104-0.702-0.104c-0.455-0.003-0.466-0.214-0.595-0.324c-0.129-0.114-0.189,0.341-0.189,0.341
				s0.083,0.386,0.57,0.414c0.483,0.031,0.47-0.207,0.679,0.229c0.208,0.438,0.622,0.771,0.622,0.771
				S374.254,773.31,373.999,773.146z"/>
			<path style="fill-rule:evenodd;clip-rule:evenodd;fill:#DDCFB5;" d="M382.198,767.394c2.535-0.636,4.121,0.097,4.121,0.097
				l-0.136,0.729c0,0-1.853-0.124-3.321,0.096c-1.469,0.209-2.135,0.673-2.135,0.673l-0.319-0.727
				C380.408,768.26,381.102,767.667,382.198,767.394z"/>
			<path style="fill-rule:evenodd;clip-rule:evenodd;fill:#DDCFB5;" d="M382.959,766.351l0.354-0.129l0.471,1.264l-0.354,0.131
				L382.959,766.351z"/>
			<path style="fill-rule:evenodd;clip-rule:evenodd;fill:#DDCFB5;" d="M394.12,768.7c0.358-0.021,0.665,0.25,0.688,0.609
				c0.023,0.355-0.249,0.659-0.608,0.683c-0.357,0.024-0.664-0.25-0.686-0.604C393.492,769.03,393.762,768.729,394.12,768.7z"/>
			<path style="fill-rule:evenodd;clip-rule:evenodd;fill:#DDCFB5;" d="M371.865,771.149c0.357-0.021,0.665,0.247,0.687,0.604
				c0.021,0.354-0.249,0.657-0.608,0.683c-0.357,0.024-0.664-0.247-0.688-0.602C371.234,771.477,371.508,771.176,371.865,771.149z"
				/>
			<path style="fill-rule:evenodd;clip-rule:evenodd;fill:#DDCFB5;" d="M383.267,764.739c0.57-0.036,1.061,0.39,1.096,0.959
				c0.036,0.565-0.399,1.052-0.969,1.09c-0.57,0.038-1.058-0.391-1.095-0.961C382.264,765.263,382.697,764.773,383.267,764.739z"/>
		</g>
	</g>
	<g>
		<path style="fill:#DDCFB5;" d="M302.306,781.673c0,0.636-0.398,1.057-0.954,1.057c-0.525,0-0.831-0.288-0.949-0.795
			c-0.358,0.583-1.095,0.871-1.743,0.871c-1.917,0-3.131-1.777-3.131-3.575c0-1.855,1.018-3.766,3.065-3.766
			c0.659,0,1.307,0.226,1.809,0.662v-2.593c0-0.631,0.394-1.052,0.949-1.052c0.556,0,0.954,0.421,0.954,1.052V781.673z
			 M298.91,777.21c-0.99,0-1.479,1.04-1.479,1.939c0,0.886,0.489,1.916,1.479,1.916c1.042,0,1.493-1.057,1.493-1.982
			S299.927,777.21,298.91,777.21z"/>
		<path style="fill:#DDCFB5;" d="M304.917,779.769c0.136,0.938,0.912,1.376,1.8,1.376c0.976,0,1.649-0.767,2.152-0.767
			c0.409,0,0.777,0.409,0.777,0.821c0,0.819-1.688,1.607-3.102,1.607c-2.141,0-3.567-1.557-3.567-3.656
			c0-1.928,1.401-3.685,3.408-3.685c2.059,0,3.422,1.876,3.422,3.461c0,0.566-0.252,0.843-0.832,0.843H304.917z M307.904,778.502
			c-0.105-0.833-0.633-1.449-1.52-1.449c-0.845,0-1.414,0.643-1.504,1.449H307.904z"/>
		<path style="fill:#DDCFB5;" d="M314.481,777.684c-0.357,0-1.083-0.555-1.704-0.555c-0.343,0-0.649,0.159-0.649,0.528
			c0,0.886,3.303,0.755,3.303,2.921c0,1.267-1.069,2.228-2.708,2.228c-1.07,0-2.654-0.605-2.654-1.461
			c0-0.293,0.291-0.846,0.819-0.846c0.739,0,1.07,0.645,1.967,0.645c0.581,0,0.753-0.185,0.753-0.543
			c0-0.871-3.301-0.737-3.301-2.918c0-1.319,1.07-2.219,2.574-2.219c0.938,0,2.378,0.439,2.378,1.376
			C315.26,777.274,314.929,777.684,314.481,777.684z"/>
		<path style="fill:#DDCFB5;" d="M318.1,773.734c0,0.598-0.475,1.098-1.071,1.098c-0.567,0-1.068-0.517-1.068-1.098
			c0-0.54,0.501-1.04,1.068-1.04C317.598,772.694,318.1,773.18,318.1,773.734z M316.079,776.602c0-0.636,0.395-1.057,0.95-1.057
			c0.555,0,0.952,0.421,0.952,1.057v5.07c0,0.636-0.397,1.057-0.952,1.057c-0.555,0-0.95-0.421-0.95-1.057V776.602z"/>
		<path style="fill:#DDCFB5;" d="M325.535,782.097c0,2.283-1.493,3.435-3.66,3.435c-0.777,0-2.997-0.386-2.997-1.428
			c0-0.357,0.396-0.833,0.767-0.833c0.608,0,1.282,0.592,2.377,0.592c0.926,0,1.611-0.535,1.611-1.504v-0.447h-0.027
			c-0.394,0.58-1.043,0.895-1.913,0.895c-1.995,0-2.935-1.754-2.935-3.642c0-1.916,1.215-3.699,3.131-3.699
			c0.649,0,1.387,0.29,1.744,0.869c0.119-0.5,0.422-0.788,0.951-0.788c0.555,0,0.951,0.421,0.951,1.057V782.097z M322.139,777.21
			c-0.989,0-1.477,1.03-1.477,1.916c0,1.014,0.488,1.939,1.477,1.939c1.017,0,1.494-0.949,1.494-1.88
			C323.633,778.267,323.182,777.21,322.139,777.21z"/>
		<path style="fill:#DDCFB5;" d="M326.617,776.602c0-0.636,0.395-1.057,0.95-1.057c0.49,0,0.807,0.262,0.873,0.702
			c0.372-0.518,0.938-0.783,1.836-0.783c1.492,0,2.602,0.952,2.602,2.562v3.646c0,0.636-0.394,1.057-0.95,1.057
			c-0.553,0-0.952-0.421-0.952-1.057v-3.317c0-0.883-0.555-1.304-1.241-1.304c-0.779,0-1.214,0.566-1.214,1.304v3.317
			c0,0.636-0.398,1.057-0.953,1.057c-0.555,0-0.95-0.421-0.95-1.057V776.602z"/>
		<path style="fill:#DDCFB5;" d="M335.492,779.769c0.132,0.938,0.912,1.376,1.796,1.376c0.978,0,1.65-0.767,2.151-0.767
			c0.41,0,0.782,0.409,0.782,0.821c0,0.819-1.692,1.607-3.105,1.607c-2.142,0-3.567-1.557-3.567-3.656
			c0-1.928,1.401-3.685,3.409-3.685c2.061,0,3.419,1.876,3.419,3.461c0,0.566-0.25,0.843-0.83,0.843H335.492z M338.477,778.502
			c-0.105-0.833-0.634-1.449-1.519-1.449c-0.846,0-1.415,0.643-1.505,1.449H338.477z"/>
		<path style="fill:#DDCFB5;" d="M347.55,781.673c0,0.636-0.397,1.057-0.952,1.057c-0.527,0-0.831-0.288-0.95-0.795
			c-0.357,0.583-1.096,0.871-1.743,0.871c-1.915,0-3.129-1.777-3.129-3.575c0-1.855,1.017-3.766,3.065-3.766
			c0.658,0,1.306,0.226,1.808,0.662v-2.593c0-0.631,0.396-1.052,0.95-1.052c0.556,0,0.952,0.421,0.952,1.052V781.673z
			 M344.156,777.21c-0.991,0-1.479,1.04-1.479,1.939c0,0.886,0.488,1.916,1.479,1.916c1.042,0,1.491-1.057,1.491-1.982
			S345.173,777.21,344.156,777.21z"/>
		<path style="fill:#DDCFB5;" d="M352.17,773.534c0-0.631,0.398-1.052,0.955-1.052c0.553,0,0.949,0.421,0.949,1.052v2.593
			c0.503-0.437,1.15-0.662,1.809-0.662c2.049,0,3.065,1.911,3.065,3.766c0,1.798-1.214,3.575-3.131,3.575
			c-0.647,0-1.385-0.288-1.742-0.871c-0.118,0.507-0.421,0.795-0.949,0.795c-0.556,0-0.955-0.421-0.955-1.057V773.534z
			 M355.565,781.065c0.99,0,1.479-1.03,1.479-1.916c0-0.899-0.489-1.939-1.479-1.939c-1.017,0-1.492,0.947-1.492,1.873
			S354.524,781.065,355.565,781.065z"/>
		<path style="fill:#DDCFB5;" d="M359.278,776.851c-0.054-0.144-0.094-0.293-0.094-0.486c0-0.479,0.502-0.818,0.897-0.818
			c0.462,0,0.794,0.252,0.953,0.671l1.306,3.583l1.401-3.583c0.157-0.419,0.488-0.671,0.95-0.671c0.399,0,0.899,0.34,0.899,0.818
			c0,0.193-0.027,0.343-0.09,0.486l-3.184,7.926c-0.16,0.395-0.451,0.755-0.898,0.755c-0.647,0-0.992-0.411-0.992-0.818
			c0-0.188,0.054-0.386,0.118-0.558l0.834-2.059L359.278,776.851z"/>
	</g>
</g>
<g id="Capa_1">
</g>
<g id="Capa_1_1_">
</g>
<g id="Capa_1_2_">
</g>
<g id="Capa_1_3_">
</g>
<g id="Capa_1_4_">
</g>
<g>
	<g>
		<path style="fill:#FEA400;" d="M321.208,231.216c2.389,2.622,5.353,4.343,8.368,5.28c3.012,0.929,6.101,1.287,9.101,0.929
			c-5.594-1.89-10.701-5.112-12.848-9.486c-2.233-4.251-1.517-9.25,0.156-14.091c1.737-4.889,4.439-9.667,7.427-14.311
			c3.001-4.645,6.342-9.203,9.853-13.673c3.655-4.761,7.13-9.784,10.122-15.169c2.939-5.42,5.526-11.18,6.768-17.674
			c0.591-3.221,0.872-6.631,0.289-10.105c-0.534-3.442-1.986-6.921-4.335-9.538c-2.352-2.602-5.32-4.339-8.34-5.28
			c-3.024-0.936-6.096-1.259-9.084-0.936c5.573,1.885,10.704,5.13,12.848,9.518c2.231,4.25,1.488,9.217-0.181,14.058
			c-1.737,4.91-4.407,9.688-7.407,14.316c-2.996,4.66-6.345,9.196-9.84,13.685c-3.655,4.777-7.13,9.768-10.122,15.173
			c-2.948,5.4-5.542,11.19-6.76,17.665c-0.611,3.222-0.881,6.664-0.306,10.105C317.477,225.139,318.904,228.59,321.208,231.216z"/>
		<path style="fill:#FEA400;" d="M382.16,202.21c2.365,2.585,5.337,4.343,8.345,5.264c3.048,0.948,6.136,1.266,9.108,0.948
			c-5.587-1.897-10.705-5.146-12.833-9.49c-2.256-4.29-1.524-9.248,0.165-14.107c1.697-4.89,4.415-9.667,7.396-14.295
			c3.024-4.661,6.35-9.218,9.857-13.689c3.675-4.761,7.125-9.767,10.124-15.173c2.922-5.4,5.558-11.191,6.78-17.67
			c0.613-3.22,0.861-6.631,0.273-10.11c-0.536-3.421-1.993-6.916-4.317-9.534c-2.351-2.602-5.334-4.372-8.34-5.296
			c-3.024-0.913-6.134-1.251-9.113-0.913c5.573,1.894,10.704,5.131,12.829,9.502c2.234,4.282,1.51,9.216-0.17,14.091
			c-1.729,4.862-4.408,9.671-7.407,14.3c-2.997,4.661-6.314,9.197-9.816,13.685c-3.671,4.761-7.138,9.783-10.137,15.188
			c-2.917,5.369-5.518,11.16-6.76,17.665c-0.588,3.222-0.857,6.648-0.282,10.09C378.405,196.085,379.839,199.591,382.16,202.21z"/>
		<path style="fill:#FEA400;" d="M444.748,231.216c2.364,2.622,5.316,4.343,8.348,5.28c3.024,0.941,6.114,1.287,9.09,0.929
			c-5.574-1.89-10.69-5.112-12.845-9.486c-2.229-4.251-1.504-9.25,0.169-14.091c1.737-4.889,4.438-9.667,7.416-14.311
			c3.016-4.645,6.337-9.203,9.845-13.673c3.682-4.761,7.142-9.784,10.115-15.169c2.946-5.42,5.582-11.18,6.798-17.674
			c0.603-3.221,0.875-6.631,0.297-10.105c-0.57-3.442-2.011-6.921-4.312-9.538c-2.38-2.602-5.341-4.339-8.371-5.28
			c-3.033-0.936-6.129-1.259-9.112-0.936c5.579,1.885,10.712,5.13,12.82,9.518c2.267,4.25,1.502,9.217-0.162,14.058
			c-1.721,4.91-4.408,9.688-7.4,14.316c-3.016,4.66-6.361,9.196-9.828,13.685c-3.685,4.777-7.166,9.768-10.116,15.173
			c-2.968,5.4-5.566,11.19-6.804,17.665c-0.59,3.222-0.861,6.664-0.268,10.105C440.967,225.139,442.383,228.59,444.748,231.216z"/>
		
			<radialGradient id="SVGID_00000137090570513017557480000009665570680867013791_" cx="406.9773" cy="352.0172" r="283.166" gradientUnits="userSpaceOnUse">
			<stop  offset="0.2611" style="stop-color:#FEA400"/>
			<stop  offset="0.7883" style="stop-color:#BF7B00"/>
		</radialGradient>
		<path style="fill:url(#SVGID_00000137090570513017557480000009665570680867013791_);" d="M597.107,434.76h-24.721
			c0-81.536-59.033-149.251-136.645-162.884c0.162-1.298,0.225-2.635,0.225-3.97c0-16.841-11.676-30.481-26.093-30.481
			c-14.437,0-26.131,13.64-26.131,30.481c0,1.03,0.064,2.044,0.145,3.073c-80.395,11.228-142.311,80.266-142.311,163.781H216.85
			c-8.063,0-14.599,3.268-14.599,7.299v1.326c0,4.032,6.537,7.3,14.599,7.3h380.258c8.063,0,14.597-3.268,14.597-7.3v-1.326
			C611.704,438.028,605.17,434.76,597.107,434.76z"/>
		<g>
			
				<linearGradient id="SVGID_00000052097942805694028160000015717002324081961351_" gradientUnits="userSpaceOnUse" x1="280.3457" y1="513.1973" x2="352.0898" y2="513.1973">
				<stop  offset="0.6294" style="stop-color:#FEA400"/>
				<stop  offset="1" style="stop-color:#BF7B00"/>
			</linearGradient>
			<path style="fill:url(#SVGID_00000052097942805694028160000015717002324081961351_);" d="M280.346,541.756h0.342
				c5.73,0,6.585-3.678,6.585-7.353v-49.768h-6.499v-1.539h21.891l14.194,41.302h0.171l14.452-41.302h20.608v1.539h-6.412v57.12
				h6.412v1.542h-27.106v-1.542h7.354v-55.582h-0.171l-19.925,57.124h-2.308l-20.438-58.15h-0.17v48.486
				c0,6.927,1.794,8.122,6.414,8.122h1.195v1.542h-16.588V541.756z"/>
			
				<linearGradient id="SVGID_00000049192545356029776660000006552302452907509140_" gradientUnits="userSpaceOnUse" x1="356.3579" y1="513.1973" x2="406.5537" y2="513.1973">
				<stop  offset="0.6294" style="stop-color:#FEA400"/>
				<stop  offset="1" style="stop-color:#BF7B00"/>
			</linearGradient>
			<path style="fill:url(#SVGID_00000049192545356029776660000006552302452907509140_);" d="M356.358,541.756h6.926v-57.12h-6.926
				v-1.539h47.8v17.016h-1.539v-1.195c0-7.781-5.728-14.281-15.904-14.281h-10.09v26.166h5.9c5.559,0,8.465-3.164,8.465-11.286
				v-0.944h1.54v27.025h-1.54v-1.968c0-6.071-2.907-11.288-8.465-11.288h-5.9v29.415h12.314c14.024,0,16.078-11.627,16.078-16.503
				v-1.197h1.538v19.242h-50.196V541.756z"/>
			
				<linearGradient id="SVGID_00000090269657005023327270000002561566287886534587_" gradientUnits="userSpaceOnUse" x1="412.877" y1="513.71" x2="471.8799" y2="513.71">
				<stop  offset="0.6294" style="stop-color:#FEA400"/>
				<stop  offset="1" style="stop-color:#BF7B00"/>
			</linearGradient>
			<path style="fill:url(#SVGID_00000090269657005023327270000002561566287886534587_);" d="M412.877,541.756h0.596h0.943
				c2.649,0,5.129-0.938,5.129-6.157v-45.917l-3.762-5.046h-2.65v-1.539h17.615l32.236,41.473h0.171v-35.059
				c0-3.249-2.05-4.875-5.813-4.875h-1.625v-1.539h16.163v1.539h-1.199c-3.847,0-5.472,2.481-5.472,4.617v55.07h-3.593
				l-39.847-51.99h-0.171v43.693c0,4.874,1.883,5.729,6.668,5.729h0.77v1.542h-16.16V541.756z"/>
			
				<linearGradient id="SVGID_00000144298752054605198230000000348998808038166457_" gradientUnits="userSpaceOnUse" x1="474.6064" y1="513.8809" x2="533.6113" y2="513.8809">
				<stop  offset="0.6294" style="stop-color:#FEA400"/>
				<stop  offset="1" style="stop-color:#BF7B00"/>
			</linearGradient>
			<path style="fill:url(#SVGID_00000144298752054605198230000000348998808038166457_);" d="M474.606,483.097h26.936v1.539h-6.925
				v37.623c0,10.946,2.479,19.326,14.965,19.326c8.294,0,15.305-5.641,15.305-17.273v-32.493c0-4.959-1.366-7.183-5.727-7.183h-2.48
				v-1.539h16.933v1.539h-2.226c-3.079,0-4.444,2.224-4.444,7.183v31.984c0,12.567-6.84,20.862-22.576,20.862
				c-13.939,0-23.09-8.039-23.09-21.292v-38.737h-6.669V483.097z"/>
			<path style="fill:#EAEAEA;" d="M328.885,607.462c0,0.224,0,0.393,0.057,0.505l2.063,1.949c0.111,0.112,0.223,0.278,0.223,0.391
				c0,0.167-0.167,0.222-0.335,0.222h-7.638c-0.223,0-0.334-0.055-0.334-0.222c0-0.112,0.056-0.278,0.224-0.391l1.728-1.949
				c0.111-0.112,0.111-0.281,0.111-0.505v-24.527c0-0.334-0.278-0.726-0.501-1.002l-1.672-1.729c-0.334-0.28-0.279-0.668,0-0.668
				h1.728c0.335,0,0.446-0.168,0.446-0.503v-4.684c0-3.846,2.286-5.63,4.906-5.63c2.564,0,4.293,2.619,4.293,4.737
				c0,0.168-0.112,0.336-0.223,0.336c-0.224,0-0.39-0.224-0.558-0.448c-0.891-1.168-2.006-2.228-3.122-2.228
				c-1.003,0-1.393,1.06-1.393,2.34v5.576c0,0.335,0.057,0.503,0.447,0.503h1.672c0.278,0,0.333,0.388,0,0.668l-1.672,1.729
				c-0.223,0.276-0.447,0.668-0.447,1.002V607.462z"/>
			<path style="fill:#EAEAEA;" d="M346.442,593.694c0,13.768-3.01,16.834-6.634,16.834c-3.567,0-6.578-3.066-6.578-16.834
				c0-10.982,3.011-14.158,6.578-14.158C343.433,579.536,346.442,582.712,346.442,593.694z M342.095,593.694
				c0-9.7-0.781-11.762-2.286-11.762c-1.449,0-2.23,2.061-2.23,11.762c0,12.542,0.781,14.44,2.23,14.44
				C341.313,608.134,342.095,606.236,342.095,593.694z"/>
			<path style="fill:#EAEAEA;" d="M362.55,593.694c0,13.768-3.011,16.834-6.633,16.834c-3.568,0-6.579-3.066-6.579-16.834
				c0-10.982,3.01-14.158,6.579-14.158C359.539,579.536,362.55,582.712,362.55,593.694z M358.202,593.694
				c0-9.7-0.781-11.762-2.285-11.762c-1.451,0-2.231,2.061-2.231,11.762c0,12.542,0.78,14.44,2.231,14.44
				C357.421,608.134,358.202,606.236,358.202,593.694z"/>
			<path style="fill:#EAEAEA;" d="M374.308,571.396c0-0.224-0.055-0.333-0.223-0.444l-1.617-1.618
				c-0.167-0.113-0.279-0.279-0.279-0.389c0-0.17,0.168-0.225,0.39-0.225h5.296c0.223,0,0.334,0.11,0.334,0.334v38.408
				c0,0.224,0,0.393,0.056,0.505l1.728,1.949c0.167,0.112,0.278,0.278,0.278,0.391c0,0.167-0.167,0.222-0.391,0.222h-5.184
				c-0.224,0-0.391-0.109-0.391-0.222v-1.894h-0.111c-0.948,1.114-1.951,2.116-3.736,2.116c-2.453,0-5.017-1.393-5.017-17.113
				c0-12.433,2.787-13.879,5.073-13.879c1.617,0,2.731,0.89,3.68,1.951h0.111V571.396z M374.308,586.113
				c0-2.732-1.671-4.181-2.454-4.181c-1.393,0-2.063,1.169-2.063,11.482c0,13.435,0.558,14.719,2.007,14.719
				c1.338,0,2.509-1.729,2.509-4.461V586.113z"/>
			<path style="fill:#EAEAEA;" d="M408.366,589.96c0.222,0,0.334,0.054,0.334,0.278c0,0.111-0.112,0.392-0.334,0.502l-1.785,1.672
				c0,8.307-0.78,11.986-2.787,14.438c0.278,0.56,0.613,1.005,1.226,1.005c1.006,0,2.064-1.171,2.454-1.841
				c0.166-0.279,0.502-0.279,0.502,0.112c0,1.729-1.172,4.402-4.016,4.402c-1.226,0-2.174-0.445-2.897-1.17
				c-0.783,0.558-2.119,1.17-3.903,1.17c-5.575,0-8.808-4.011-8.808-9.81c0-5.241,2.006-8.361,4.348-11.428l1.059-1.396
				l-0.558-2.227c-0.613-2.398-1.282-5.688-1.282-9.368c0-4.347,2.396-7.58,5.686-7.58c2.954,0,4.738,2.397,4.738,6.3
				c0,5.352-2.565,9.477-4.014,11.596l-0.724,1.057l0.501,1.953c1.115,4.403,2.732,10.535,4.07,13.99
				c1.114-1.672,2.119-10.144,0.224-11.704l-1.673-1.227c-0.224-0.166-0.391-0.278-0.391-0.445c0-0.166,0.167-0.278,0.391-0.278
				H408.366z M394.763,591.911c-1.561,1.783-2.452,4.457-2.452,8.028c0,4.904,2.396,7.915,4.85,7.915
				c1.003,0,1.839-0.336,2.34-0.893c-1.505-3.235-3.122-8.642-4.069-12.377L394.763,591.911z M397.216,583.271
				c1.282-1.783,2.397-4.962,2.397-8.027c0-2.007-0.335-3.848-2.063-3.848c-2.621,0-3.011,4.405-1.784,9.143l0.892,3.511
				L397.216,583.271z"/>
			<path style="fill:#EAEAEA;" d="M425.698,571.396c0-0.224-0.057-0.333-0.223-0.444l-1.618-1.618
				c-0.168-0.113-0.278-0.279-0.278-0.389c0-0.17,0.167-0.225,0.392-0.225h5.294c0.223,0,0.335,0.11,0.335,0.334v38.408
				c0,0.224,0,0.393,0.056,0.505l1.727,1.949c0.168,0.112,0.28,0.278,0.28,0.391c0,0.167-0.17,0.222-0.392,0.222h-5.185
				c-0.223,0-0.389-0.109-0.389-0.222v-1.894h-0.112c-0.947,1.114-1.951,2.116-3.735,2.116c-2.453,0-5.018-1.393-5.018-17.113
				c0-12.433,2.787-13.879,5.072-13.879c1.62,0,2.733,0.89,3.681,1.951h0.112V571.396z M425.698,586.113
				c0-2.732-1.676-4.181-2.455-4.181c-1.393,0-2.062,1.169-2.062,11.482c0,13.435,0.557,14.719,2.005,14.719
				c1.34,0,2.512-1.729,2.512-4.461V586.113z"/>
			<path style="fill:#EAEAEA;" d="M438.181,607.462c0,0.224,0,0.393,0.056,0.505l1.896,1.949c0.166,0.112,0.223,0.278,0.223,0.391
				c0,0.167-0.111,0.222-0.334,0.222h-7.47c-0.224,0-0.335-0.055-0.335-0.222c0-0.112,0.055-0.278,0.222-0.391l1.728-1.949
				c0.112-0.112,0.112-0.281,0.112-0.505v-25.253c0-0.222-0.054-0.333-0.224-0.445l-1.616-1.56
				c-0.167-0.169-0.222-0.336-0.222-0.448c0-0.166,0.111-0.22,0.335-0.22h5.35c0.169,0,0.279,0.111,0.279,0.332v1.895h0.112
				c0.892-1.114,1.84-2.228,3.121-2.228c1.84,0,3.01,2.953,3.01,4.736c0,0.278-0.055,0.502-0.277,0.502
				c-0.223,0-0.335-0.224-0.446-0.502c-0.613-1.507-1.727-2.116-2.897-2.116c-1.618,0-2.622,2.282-2.622,5.128V607.462z"/>
			<path style="fill:#EAEAEA;" d="M446.651,582.209c0-0.222-0.056-0.333-0.167-0.445l-1.673-1.56
				c-0.111-0.169-0.224-0.336-0.224-0.448c0-0.166,0.167-0.22,0.335-0.22h5.35c0.169,0,0.28,0.111,0.28,0.332v27.594
				c0,0.224,0,0.393,0.112,0.505l1.728,1.949c0.11,0.112,0.224,0.278,0.224,0.391c0,0.167-0.113,0.222-0.336,0.222h-7.358
				c-0.168,0-0.335-0.055-0.335-0.222c0-0.112,0.112-0.278,0.224-0.391l1.727-1.949c0.113-0.112,0.113-0.281,0.113-0.505V582.209z
				 M450.554,571.672c0,1.453-0.891,2.956-2.007,2.956c-1.172,0-2.063-1.503-2.063-2.956c0-1.504,0.891-2.952,2.063-2.952
				C449.663,568.72,450.554,570.168,450.554,571.672z"/>
			<path style="fill:#EAEAEA;" d="M459.138,581.487h0.112c1.001-1.062,1.949-1.951,3.845-1.951c2.787,0,4.627,1.951,4.627,5.687
				v22.239c0,0.224,0,0.393,0.112,0.505l1.726,1.949c0.111,0.112,0.224,0.278,0.224,0.391c0,0.167-0.166,0.222-0.335,0.222h-7.358
				c-0.223,0-0.335-0.055-0.335-0.222c0-0.112,0.112-0.278,0.224-0.391l1.729-1.949c0.111-0.112,0.111-0.281,0.111-0.505v-22.296
				c0-2.119-0.613-3.233-1.895-3.233c-1.338,0-2.787,1.838-2.787,4.849v20.681c0,0.224,0,0.393,0.056,0.505l1.727,1.949
				c0.167,0.112,0.279,0.278,0.279,0.391c0,0.167-0.167,0.222-0.334,0.222h-7.359c-0.222,0-0.334-0.055-0.334-0.222
				c0-0.112,0.056-0.278,0.222-0.391l1.729-1.949c0.112-0.112,0.112-0.281,0.112-0.505v-25.253c0-0.222-0.058-0.333-0.169-0.445
				l-1.673-1.56c-0.109-0.169-0.222-0.336-0.222-0.448c0-0.166,0.166-0.22,0.334-0.22h5.353c0.224,0,0.279,0.111,0.279,0.332
				V581.487z"/>
			<path style="fill:#EAEAEA;" d="M476.304,592.134h0.111l3.791-9.533c0.224-0.444,0.111-0.949-0.168-1.282l-1.059-1.395
				c-0.056-0.11-0.112-0.168-0.112-0.222c0-0.112,0.057-0.166,0.28-0.166h5.742c0.165,0,0.223,0.054,0.223,0.22
				c0,0.112-0.058,0.225-0.28,0.448l-1.003,0.947c-0.277,0.336-0.445,0.725-0.668,1.227l-3.902,9.756l5.072,15.052
				c0.167,0.5,0.446,0.948,0.613,1.115l1.56,1.503c0.168,0.112,0.28,0.279,0.28,0.448c0,0.167-0.112,0.276-0.28,0.276h-6.186
				c-0.224,0-0.224-0.109-0.224-0.222s0.112-0.278,0.224-0.447l0.613-0.835c0.112-0.279,0.167-0.612,0.054-0.947l-3.733-11.095
				l-0.947,2.398v8.808c0,0.166,0.057,0.333,0.225,0.445l1.337,1.282c0.111,0.112,0.223,0.278,0.223,0.391
				c0,0.167-0.169,0.222-0.335,0.222h-7.08c-0.224,0-0.335-0.055-0.335-0.222c0-0.112,0.058-0.278,0.224-0.391l1.616-1.282
				c0.169-0.112,0.224-0.279,0.224-0.445v-37.126c0-0.169-0.055-0.336-0.224-0.447l-1.616-1.282
				c-0.166-0.113-0.224-0.279-0.224-0.389c0-0.17,0.111-0.225,0.335-0.225h5.353c0.223,0,0.278,0.11,0.278,0.334V592.134z"/>
		</g>
	</g>
	<g>
		<defs>
			<path id="SVGID_00000029742579234399049500000002389708885633728668_" d="M589.755,434.76h-24.721
				c0-81.536-59.032-149.251-136.646-162.884c0.162-1.298,0.228-2.635,0.228-3.97c0-16.841-11.679-30.481-26.095-30.481
				c-14.437,0-26.131,13.64-26.131,30.481c0,1.03,0.064,2.044,0.145,3.073c-80.395,11.228-142.311,80.266-142.311,163.781h-24.727
				c-8.062,0-14.598,3.268-14.598,7.299v1.326c0,4.032,6.536,7.3,14.598,7.3h380.258c8.063,0,14.598-3.268,14.598-7.3v-1.326
				C604.352,438.028,597.818,434.76,589.755,434.76z"/>
		</defs>
		<clipPath id="SVGID_00000016754451168534048380000017677866475129780411_">
			<use xlink:href="#SVGID_00000029742579234399049500000002389708885633728668_"  style="overflow:visible;"/>
		</clipPath>
		<g style="clip-path:url(#SVGID_00000016754451168534048380000017677866475129780411_);">
			<path style="fill:#3E3320;" d="M396.33,315.705l-0.648,36.996c0,1.459-0.824,3.345-2.373,3.345l0,0h-0.83l0,0l0,0
				c-1.548,0-2.374-2.072-2.374-3.569l-2.477-37.062c-0.634,0.002-1.283,0.002-1.961,0.002c-1.183,0-2.29-0.007-3.341-0.007
				l-2.477,37.574c0.008,1.359-0.819,3.063-2.367,3.063l0,0h-0.831l0,0l0,0c-1.548,0-2.374-2.072-2.374-3.569l-0.642-36.625
				c-8.22,1.554-8.218,8.478-8.218,38.806c0,10.23,3.387,19.142,9.436,23.928c0.829,0.652,1.703,1.233,2.628,1.73
				c0.918,0.487,1.888,0.879,2.899,1.192l-2.779,127.536c0,2.662,4.723,4.835,6.941,4.835h3.652c2.217,0,6.941-2.167,6.941-4.829
				l-2.787-128.016c1.02-0.415,1.973-0.952,2.887-1.554c1.126-0.74,2.167-1.614,3.126-2.607c4.863-5.039,7.559-13.099,7.559-22.212
				C405.92,323.202,405.414,316.93,396.33,315.705z"/>
			<path style="fill:#3E3320;" d="M422.853,393.557v19.746c0,2.09,0.435,4.027,1.159,5.688c1.218-1.516,2.933-1.537,3.79-1.537
				c0.62,0,1.295,0.057,2.007,0.107c0.754,0.057,1.552,0.112,2.382,0.112h0.805c0.829,0,1.63-0.06,2.383-0.112
				c0.715-0.057,1.389-0.107,2.007-0.107c0.858,0,2.574,0.022,3.792,1.537c0.721-1.66,1.157-3.594,1.157-5.688v-103.11
				C425.727,309.885,422.853,387.552,422.853,393.557z"/>
			<path style="fill:#3E3320;" d="M437.386,420.963c-0.578,0-1.206,0.045-1.864,0.098c-0.8,0.065-1.649,0.119-2.523,0.119h-0.807
				c-0.878,0-1.729-0.06-2.522-0.119c-0.664-0.053-1.287-0.098-1.866-0.098c-1.087,0-1.751,0.139-2.135,0.697
				c-0.324,0.465-0.46,1.221-0.46,2.474v78.03c0,5.49,3.134,9.962,6.983,9.962h0.805c3.853,0,6.978-4.465,6.978-9.962v-78.03
				c0-1.253-0.133-2.009-0.451-2.474C439.137,421.102,438.479,420.963,437.386,420.963z"/>
		</g>
	</g>
</g>
</svg>
