<?xml version="1.0" encoding="utf-8"?>
<!-- Generator: Adobe Illustrator 27.5.0, SVG Export Plug-In . SVG Version: 6.00 Build 0)  -->
<svg version="1.1" xmlns="http://www.w3.org/2000/svg" xmlns:xlink="http://www.w3.org/1999/xlink" x="0px" y="0px"
	 viewBox="0 0 3710 3710" style="enable-background:new 0 0 3710 3710;" xml:space="preserve">
<g id="Background">
	<g>
		<g>
			<rect style="fill:#FFFFFF;" width="3710" height="3710"/>
		</g>
	</g>
</g>
<g id="Illustration">
	<g>
		<linearGradient id="SVGID_1_" gradientUnits="userSpaceOnUse" x1="3608.7395" y1="4061.707" x2="1133.6409" y2="987.79">
			<stop  offset="0" style="stop-color:#B37CFF"/>
			<stop  offset="1" style="stop-color:#F895E7"/>
		</linearGradient>
		<path style="opacity:0.3;fill:url(#SVGID_1_);" d="M2930.872,2847.354c-57.019,59.736-110.97,98.26-153.596,128.696
			c-501.056,357.771-1093.937,253.482-1219.942,228.014c-186.068-37.608-545.735-110.304-805.767-414.615
			C358.16,2329.052,419.42,1603.711,724.573,1124.903c55.817-87.582,350.661-573.684,949.928-651.639
			c362.67-47.178,785.427,47.974,1091.576,303.223C3408.711,1312.277,3362.963,2394.668,2930.872,2847.354z"/>
		<g>
			<g>
				
					<linearGradient id="SVGID_00000075863105341244058760000002507403534648785581_" gradientUnits="userSpaceOnUse" x1="1046.8882" y1="1126.0344" x2="1698.402" y2="2789.4758" gradientTransform="matrix(0.9936 -0.1132 0.1132 0.9936 -317.1596 -34.7397)">
					<stop  offset="0" style="stop-color:#A737D5"/>
					<stop  offset="1" style="stop-color:#EF497A"/>
				</linearGradient>
				<path style="fill:url(#SVGID_00000075863105341244058760000002507403534648785581_);" d="M1044.277,477.106
					c5.975-17.982,33.289-16.361,36.8,2.205c33.94,179.493,138.378,647.49,344.763,909.558
					c336.043,426.707,522.155,1086.919,248.899,1395.27C1674.739,2784.139,393.216,2436.438,1044.277,477.106z"/>
				<path style="opacity:0.43;fill:#FFFFFF;" d="M1055.476,729.837c-0.108,5.769,0.283,10.521,0.467,15.657l0.89,15.128
					l2.127,30.202c1.562,20.12,3.449,40.207,5.338,60.296c3.926,40.162,8.375,80.275,13.209,120.348
					c9.827,80.13,21.932,159.993,35.288,239.667c13.239,79.699,28.821,159.043,46.159,238.038
					c17.408,78.977,35.996,157.751,57.287,235.9c42.257,156.345,93.479,310.642,155.909,460.865
					c32.044,74.778,66.152,148.798,104.684,220.77c39.067,71.679,81.343,141.808,128.795,208.672
					c1.051,1.481,3.16,1.868,4.711,0.865c1.512-0.978,1.935-2.917,0.983-4.385l-0.025-0.038
					c-44.481-68.35-85.046-138.848-121.9-211.099c-37.075-72.16-69.722-146.312-100.3-221.163
					c-30.545-74.889-57.933-150.937-83.504-227.522c-25.546-76.614-47.75-154.201-69.508-231.88
					c-42.831-155.582-76.922-313.29-106.483-471.731c-14.603-79.259-27.53-158.811-38.983-238.56
					c-5.794-39.866-11.206-79.787-16.097-119.767l-6.844-60.013l-3.101-30.027l-1.376-15.013
					c-0.367-4.922-0.848-10.216-0.984-14.523l-0.022-0.728c-0.056-1.772-1.605-3.166-3.462-3.112
					C1056.937,726.736,1055.51,728.137,1055.476,729.837z"/>
			</g>
			<g>
				
					<linearGradient id="SVGID_00000087408269953706458110000008029699186333425822_" gradientUnits="userSpaceOnUse" x1="3868.7803" y1="4575.083" x2="-617.074" y2="723.9481">
					<stop  offset="0" style="stop-color:#A737D5"/>
					<stop  offset="1" style="stop-color:#EF497A"/>
				</linearGradient>
				<path style="fill:url(#SVGID_00000087408269953706458110000008029699186333425822_);" d="M509.195,941.604
					c2.844-19.548,32.694-22.645,40.221-4.151c72.771,178.792,279.745,642.181,555.515,875.865
					c449.018,380.49,782.916,1027.435,549.539,1392.43C1654.47,3205.747,199.355,3071.519,509.195,941.604z"/>
				<path style="opacity:0.43;fill:#FFFFFF;" d="M572.176,1199.726c1.043,5.942,2.423,10.771,3.657,16.022l4.006,15.41l8.381,30.706
					c5.74,20.429,11.822,40.771,17.906,61.114c12.327,40.642,25.209,81.141,38.5,121.534c26.746,80.739,55.893,160.81,86.36,240.465
					c30.346,79.701,63.144,158.631,97.767,236.896c34.697,78.234,70.627,156.053,109.354,232.755
					c77.109,153.513,163.476,303.362,261.144,447.061c49.656,71.366,101.39,141.592,157.496,208.939
					c56.617,66.955,116.397,131.757,181.104,192.305c1.407,1.317,3.722,1.347,5.17,0.068c1.412-1.247,1.48-3.28,0.178-4.601
					l-0.034-0.033c-61.847-62.558-119.884-128.024-174.265-195.938c-54.596-67.786-104.806-138.396-152.919-210.086
					c-48.084-71.737-92.979-145.222-136.022-219.574c-43.019-74.387-82.629-150.356-121.758-226.505
					c-77.565-152.645-146.129-308.995-209.909-466.9c-31.707-79.024-61.665-158.637-90.062-238.714
					c-14.269-40.019-28.134-80.16-41.45-120.452l-19.449-60.571l-9.379-30.362l-4.5-15.212c-1.385-5.004-2.967-10.363-3.981-14.786
					l-0.167-0.731c-0.408-1.782-2.327-2.926-4.287-2.555C573.116,1196.342,571.877,1198.002,572.176,1199.726z"/>
			</g>
		</g>
		<g>
			
				<linearGradient id="SVGID_00000157292873637560904860000017754424321942212026_" gradientUnits="userSpaceOnUse" x1="1085.7715" y1="4993.7627" x2="2504.3601" y2="2033.8286">
				<stop  offset="0" style="stop-color:#B37CFF"/>
				<stop  offset="1" style="stop-color:#F895E7"/>
			</linearGradient>
			<path style="fill:url(#SVGID_00000157292873637560904860000017754424321942212026_);" d="M3117.169,1318.261
				c0-14.33-11.617-25.947-25.947-25.947H1703.398c-14.33,0-25.947,11.617-25.947,25.947v1877.86
				c0,14.33,11.617,25.947,25.947,25.947h1387.824c14.33,0,25.947-11.617,25.947-25.947V1318.261z"/>
			
				<linearGradient id="SVGID_00000054243963413497764640000008484716852555721870_" gradientUnits="userSpaceOnUse" x1="1677.4513" y1="1343.5972" x2="3117.1694" y2="1343.5972">
				<stop  offset="0" style="stop-color:#A737D5"/>
				<stop  offset="1" style="stop-color:#EF497A"/>
			</linearGradient>
			<path style="fill:url(#SVGID_00000054243963413497764640000008484716852555721870_);" d="M3091.222,1292.314H1704.595
				c-14.33,0-27.144,11.206-27.144,25.536v77.03h1439.718v-77.03C3117.169,1303.521,3105.552,1292.314,3091.222,1292.314z"/>
			
				<linearGradient id="SVGID_00000034778141260880903140000011260187790074704791_" gradientUnits="userSpaceOnUse" x1="1677.4513" y1="1717.772" x2="3117.1694" y2="1717.772">
				<stop  offset="0" style="stop-color:#A737D5"/>
				<stop  offset="1" style="stop-color:#EF497A"/>
			</linearGradient>
			
				<rect x="1677.451" y="1702.577" style="fill:url(#SVGID_00000034778141260880903140000011260187790074704791_);" width="1439.718" height="30.39"/>
			
				<linearGradient id="SVGID_00000039101615812672341850000005677439898223193752_" gradientUnits="userSpaceOnUse" x1="2390.6934" y1="2089.7925" x2="2397.5129" y2="2669.4885">
				<stop  offset="0" style="stop-color:#B37CFF"/>
				<stop  offset="1" style="stop-color:#F895E7"/>
			</linearGradient>
			
				<rect x="1677.451" y="2637.064" style="fill:url(#SVGID_00000039101615812672341850000005677439898223193752_);" width="1439.718" height="30.39"/>
			
				<linearGradient id="SVGID_00000053527234927022364660000005500699359706166666_" gradientUnits="userSpaceOnUse" x1="2323.2471" y1="2830.4211" x2="2501.5754" y2="1403.7911">
				<stop  offset="0" style="stop-color:#A737D5"/>
				<stop  offset="1" style="stop-color:#EF497A"/>
			</linearGradient>
			<path style="fill:url(#SVGID_00000053527234927022364660000005500699359706166666_);" d="M2938.629,1904.24v637.488
				c0,3.304-2.269,6.144-3.995,8.688c-2.866,4.299-9.052,6.875-14.638,6.875h-1043.96c-8.89,0-16.245-6.673-16.245-15.563V1904.24
				c0-8.89,7.355-15.525,16.245-15.525h1043.96C2928.886,1888.715,2938.629,1895.35,2938.629,1904.24z"/>
			
				<linearGradient id="SVGID_00000149345355341032045800000014197118058265420733_" gradientUnits="userSpaceOnUse" x1="2553.2996" y1="1842.4099" x2="2082.3293" y2="2994.6875">
				<stop  offset="0" style="stop-color:#CB236D"/>
				<stop  offset="1" style="stop-color:#4C246D"/>
			</linearGradient>
			<path style="fill:url(#SVGID_00000149345355341032045800000014197118058265420733_);" d="M2896.843,1957.98
				c0-8.883-7.201-16.083-16.083-16.083h-970.698c-8.883,0-16.083,7.201-16.083,16.083v541.441c0,8.883,7.201,16.083,16.083,16.083
				h970.698c8.883,0,16.083-7.201,16.083-16.083V1957.98z"/>
			
				<linearGradient id="SVGID_00000081614318903778431380000018088166210753683111_" gradientUnits="userSpaceOnUse" x1="2495.7908" y1="1468.286" x2="2331.179" y2="2780.6052">
				<stop  offset="0" style="stop-color:#CB236D"/>
				<stop  offset="1" style="stop-color:#4C246D"/>
			</linearGradient>
			<path style="fill:url(#SVGID_00000081614318903778431380000018088166210753683111_);" d="M2900.642,2238.198h-114.779
				c-3.678-7.597-10.976-11.697-19.39-11.697s-15.712,4.1-19.39,11.697h-145.448c-3.678-7.597-10.976-11.697-19.39-11.697
				s-15.712,4.1-19.39,11.697h-145.448c-3.678-7.597-10.976-11.697-19.39-11.697s-15.712,4.1-19.39,11.697h-145.448
				c-3.678-7.597-10.976-11.697-19.39-11.697s-15.712,4.1-19.39,11.697H2048.95c-3.678-7.597-10.976-11.697-19.39-11.697
				s-15.712,4.1-19.39,11.697h-116.19v30.39h114.924c3.013,11.396,11.112,14.621,20.657,14.621c9.545,0,17.644-3.225,20.657-14.621
				h142.915c3.013,11.396,11.112,14.621,20.657,14.621c9.545,0,17.644-3.225,20.657-14.621h142.915
				c3.013,11.396,11.112,14.621,20.657,14.621s17.644-3.225,20.657-14.621h142.915c3.013,11.396,11.112,14.621,20.657,14.621
				s17.644-3.225,20.657-14.621h142.915c3.013,11.396,11.112,14.621,20.657,14.621s17.644-3.225,20.657-14.621h113.512V2238.198z"/>
			
				<linearGradient id="SVGID_00000025429374996200215420000008239632097638461627_" gradientUnits="userSpaceOnUse" x1="2401.1091" y1="1117.2013" x2="2401.1091" y2="1985.9838">
				<stop  offset="0" style="stop-color:#A737D5"/>
				<stop  offset="1" style="stop-color:#EF497A"/>
			</linearGradient>
			<path style="fill:url(#SVGID_00000025429374996200215420000008239632097638461627_);" d="M2600.542,1623.951
				c0,16.15-13.092,29.243-29.242,29.243h-340.381c-16.15,0-29.243-13.092-29.243-29.243v-120.055
				c0-16.15,13.093-29.243,29.243-29.243H2571.3c16.15,0,29.242,13.092,29.242,29.243V1623.951z"/>
			
				<linearGradient id="SVGID_00000060726143129194591300000018423492429087878322_" gradientUnits="userSpaceOnUse" x1="2397.3103" y1="1437.2782" x2="2397.3103" y2="2237.4712">
				<stop  offset="0" style="stop-color:#CB236D"/>
				<stop  offset="1" style="stop-color:#4C246D"/>
			</linearGradient>
			<path style="fill:url(#SVGID_00000060726143129194591300000018423492429087878322_);" d="M2581.549,1500.671
				c0-8.075-6.546-14.621-14.621-14.621h-339.234c-8.075,0-14.621,6.546-14.621,14.621v118.908c0,8.075,6.546,14.621,14.621,14.621
				h339.234c8.075,0,14.621-6.546,14.621-14.621V1500.671z"/>
			<g>
				<g>
					<g>
						
							<linearGradient id="SVGID_00000169539601872273189920000005631092489541342377_" gradientUnits="userSpaceOnUse" x1="2040.536" y1="975.27" x2="2040.536" y2="2883.6306">
							<stop  offset="0" style="stop-color:#A737D5"/>
							<stop  offset="1" style="stop-color:#EF497A"/>
						</linearGradient>
						
							<circle style="fill:url(#SVGID_00000169539601872273189920000005631092489541342377_);" cx="2040.536" cy="1556.984" r="84.072"/>
						
							<linearGradient id="SVGID_00000075871501818595043560000004068619161307999932_" gradientUnits="userSpaceOnUse" x1="2042.1293" y1="1190.3621" x2="2042.1293" y2="2187.1753">
							<stop  offset="0" style="stop-color:#CB236D"/>
							<stop  offset="1" style="stop-color:#4C246D"/>
						</linearGradient>
						<path style="fill:url(#SVGID_00000075871501818595043560000004068619161307999932_);" d="M2061.123,1634.917
							c0,10.094-8.183,18.277-18.276,18.277h-1.434c-10.094,0-18.277-8.183-18.277-18.277v-153.383
							c0-10.094,8.183-18.277,18.277-18.277h1.434c10.094,0,18.276,8.183,18.276,18.277V1634.917z"/>
					</g>
					<g>
						
							<linearGradient id="SVGID_00000134937722948308402650000017875667492173863581_" gradientUnits="userSpaceOnUse" x1="1800.2299" y1="975.2695" x2="1800.2299" y2="2883.6294">
							<stop  offset="0" style="stop-color:#A737D5"/>
							<stop  offset="1" style="stop-color:#EF497A"/>
						</linearGradient>
						
							<circle style="fill:url(#SVGID_00000134937722948308402650000017875667492173863581_);" cx="1800.23" cy="1556.77" r="84.072"/>
						
							<linearGradient id="SVGID_00000078042863487219224820000006078480309918188175_" gradientUnits="userSpaceOnUse" x1="1799.713" y1="1190.3616" x2="1799.713" y2="2187.1736">
							<stop  offset="0" style="stop-color:#CB236D"/>
							<stop  offset="1" style="stop-color:#4C246D"/>
						</linearGradient>
						<path style="fill:url(#SVGID_00000078042863487219224820000006078480309918188175_);" d="M1758.875,1622.938
							c-7.138,7.137-18.71,7.137-25.847,0l-1.034-1.034c-7.137-7.137-7.137-18.709,0-25.847l108.558-108.558
							c7.138-7.137,18.71-7.137,25.847,0l1.034,1.034c7.137,7.137,7.137,18.71,0,25.847L1758.875,1622.938z"/>
					</g>
				</g>
				<g>
					<g>
						
							<linearGradient id="SVGID_00000080927341909555827790000000111382652214579090_" gradientUnits="userSpaceOnUse" x1="2756.9795" y1="975.2695" x2="2756.9795" y2="2883.6294">
							<stop  offset="0" style="stop-color:#A737D5"/>
							<stop  offset="1" style="stop-color:#EF497A"/>
						</linearGradient>
						
							<circle style="fill:url(#SVGID_00000080927341909555827790000000111382652214579090_);" cx="2756.979" cy="1556.77" r="84.072"/>
						
							<linearGradient id="SVGID_00000114767470349309677520000005638759645377424277_" gradientUnits="userSpaceOnUse" x1="2840.189" y1="1356.3004" x2="2529.2566" y2="2106.1951">
							<stop  offset="0" style="stop-color:#CB236D"/>
							<stop  offset="1" style="stop-color:#4C246D"/>
						</linearGradient>
						<path style="fill:url(#SVGID_00000114767470349309677520000005638759645377424277_);" d="M2717.024,1487.134
							c-7.138-7.137-18.71-7.137-25.847,0l-1.034,1.034c-7.137,7.137-7.137,18.71,0,25.847l108.558,108.557
							c7.137,7.137,18.71,7.137,25.847,0l1.034-1.034c7.137-7.138,7.137-18.71,0-25.847L2717.024,1487.134z"/>
					</g>
					<g>
						
							<linearGradient id="SVGID_00000109003555861229472630000015240480113757820801_" gradientUnits="userSpaceOnUse" x1="2995.7983" y1="975.2687" x2="2995.7983" y2="2883.6396">
							<stop  offset="0" style="stop-color:#A737D5"/>
							<stop  offset="1" style="stop-color:#EF497A"/>
						</linearGradient>
						
							<circle style="fill:url(#SVGID_00000109003555861229472630000015240480113757820801_);" cx="2995.798" cy="1556.827" r="84.072"/>
						
							<linearGradient id="SVGID_00000014596132320221779870000007248176162123148715_" gradientUnits="userSpaceOnUse" x1="3045.4016" y1="1441.3884" x2="2734.4688" y2="2191.2842">
							<stop  offset="0" style="stop-color:#CB236D"/>
							<stop  offset="1" style="stop-color:#4C246D"/>
						</linearGradient>
						<path style="fill:url(#SVGID_00000014596132320221779870000007248176162123148715_);" d="M2934.89,1605.598
							c-6.259,7.919-4.913,19.413,3.007,25.672l1.147,0.907c7.919,6.259,19.413,4.913,25.671-3.007l95.193-120.449
							c6.259-7.919,4.913-19.413-3.007-25.672l-1.147-0.906c-7.919-6.259-19.413-4.913-25.671,3.007L2934.89,1605.598z"/>
					</g>
				</g>
			</g>
		</g>
		<g>
			<g>
				<g>
					
						<linearGradient id="SVGID_00000091731441649362008340000006930255866309699224_" gradientUnits="userSpaceOnUse" x1="3190.0991" y1="638.3328" x2="3004.033" y2="1198.5336">
						<stop  offset="0" style="stop-color:#2B3582"/>
						<stop  offset="1" style="stop-color:#150E42"/>
					</linearGradient>
					<path style="fill:url(#SVGID_00000091731441649362008340000006930255866309699224_);" d="M3201.379,760.826
						c8.223,0,14.397,6.941,14.397,15.165v7.445c0,8.224-6.174,15.15-14.397,15.15h-126.706v-37.76H3201.379z"/>
					
						<linearGradient id="SVGID_00000021826263998166239020000005383420693980600714_" gradientUnits="userSpaceOnUse" x1="-1723.8966" y1="1688.2078" x2="-2341.9658" y2="2359.9363" gradientTransform="matrix(-1 0 0 1 2188.8069 0)">
						<stop  offset="0" style="stop-color:#2B3582"/>
						<stop  offset="1" style="stop-color:#150E42"/>
					</linearGradient>
					<path style="fill:url(#SVGID_00000021826263998166239020000005383420693980600714_);" d="M3145.542,798.586
						c0,18.88-16.666,35.773-37.225,35.773h-32.649v-35.773H3145.542z"/>
				</g>
				<g>
					
						<linearGradient id="SVGID_00000035520997542901778270000008889383382571685301_" gradientUnits="userSpaceOnUse" x1="2411.7207" y1="659.3776" x2="2653.2898" y2="1138.5234">
						<stop  offset="0" style="stop-color:#2B3582"/>
						<stop  offset="1" style="stop-color:#150E42"/>
					</linearGradient>
					<path style="fill:url(#SVGID_00000035520997542901778270000008889383382571685301_);" d="M2413.446,760.826
						c-8.224,0-14.477,6.941-14.477,15.165v7.445c0,8.224,6.253,15.15,14.477,15.15h126.626v-37.76H2413.446z"/>
					
						<linearGradient id="SVGID_00000005977683158811766480000003004561398182159267_" gradientUnits="userSpaceOnUse" x1="1770.4772" y1="816.4722" x2="1841.2655" y2="816.4722" gradientTransform="matrix(1 0 0 1 698.8068 0)">
						<stop  offset="0" style="stop-color:#2B3582"/>
						<stop  offset="1" style="stop-color:#150E42"/>
					</linearGradient>
					<path style="fill:url(#SVGID_00000005977683158811766480000003004561398182159267_);" d="M2469.284,798.586
						c0,19.874,16.666,35.773,37.225,35.773h33.563v-35.773H2469.284z"/>
				</g>
			</g>
			
				<linearGradient id="SVGID_00000111157375032423168700000011057533891561636799_" gradientUnits="userSpaceOnUse" x1="-611.343" y1="813.7354" x2="-667.6567" y2="1926.7689" gradientTransform="matrix(-1 0 0 1 2188.8069 0)">
				<stop  offset="0" style="stop-color:#CB236D"/>
				<stop  offset="1" style="stop-color:#4C246D"/>
			</linearGradient>
			<path style="fill:url(#SVGID_00000111157375032423168700000011057533891561636799_);" d="M3078.771,758.839l-0.855,446.788
				c0,95.758-65.167,94.545-144.79,94.545H2681.7c-79.623,0-142.621,5.942-142.621-89.816V758.839H3078.771z"/>
			
				<linearGradient id="SVGID_00000133508077951783599260000017571277437653154495_" gradientUnits="userSpaceOnUse" x1="-616.058" y1="683.2987" x2="-623.0428" y2="821.3524" gradientTransform="matrix(-1 0 0 1 2188.8069 0)">
				<stop  offset="0" style="stop-color:#CB236D"/>
				<stop  offset="1" style="stop-color:#4C246D"/>
			</linearGradient>
			<path style="fill:url(#SVGID_00000133508077951783599260000017571277437653154495_);" d="M3077.916,745.921L3077.916,745.921
				c0,0-20-44.716-44.67-44.716h-450.425c-24.671,0-44.67,19.874-44.67,44.716l0,0H3077.916z"/>
			
				<linearGradient id="SVGID_00000104663659107766018530000018339987572165629360_" gradientUnits="userSpaceOnUse" x1="3048.8364" y1="420.1076" x2="2653.3508" y2="964.6448">
				<stop  offset="0" style="stop-color:#CB236D"/>
				<stop  offset="1" style="stop-color:#4C246D"/>
			</linearGradient>
			<path style="fill:url(#SVGID_00000104663659107766018530000018339987572165629360_);" d="M3104.484,746.295
				c0-7.341-5.951-13.293-13.292-13.293h-558.694c-7.341,0-13.292,5.951-13.292,13.293v0.244c0,7.341,5.951,13.292,13.292,13.292
				h558.694c7.341,0,13.292-5.951,13.292-13.292V746.295z"/>
			<g>
				
					<linearGradient id="SVGID_00000074427734730450649590000004392050872066254472_" gradientUnits="userSpaceOnUse" x1="-618.3182" y1="675.0573" x2="-620.8006" y2="724.1216" gradientTransform="matrix(-1 0 0 1 2188.8069 0)">
					<stop  offset="0" style="stop-color:#2B3582"/>
					<stop  offset="1" style="stop-color:#150E42"/>
				</linearGradient>
				
					<rect x="2788.493" y="678.35" style="fill:url(#SVGID_00000074427734730450649590000004392050872066254472_);" width="38.754" height="22.855"/>
				
					<linearGradient id="SVGID_00000016781946282869937170000000621804134732589463_" gradientUnits="userSpaceOnUse" x1="-617.1428" y1="640.6149" x2="-622.0192" y2="736.9955" gradientTransform="matrix(-1 0 0 1 2188.8069 0)">
					<stop  offset="0" style="stop-color:#2B3582"/>
					<stop  offset="1" style="stop-color:#150E42"/>
				</linearGradient>
				<path style="fill:url(#SVGID_00000016781946282869937170000000621804134732589463_);" d="M2745.371,669.532
					c0,12.335,10,22.334,22.334,22.334h79.416c12.335,0,22.334-9.999,22.334-22.334v-0.002c0-12.335-9.999-22.334-22.334-22.334
					h-79.416c-12.334,0-22.334,9.999-22.334,22.334V669.532z"/>
			</g>
		</g>
		<g>
			
				<linearGradient id="SVGID_00000015324074212846758230000004372119698694637984_" gradientUnits="userSpaceOnUse" x1="2015.7997" y1="2032.2435" x2="1836.3057" y2="3355.1838">
				<stop  offset="0" style="stop-color:#CB236D"/>
				<stop  offset="1" style="stop-color:#4C246D"/>
			</linearGradient>
			
				<rect x="552.085" y="3136.093" style="fill:url(#SVGID_00000015324074212846758230000004372119698694637984_);" width="2611.76" height="118.908"/>
			
				<linearGradient id="SVGID_00000098914570279856346760000017295516818866627467_" gradientUnits="userSpaceOnUse" x1="1846.3561" y1="2284.5217" x2="1859.2588" y2="3710.2593">
				<stop  offset="0" style="stop-color:#CB236D"/>
				<stop  offset="1" style="stop-color:#4C246D"/>
			</linearGradient>
			<path style="fill:url(#SVGID_00000098914570279856346760000017295516818866627467_);" d="M3231.542,3186.468H475.845
				c-9.752,0-17.658-7.906-17.658-17.658v-147.007c0-9.752,7.906-17.658,17.658-17.658h2755.698c9.752,0,17.658,7.906,17.658,17.658
				v147.007C3249.2,3178.562,3241.295,3186.468,3231.542,3186.468z"/>
		</g>
		<g>
			<defs>
				
					<rect id="SVGID_00000035512392898428158080000010670667575292715655_" x="457.261" y="473.274" width="1951.066" height="2532.879"/>
			</defs>
			<clipPath id="SVGID_00000082331200698532844580000011769032675315193513_">
				<use xlink:href="#SVGID_00000035512392898428158080000010670667575292715655_"  style="overflow:visible;"/>
			</clipPath>
			<g style="clip-path:url(#SVGID_00000082331200698532844580000011769032675315193513_);">
				
					<linearGradient id="SVGID_00000121975976184063614950000001829970560055042966_" gradientUnits="userSpaceOnUse" x1="1250.1682" y1="3689.3228" x2="1394.2313" y2="3406.8462">
					<stop  offset="0" style="stop-color:#53D8FF"/>
					<stop  offset="1" style="stop-color:#3840F7"/>
				</linearGradient>
				<path style="fill:url(#SVGID_00000121975976184063614950000001829970560055042966_);" d="M1429.474,3434.575
					c-0.028-0.928-0.115-1.862-0.304-2.803c-1.823-9.019-10.623-14.928-19.633-13.056l-78.831,15.858H1429.474z"/>
				<g>
					
						<linearGradient id="SVGID_00000129165031855014717310000008630489982639371679_" gradientUnits="userSpaceOnUse" x1="958.2009" y1="3257.0649" x2="1617.2209" y2="3257.0649">
						<stop  offset="0" style="stop-color:#2B3582"/>
						<stop  offset="1" style="stop-color:#150E42"/>
					</linearGradient>
					<path style="fill:url(#SVGID_00000129165031855014717310000008630489982639371679_);" d="M1616.917,3434.575
						c-0.741-99.437-2.856-194.657-6.517-285.145c0,0-349.965-122.192-613.75-43.406c-19.5,5.824-31.071,134.591-35.86,328.551
						H1616.917z"/>
				</g>
				
					<linearGradient id="SVGID_00000021114845940446021880000017309813226187057337_" gradientUnits="userSpaceOnUse" x1="1096.4078" y1="2015.2524" x2="1130.4973" y2="4326.5435">
					<stop  offset="0" style="stop-color:#FDF53F"/>
					<stop  offset="1" style="stop-color:#D93C65"/>
				</linearGradient>
				<path style="fill:url(#SVGID_00000021114845940446021880000017309813226187057337_);" d="M1648.521,1708.613
					c-126.402-7.412-542.939-20.935-887.609,92.94c-72.54,23.965-131.293,77.589-161.57,147.074
					c-93.238,213.967-244.191,701.248,174.867,947.256c32.196-79.933,69.356-144.185,101.131-191.391
					c-67.485-113.829-87.472-269.301,32.284-471.759c87.322,235.789,66.406,528.67,74.967,680.928
					c2.819,50.13,0.831,219.27,0.831,219.27c-12.324,58.27,516.911,104.063,600.018,39.594
					c10.375-8.047,25.195-10.213,26.961-23.094c67.651-493.555,114.98-813.097,86.892-1021.533
					C1723.066,2017.724,1671.669,1709.972,1648.521,1708.613z"/>
				
					<linearGradient id="SVGID_00000126308412955276829850000006737707465372741521_" gradientUnits="userSpaceOnUse" x1="1855.0908" y1="2003.7096" x2="1889.1433" y2="4312.4902">
					<stop  offset="0" style="stop-color:#FDF53F"/>
					<stop  offset="1" style="stop-color:#D93C65"/>
				</linearGradient>
				<path style="fill:url(#SVGID_00000126308412955276829850000006737707465372741521_);" d="M1799.8,2838.288
					c-1.8-2.078-1.641-5.896,0.322-7.681c23.655-21.506,47.416-131.463,3.234-376.553
					c-24.878-138.008-118.363-293.005-118.363-293.005l-45.972-447.705c-0.88-5.425,3.398-9.689,6.958-6.939
					c68.185,52.661,401.622,339.598,427.447,785.841c19,328.316-169.154,466.673-169.154,466.673L1799.8,2838.288z"/>
				<g>
					
						<linearGradient id="SVGID_00000121267870358735394310000010627899045122287496_" gradientUnits="userSpaceOnUse" x1="1890.9272" y1="1958.3075" x2="750.6808" y2="3773.4956">
						<stop  offset="0" style="stop-color:#2B3582"/>
						<stop  offset="1" style="stop-color:#150E42"/>
					</linearGradient>
					<path style="fill:url(#SVGID_00000121267870358735394310000010627899045122287496_);" d="M1673.426,3434.575l-5.829-725.366
						c-51.944-218.867-93.616-422.73-99.008-573.629c-172.43,18.803-338.378,17.762-498.865,0
						c-7.493,240.401-40.827,489.003-85.566,741.228l-50.875,557.768H1673.426z"/>
					
						<linearGradient id="SVGID_00000128469502368381334690000000974432712297578169_" gradientUnits="userSpaceOnUse" x1="1273.3148" y1="1570.4918" x2="132.8767" y2="3385.9851">
						<stop  offset="0" style="stop-color:#2B3582"/>
						<stop  offset="1" style="stop-color:#150E42"/>
					</linearGradient>
					<path style="fill:url(#SVGID_00000128469502368381334690000000974432712297578169_);" d="M897.11,1747.905
						c50.857,153.522,106.029,284.978,171.232,403.352h104.913c-56.108-148.813-99.572-279.127-130.39-418.443L897.11,1747.905z"/>
					
						<linearGradient id="SVGID_00000155849868771826037870000014986765509826234769_" gradientUnits="userSpaceOnUse" x1="1621.9908" y1="1789.3691" x2="481.7418" y2="3604.5615">
						<stop  offset="0" style="stop-color:#2B3582"/>
						<stop  offset="1" style="stop-color:#150E42"/>
					</linearGradient>
					<path style="fill:url(#SVGID_00000155849868771826037870000014986765509826234769_);" d="M1564.004,2157.808l52.505-446.055
						c1.119-8.871-6.206-16.526-15.118-15.798l-92.636,7.562c-6.445,0.526-11.575,5.618-12.149,12.058l-38.665,433.716
						L1564.004,2157.808z"/>
				</g>
				
					<linearGradient id="SVGID_00000163048826574159091840000006920152497610276253_" gradientUnits="userSpaceOnUse" x1="1154.2677" y1="1995.2314" x2="1230.7491" y2="1593.7037">
					<stop  offset="0" style="stop-color:#F9B776"/>
					<stop  offset="1" style="stop-color:#F47960"/>
				</linearGradient>
				<path style="fill:url(#SVGID_00000163048826574159091840000006920152497610276253_);" d="M1115.566,1427.031
					c0,0-23.865,252.339-44.879,326.981c-3.189,11.324,1.73,23.264,12.019,29.143c35.663,20.378,121.201,53.616,238.203-3.726
					c18.956-9.291,30.35-29.048,29.467-49.958l-10.309-243.841L1115.566,1427.031z"/>
				<g>
					
						<linearGradient id="SVGID_00000024697798137980756480000010250340856981365687_" gradientUnits="userSpaceOnUse" x1="1221.3177" y1="1505.9672" x2="1206.0543" y2="1066.106">
						<stop  offset="0" style="stop-color:#F9B776"/>
						<stop  offset="0.0496" style="stop-color:#F9B475"/>
						<stop  offset="1" style="stop-color:#F47960"/>
					</linearGradient>
					<path style="fill:url(#SVGID_00000024697798137980756480000010250340856981365687_);" d="M1006.788,1151.804
						c0,0,29.528,301.174,94.487,377.943c0,0,194.877,17.716,265.741-23.622c0,0,50.196-150.587,44.29-351.37
						c0,0,9.677-182.709-191.923-197.83C983.167,939.209,1006.788,1151.804,1006.788,1151.804z"/>
					
						<linearGradient id="SVGID_00000092430440662660270410000002356133006424208566_" gradientUnits="userSpaceOnUse" x1="1427.4761" y1="1498.8164" x2="1412.2125" y2="1058.9509">
						<stop  offset="0" style="stop-color:#F9B776"/>
						<stop  offset="0.0496" style="stop-color:#F9B475"/>
						<stop  offset="1" style="stop-color:#F47960"/>
					</linearGradient>
					<path style="fill:url(#SVGID_00000092430440662660270410000002356133006424208566_);" d="M1390.638,1246.29
						c0,0,17.717-53.149,47.243-53.149c29.526,0-5.905,141.73-47.243,141.73V1246.29z"/>
					
						<linearGradient id="SVGID_00000114767285050323061010000003145343799564395399_" gradientUnits="userSpaceOnUse" x1="1016.2547" y1="1513.0833" x2="1000.9913" y2="1073.2236">
						<stop  offset="0" style="stop-color:#F9B776"/>
						<stop  offset="0.0496" style="stop-color:#F9B475"/>
						<stop  offset="1" style="stop-color:#F47960"/>
					</linearGradient>
					<path style="fill:url(#SVGID_00000114767285050323061010000003145343799564395399_);" d="M1033.661,1260.247
						c0,0-24.721-50.274-53.979-46.291c-29.257,3.981,24.964,139.637,65.924,134.063L1033.661,1260.247z"/>
					
						<linearGradient id="SVGID_00000088832865739072443960000006466951917548063370_" gradientUnits="userSpaceOnUse" x1="993.5301" y1="1082.2288" x2="1439.4108" y2="1082.2288">
						<stop  offset="0" style="stop-color:#2B3582"/>
						<stop  offset="1" style="stop-color:#150E42"/>
					</linearGradient>
					<path style="fill:url(#SVGID_00000088832865739072443960000006466951917548063370_);" d="M1331.585,1080.94
						c0,0-150.456,154.743-314.396,154.142c0,0-93.075-248.628,89.991-289.966c183.067-41.338,188.972,11.81,188.972,11.81
						s214.071-52.576,118.846,251.265L1331.585,1080.94z"/>
				</g>
				<g>
					
						<linearGradient id="SVGID_00000010273077717234594500000012772448096709039767_" gradientUnits="userSpaceOnUse" x1="5556.5439" y1="696.3828" x2="4878.5791" y2="-272.1389" gradientTransform="matrix(1.0267 0.2464 -0.1447 1.0392 -4429.3208 -1176.4438)">
						<stop  offset="0" style="stop-color:#53D8FF"/>
						<stop  offset="1" style="stop-color:#3840F7"/>
					</linearGradient>
					<path style="fill:url(#SVGID_00000010273077717234594500000012772448096709039767_);" d="M1200.685,874.188
						c13.204-7.621,333.095-59.686,281.472-151.424c-14.749-26.21-23.297-54.971-23.013-83.994
						c0.619-63.694-25.465-161.402-191.855-159.669c-117.091,1.219-172.15,41.462-197.692,83.382
						c-28.072,46.073-77.389,72.235-132.563,68.783c-65.542-4.1-135.794,15.724-137.48,118.864
						c-0.309,18.997-3.492,37.543-10.126,54.679c-30.776,79.507-95.945,303.583,195.89,202.199
						c10.143-3.524,19.844-8.205,28.833-13.935L1200.685,874.188z"/>
					
						<linearGradient id="SVGID_00000007414770997992048250000004315963910530533299_" gradientUnits="userSpaceOnUse" x1="5724.4585" y1="75.9966" x2="5689.9707" y2="1150.8966" gradientTransform="matrix(0.8395 0.0591 -0.2541 0.8154 -3469.6494 107.7746)">
						<stop  offset="0" style="stop-color:#53D8FF"/>
						<stop  offset="1" style="stop-color:#3840F7"/>
					</linearGradient>
					<path style="fill:url(#SVGID_00000007414770997992048250000004315963910530533299_);" d="M928.588,949.004l66.284,183.626
						c89.261-164.77,299.497-217.007,416.918-147.046l-61.94-236.393c-4.387-37.887-39.285-61.293-82.14-53.835
						c-110.89,19.297-214.592,68.537-310.755,149.189C922.178,873.711,910.252,918.005,928.588,949.004z"/>
				</g>
				<g>
					<path style="fill:#FFFFFF;" d="M663.906,1812.873c29.714,97.84,51.612,239.917,72.878,402.648h41.535l8.24-49.546
						c0.574-3.449,5.421-3.736,6.398-0.379l14.531,49.925l74.249-10.74l1.762-53.452c0.107-3.257,4.638-3.959,5.727-0.888
						l19.269,54.34h64.728l2.863-53.75c0.199-3.737,5.388-4.497,6.65-0.974l18.373,51.289l87.465-1.736
						c-28.953-194.499-62.446-362.213-106.369-468.27c-2.965-7.16-10.332-11.517-18.003-10.417
						c-97.214,13.939-194.445,38.863-291.693,74.756C665.584,1798.237,661.76,1805.807,663.906,1812.873z"/>
					
						<linearGradient id="SVGID_00000061458753967320873950000011730478167982604446_" gradientUnits="userSpaceOnUse" x1="1176.4325" y1="1435.0244" x2="470.8087" y2="2534.366">
						<stop  offset="0" style="stop-color:#53D8FF"/>
						<stop  offset="1" style="stop-color:#3840F7"/>
					</linearGradient>
					<path style="fill:url(#SVGID_00000061458753967320873950000011730478167982604446_);" d="M1037.92,1918.711
						c-6.355-28.059-12.955-54.679-19.838-79.635c-111.203,21.812-223.63,40.468-327.068,84.33
						c5.772,28.357,11.245,58.729,16.54,90.58C819.701,1985.264,928.088,1950.905,1037.92,1918.711z"/>
					
						<linearGradient id="SVGID_00000024687150146868731230000000152335307128537233_" gradientUnits="userSpaceOnUse" x1="1266.1915" y1="1492.637" x2="560.5673" y2="2591.9792">
						<stop  offset="0" style="stop-color:#53D8FF"/>
						<stop  offset="1" style="stop-color:#3840F7"/>
					</linearGradient>
					<path style="fill:url(#SVGID_00000024687150146868731230000000152335307128537233_);" d="M1057.066,2011.265
						c-111.7,32.415-224.776,59.961-335.816,91.174c1.725,11.861,3.434,23.933,5.135,36.101
						c114.218-28.329,224.776-66.249,337.311-91.22C1061.51,2035.171,1059.311,2023.066,1057.066,2011.265z"/>
				</g>
				
					<linearGradient id="SVGID_00000029047765252486056010000017043853272523604624_" gradientUnits="userSpaceOnUse" x1="1279.2875" y1="2722.4001" x2="492.9507" y2="3090.5698">
					<stop  offset="0" style="stop-color:#F9B776"/>
					<stop  offset="1" style="stop-color:#F47960"/>
				</linearGradient>
				<path style="fill:url(#SVGID_00000029047765252486056010000017043853272523604624_);" d="M1216.288,2958.919
					c0,0,116.44-67.737,109.087-71.589l31.817-67.043c-29.352-27.628-97.933-35.611-131.814-13.636
					c-19.838,12.868-89.312,40.509-107.951,63.634c0,0-140.057,6.303-242.088-165.793
					c-31.776,47.206-68.936,111.457-101.131,191.391c86.945,51.042,201.747,64.74,340.947,76.672
					C1129.662,2973.798,1203.43,2965.751,1216.288,2958.919z"/>
				
					<linearGradient id="SVGID_00000177473265292906139180000001649906758493033899_" gradientUnits="userSpaceOnUse" x1="1536.9677" y1="2889.5725" x2="1229.3759" y2="4139.1597">
					<stop  offset="0" style="stop-color:#53D8FF"/>
					<stop  offset="1" style="stop-color:#3840F7"/>
				</linearGradient>
				<path style="fill:url(#SVGID_00000177473265292906139180000001649906758493033899_);" d="M2145.881,3011.837H881.071v-53.011
					c0-2.938,2.382-5.32,5.32-5.32h1254.774c2.605,0,4.716,2.111,4.716,4.716V3011.837z"/>
				<g>
					
						<linearGradient id="SVGID_00000152984169566803692010000004779090862557891970_" gradientUnits="userSpaceOnUse" x1="416.1815" y1="5763.8438" x2="265.6072" y2="5855.0244" gradientTransform="matrix(-0.8045 -0.5939 0.5939 -0.8045 -2157.238 7684.1914)">
						<stop  offset="0" style="stop-color:#41A362"/>
						<stop  offset="1" style="stop-color:#204F2E"/>
					</linearGradient>
					<path style="fill:url(#SVGID_00000152984169566803692010000004779090862557891970_);" d="M1123.655,2855.325
						c0,0-126.749-34.782-153.414-41.62c-26.665-6.838-43.1-53.185,16.681-46.203c59.781,6.981,139.149,58.054,139.149,58.054
						L1123.655,2855.325z"/>
					
						<linearGradient id="SVGID_00000032630663968070570580000014422180568866993058_" gradientUnits="userSpaceOnUse" x1="309.3442" y1="5834.2197" x2="402.2638" y2="5913.5215" gradientTransform="matrix(-0.8045 -0.5939 0.5939 -0.8045 -2157.238 7684.1914)">
						<stop  offset="0" style="stop-color:#41A362"/>
						<stop  offset="1" style="stop-color:#204F2E"/>
					</linearGradient>
					<path style="fill:url(#SVGID_00000032630663968070570580000014422180568866993058_);" d="M1122.592,2829.367
						c0,0-103.984-42.29-131.763-55.393c-27.779-13.103-35.875-66.308,25.838-51.787c61.712,14.522,118.631,92.481,118.631,92.481
						L1122.592,2829.367z"/>
					
						<linearGradient id="SVGID_00000013888654807022724900000017129918447951898258_" gradientUnits="userSpaceOnUse" x1="57.9876" y1="5703.1626" x2="226.1529" y2="5703.1626" gradientTransform="matrix(-0.843 -0.5379 0.5379 -0.843 -1915.5884 7727.9624)">
						<stop  offset="0" style="stop-color:#41A362"/>
						<stop  offset="1" style="stop-color:#204F2E"/>
					</linearGradient>
					<path style="fill:url(#SVGID_00000013888654807022724900000017129918447951898258_);" d="M1118.02,2865.871
						c0,0-128.561,8.047-158.667-6.044c-30.107-14.092-25.475-49.697,30.554-52.931c56.029-3.234,132.807,31.418,132.807,31.418
						L1118.02,2865.871z"/>
					
						<linearGradient id="SVGID_00000109731912090928323550000008484289940457825156_" gradientUnits="userSpaceOnUse" x1="1566.7343" y1="2779.1714" x2="1036.0707" y2="2933.7109">
						<stop  offset="0" style="stop-color:#FDF53F"/>
						<stop  offset="1" style="stop-color:#D93C65"/>
					</linearGradient>
					<path style="fill:url(#SVGID_00000109731912090928323550000008484289940457825156_);" d="M1394.159,2818.824
						c-87.487-24.434-160.811-44.969-184.195-51.671c-70.369-20.166-134.27,34.604-132.468,107.769
						c1.803,73.165,55.602,97.605,153.406,96.445c28.622-0.34,89.499-3.789,161.283-8.494
						C1394.033,2914.857,1394.945,2866.84,1394.159,2818.824z"/>
					
						<linearGradient id="SVGID_00000099654169579715516210000014548920725913331087_" gradientUnits="userSpaceOnUse" x1="1274.9742" y1="2535.6357" x2="1161.3414" y2="2978.8032">
						<stop  offset="0" style="stop-color:#FDF53F"/>
						<stop  offset="1" style="stop-color:#D93C65"/>
					</linearGradient>
					<path style="fill:url(#SVGID_00000099654169579715516210000014548920725913331087_);" d="M1179.903,2957.739
						c11.034-0.878,13.193-1.115,8.324-26.181c-4.869-25.066-7.78-54.07-20.538-52.944
						C1154.932,2879.741,1164.465,2958.968,1179.903,2957.739z"/>
					
						<linearGradient id="SVGID_00000127032823728031917400000009199932780769006271_" gradientUnits="userSpaceOnUse" x1="1368.8745" y1="2521.3955" x2="1202.9703" y2="2973.6538">
						<stop  offset="0" style="stop-color:#FDF53F"/>
						<stop  offset="1" style="stop-color:#D93C65"/>
					</linearGradient>
					<path style="fill:url(#SVGID_00000127032823728031917400000009199932780769006271_);" d="M1228.771,2897.668
						c-3.487-13.73-8.787-43.546,2.663-67.962c2.861-6.1,10.212-9.258,16.947-7.306l0.011,0.003c6.21,1.8,10.108,7.438,9.335,13.501
						c-1.701,13.335-3.986,37.145-1.863,56.976c0.944,8.817-7.781,16.022-17.036,14.049l0,0
						C1233.843,2905.866,1229.948,2902.301,1228.771,2897.668z"/>
					
						<linearGradient id="SVGID_00000029029934683889853020000005391936906804024499_" gradientUnits="userSpaceOnUse" x1="1491.8645" y1="2412.3074" x2="1278.2352" y2="2996.3799">
						<stop  offset="0" style="stop-color:#FDF53F"/>
						<stop  offset="1" style="stop-color:#D93C65"/>
					</linearGradient>
					<path style="fill:url(#SVGID_00000029029934683889853020000005391936906804024499_);" d="M1307.63,2952.972l-2.559,0.031
						c-3.352,0.04-6.342-1.811-7.622-4.67c-7.445-16.633-7.952-35.499-0.227-57.013c1.257-3.501,4.929-5.782,8.844-5.431l0.27,0.024
						c5.162,0.463,8.428,5.177,6.937,9.84c-5.273,16.492-4.096,31.904,2.099,46.474
						C1317.528,2947.297,1313.531,2952.902,1307.63,2952.972z"/>
					
						<linearGradient id="SVGID_00000101794481143648192660000012139070859381809059_" gradientUnits="userSpaceOnUse" x1="1597.1512" y1="2730.1614" x2="1274.4342" y2="2975.6082">
						<stop  offset="0" style="stop-color:#FDF53F"/>
						<stop  offset="1" style="stop-color:#D93C65"/>
					</linearGradient>
					
						<ellipse style="fill:url(#SVGID_00000101794481143648192660000012139070859381809059_);" cx="1389.01" cy="2888.466" rx="28.408" ry="73.861"/>
				</g>
				
					<linearGradient id="SVGID_00000144333466180457559720000016257331219972555170_" gradientUnits="userSpaceOnUse" x1="1196.4589" y1="2832.9841" x2="1234.6764" y2="2561.6394">
					<stop  offset="0" style="stop-color:#F9B776"/>
					<stop  offset="1" style="stop-color:#F47960"/>
				</linearGradient>
				<path style="fill:url(#SVGID_00000144333466180457559720000016257331219972555170_);" d="M1104.072,2779.461
					c-0.393,33.903,37.124,60.601,96.308,83.182c40.852-16.72,75.77-51.696,99.589-69.334c4.084-3.024,3.481-8.318-1.284-10.637
					c-61.137-29.759-123.031-23.152-184.09-13.219C1108.569,2770.432,1104.129,2774.6,1104.072,2779.461z"/>
				
					<linearGradient id="SVGID_00000027574672306370931780000016657040503521053113_" gradientUnits="userSpaceOnUse" x1="-2055.9846" y1="2986.4004" x2="-2164.1409" y2="3425.783" gradientTransform="matrix(-0.9715 0.2371 -0.2371 -0.9715 336.6279 6317.8887)">
					<stop  offset="0" style="stop-color:#CB236D"/>
					<stop  offset="1" style="stop-color:#4C246D"/>
				</linearGradient>
				<path style="fill:url(#SVGID_00000027574672306370931780000016657040503521053113_);" d="M1731.872,2915.836l-52.999,15.094
					l-298.856-29.375c-10.121-0.995-11.011-15.415-1.089-17.646l225.911-50.819c16.177-3.639,114.817,5.336,130.751,9.924
					l85.207,39.608c8.4,3.498,16.001,8.715,22.245,15.334C1962.022,3024.101,1757.727,2914.05,1731.872,2915.836z"/>
				<g>
					
						<linearGradient id="SVGID_00000115484419607555558600000013559223571016435379_" gradientUnits="userSpaceOnUse" x1="1536.6405" y1="3132.0498" x2="1636.6373" y2="2870.6946">
						<stop  offset="0" style="stop-color:#FDF53F"/>
						<stop  offset="1" style="stop-color:#D93C65"/>
					</linearGradient>
					<path style="fill:url(#SVGID_00000115484419607555558600000013559223571016435379_);" d="M1706.904,2921.111
						c1.751,15.375-38.752,32.611-90.466,38.5c-51.714,5.889-95.055-1.801-96.806-17.175c-1.751-15.374,38.752-32.611,90.466-38.5
						C1661.812,2898.047,1705.153,2905.736,1706.904,2921.111z"/>
					
						<linearGradient id="SVGID_00000136385797384257035330000012690752476638188965_" gradientUnits="userSpaceOnUse" x1="1589.7848" y1="2844.1768" x2="1627.2837" y2="3048.7158">
						<stop  offset="0" style="stop-color:#FDF53F"/>
						<stop  offset="1" style="stop-color:#D93C65"/>
					</linearGradient>
					<path style="fill:url(#SVGID_00000136385797384257035330000012690752476638188965_);" d="M1697.813,2912.02
						c1.751,15.374-38.752,32.611-90.466,38.5c-51.714,5.889-95.055-1.801-96.806-17.175c-1.751-15.374,38.752-32.611,90.466-38.5
						S1696.063,2896.646,1697.813,2912.02z"/>
				</g>
				<g>
					
						<linearGradient id="SVGID_00000092416077551899058960000004765500337012686231_" gradientUnits="userSpaceOnUse" x1="1467.3245" y1="3125.2319" x2="1567.3213" y2="2863.8767">
						<stop  offset="0" style="stop-color:#FDF53F"/>
						<stop  offset="1" style="stop-color:#D93C65"/>
					</linearGradient>
					<path style="fill:url(#SVGID_00000092416077551899058960000004765500337012686231_);" d="M1637.588,2914.293
						c1.751,15.374-38.752,32.611-90.466,38.5c-51.714,5.889-95.055-1.801-96.806-17.175s38.752-32.612,90.466-38.5
						C1592.496,2891.229,1635.837,2898.918,1637.588,2914.293z"/>
					
						<linearGradient id="SVGID_00000165919310748752206350000014859879871178522791_" gradientUnits="userSpaceOnUse" x1="1520.4688" y1="2837.3586" x2="1557.9678" y2="3041.8982">
						<stop  offset="0" style="stop-color:#FDF53F"/>
						<stop  offset="1" style="stop-color:#D93C65"/>
					</linearGradient>
					<path style="fill:url(#SVGID_00000165919310748752206350000014859879871178522791_);" d="M1628.497,2905.202
						c1.751,15.374-38.752,32.611-90.466,38.5c-51.714,5.889-95.055-1.801-96.806-17.175c-1.751-15.375,38.752-32.612,90.466-38.5
						S1626.746,2889.828,1628.497,2905.202z"/>
				</g>
				
					<linearGradient id="SVGID_00000091721947779963025300000013636118645043718063_" gradientUnits="userSpaceOnUse" x1="1921.0931" y1="2485.3599" x2="1844.1906" y2="2964.2532">
					<stop  offset="0" style="stop-color:#FDF53F"/>
					<stop  offset="1" style="stop-color:#D93C65"/>
				</linearGradient>
				<path style="fill:url(#SVGID_00000091721947779963025300000013636118645043718063_);" d="M1912.445,2949.97
					c-6.287,9.375-43.84,14.616-76.516-17.376s-45.13-84.894-38.86-96.044c11.613-20.65,46.796-12.181,79.472,19.811
					C1909.218,2888.354,1925.33,2930.756,1912.445,2949.97z"/>
				<path style="fill:#FFFFFF;" d="M1017.189,1235.082l42.286,80.707c104.417,25.304,211.518,20.993,320.444-3.409l35.079-104.189
					c-0.303,158.667-8.213,272.709-28.261,315.546c-63.066,97.156-184.481,111.747-276.128,39.203
					c-17.615-13.943-46.082-39.496-52.648-60.981C1035.204,1427.503,1022.911,1336.49,1017.189,1235.082z"/>
				
					<linearGradient id="SVGID_00000135667040999603295920000016404159107132635038_" gradientUnits="userSpaceOnUse" x1="1890.9443" y1="2741.4348" x2="1837.3553" y2="2904.5061">
					<stop  offset="0" style="stop-color:#F9B776"/>
					<stop  offset="1" style="stop-color:#F47960"/>
				</linearGradient>
				<path style="fill:url(#SVGID_00000135667040999603295920000016404159107132635038_);" d="M1825.522,2833.267l-41.262,34.72
					l82.562,62.343l33.128-25.926c3.286-2.571,6.561-8.075,4.503-11.704c-17.539-30.918-43.839-56.149-71.329-65.151
					C1829.274,2826.288,1828.622,2830.659,1825.522,2833.267z"/>
				
					<linearGradient id="SVGID_00000010991256152544728340000000198114560184349868_" gradientUnits="userSpaceOnUse" x1="1942.0331" y1="2846.5847" x2="1678.1797" y2="2941.3037">
					<stop  offset="0" style="stop-color:#F9B776"/>
					<stop  offset="1" style="stop-color:#F47960"/>
				</linearGradient>
				<path style="fill:url(#SVGID_00000010991256152544728340000000198114560184349868_);" d="M1737.377,2825.141
					c-6.826,1.116-11.735,7.163-11.221,14.061l5.716,76.634c0.647,12.296,25.228,22.927,57.443,33.029
					c35.588,15.051,65.496,22.386,85.932,16.849c29.649-28.726,30.801-55.577,8.425-80.877
					C1842.507,2836.882,1794.04,2815.878,1737.377,2825.141z"/>
			</g>
		</g>
		<g>
			
				<linearGradient id="SVGID_00000031177512273564641850000016939808240156938370_" gradientUnits="userSpaceOnUse" x1="2457.1147" y1="792.3572" x2="1909.8285" y2="1375.4473">
				<stop  offset="0" style="stop-color:#CB236D"/>
				<stop  offset="1" style="stop-color:#4C246D"/>
			</linearGradient>
			<path style="fill:url(#SVGID_00000031177512273564641850000016939808240156938370_);" d="M1711.277,1163.717l64.013,104.502
				c10.538,17.203,28.008,27.553,46.732,27.685l535.743,3.785c18.769,0.133,36.029-11.408,44.719-29.899l49.848-106.074H1711.277z"
				/>
			
				<linearGradient id="SVGID_00000177461299086276457240000010611977815777941634_" gradientUnits="userSpaceOnUse" x1="2369.468" y1="1519.2932" x2="1960.3167" y2="1011.1529">
				<stop  offset="0" style="stop-color:#2B3582"/>
				<stop  offset="1" style="stop-color:#150E42"/>
			</linearGradient>
			
				<ellipse style="fill:url(#SVGID_00000177461299086276457240000010611977815777941634_);" cx="2081.804" cy="1162.032" rx="370.527" ry="25.263"/>
			
				<linearGradient id="SVGID_00000014602554424268047440000015220471614240723612_" gradientUnits="userSpaceOnUse" x1="1937.1158" y1="1450.8531" x2="1743.9689" y2="1210.9767">
				<stop  offset="0" style="stop-color:#2B3582"/>
				<stop  offset="1" style="stop-color:#150E42"/>
			</linearGradient>
			<path style="fill:url(#SVGID_00000014602554424268047440000015220471614240723612_);" d="M2027.509,1230.101l-46.01,4.602
				l-46.235-7.987l-336.098,76.951c-40.31,30.855-21.301,58.469,57.971,57.971l367.622-117.996L2027.509,1230.101z"/>
			
				<linearGradient id="SVGID_00000168809303388091608350000017483870171669016986_" gradientUnits="userSpaceOnUse" x1="1803.458" y1="1237.1284" x2="1796.649" y2="1657.5737">
				<stop  offset="0" style="stop-color:#2B3582"/>
				<stop  offset="1" style="stop-color:#150E42"/>
			</linearGradient>
			<path style="fill:url(#SVGID_00000168809303388091608350000017483870171669016986_);" d="M2027.509,1230.101l-373.189,116.161
				c-62.606,8.789-87.467-7.816-71.617-31.222c6.456-9.534,16.67-15.875,27.901-18.417l321.112-72.655L2027.509,1230.101z"/>
		</g>
		<g>
			
				<linearGradient id="SVGID_00000013151747502152628470000010291994866404976551_" gradientUnits="userSpaceOnUse" x1="2887.2583" y1="2364.7961" x2="2427.1433" y2="3084.0059">
				<stop  offset="0" style="stop-color:#53D8FF"/>
				<stop  offset="1" style="stop-color:#3840F7"/>
			</linearGradient>
			<path style="fill:url(#SVGID_00000013151747502152628470000010291994866404976551_);" d="M3090.76,2789.148
				c0,46.583-209.728,100.689-472.342,100.689s-478.668-53.051-478.668-99.635s216.054-69.059,478.668-69.059
				S3090.76,2742.565,3090.76,2789.148z"/>
			
				<linearGradient id="SVGID_00000182526991375593779650000006503168187091027858_" gradientUnits="userSpaceOnUse" x1="2686.4814" y1="2630.5188" x2="2533.0352" y2="3052.5828">
				<stop  offset="0" style="stop-color:#FDF53F"/>
				<stop  offset="1" style="stop-color:#D93C65"/>
			</linearGradient>
			<path style="fill:url(#SVGID_00000182526991375593779650000006503168187091027858_);" d="M2528.102,2705.327l173.05-64.894
				c8.68-3.255,18.409,0.639,22.447,8.983l50.307,103.968c3.457,7.144,1.808,15.71-4.052,21.061l-76.229,69.6
				c-6.329,5.779-15.861,6.274-22.754,1.182l-147.128-108.674C2512.297,2728.099,2514.778,2710.323,2528.102,2705.327z"/>
			
				<linearGradient id="SVGID_00000131331164945215664320000009693434783176853944_" gradientUnits="userSpaceOnUse" x1="2983.8254" y1="2600.9417" x2="2659.0911" y2="2974.1755">
				<stop  offset="0" style="stop-color:#FDF53F"/>
				<stop  offset="1" style="stop-color:#D93C65"/>
			</linearGradient>
			<path style="fill:url(#SVGID_00000131331164945215664320000009693434783176853944_);" d="M2916.088,2791.508l-100.776,154.924
				c-5.055,7.771-15.197,10.41-23.398,6.09l-102.188-53.829c-7.022-3.699-10.778-11.572-9.237-19.357l20.053-101.257
				c1.665-8.406,9.043-14.461,17.613-14.454l182.912,0.161C2915.295,2763.799,2923.846,2779.58,2916.088,2791.508z"/>
			
				<linearGradient id="SVGID_00000060020213133407124300000017050148881801823889_" gradientUnits="userSpaceOnUse" x1="2907.3823" y1="2518.0295" x2="2506.7358" y2="2935.5457">
				<stop  offset="0" style="stop-color:#FDF53F"/>
				<stop  offset="1" style="stop-color:#D93C65"/>
			</linearGradient>
			<path style="fill:url(#SVGID_00000060020213133407124300000017050148881801823889_);" d="M2588.298,2744.659l121.767,64.413
				c6.107,3.231,6.702,11.072,1.372,18.09l-66.414,87.443c-4.563,6.009-12.311,9.842-19.049,9.424l-87.634-5.429
				c-7.276-0.451-11.43-5.721-9.918-12.582l32.281-146.427C2563.214,2748.2,2578.923,2739.7,2588.298,2744.659z"/>
			
				<linearGradient id="SVGID_00000113341855679964322500000013400978983867483023_" gradientUnits="userSpaceOnUse" x1="2340.8596" y1="2652.0637" x2="2106.7983" y2="3002.1018">
				<stop  offset="0" style="stop-color:#FDF53F"/>
				<stop  offset="1" style="stop-color:#D93C65"/>
			</linearGradient>
			<path style="fill:url(#SVGID_00000113341855679964322500000013400978983867483023_);" d="M2393.138,2740.9l-100.776,154.924
				c-5.055,7.77-15.197,10.41-23.398,6.09l-102.188-53.829c-7.022-3.699-10.779-11.572-9.237-19.357l20.053-101.256
				c1.665-8.407,9.043-14.462,17.613-14.454l182.911,0.161C2392.345,2713.191,2400.896,2728.972,2393.138,2740.9z"/>
			<g>
				
					<linearGradient id="SVGID_00000173854145007457196160000008248729180017318075_" gradientUnits="userSpaceOnUse" x1="2910.0103" y1="3583.9224" x2="2925.0898" y2="3733.2102" gradientTransform="matrix(0.958 -0.2868 0.2868 0.958 -895.9679 143.7209)">
					<stop  offset="0" style="stop-color:#41A362"/>
					<stop  offset="1" style="stop-color:#204F2E"/>
				</linearGradient>
				<path style="fill:url(#SVGID_00000173854145007457196160000008248729180017318075_);" d="M3024.361,2832.817
					c-0.589-1.628-1.299-3.188-2.252-4.637c-0.955-1.453-2.209-2.768-2.998-4.324c-0.732-1.443-0.501-2.942-0.337-4.498
					c0.186-1.769,0.245-3.452-0.006-5.222c-0.497-3.512-2.244-6.697-4.403-9.457c-3.983-5.091-10.021-8.755-16.173-10.58
					c-2.958-0.877-6.091-1.387-9.178-1.421c-3.37-0.037-6.999,0.919-10.305,0.016c-2.968-0.811-5.522-2.775-8.342-3.966
					c-3.171-1.34-6.549-1.504-9.903-0.815c-3.294,0.677-6.376,2.129-9.679,2.773c-2.871,0.56-5.454-0.288-8.124-1.282
					c-5.868-2.184-11.627-3.924-17.217,0.02c-2.583,1.822-4.625,4.441-7.838,5.11c-3.358,0.698-6.501,0.998-9.705,2.341
					c-11.481,4.813-18.418,17.328-17.128,29.527c0.078,0.741,0.465,1.369,1.009,1.846c-0.228,0.464-0.442,0.935-0.626,1.421
					c-2.086,5.482-1.32,11.818,1.633,16.824c3.414,5.787,8.788,9.407,14.687,12.299c1.442,0.707,3.024,1.455,4.023,2.761
					c1.012,1.323,1.285,3.114,1.544,4.712c0.545,3.37,0.907,6.716,2.905,9.599c1.848,2.667,4.511,4.586,7.288,6.197
					c3.357,1.946,6.804,3.749,10.207,5.615c3.417,1.873,6.826,3.76,10.251,5.617c2.903,1.573,5.95,3.098,9.206,3.764
					c3.48,0.712,6.798,0.368,10.005-1.198c1.694-0.827,3.316-2.099,5.172-2.537c1.642-0.387,3.383-0.076,5.035,0.106
					c6.919,0.764,13.615-0.99,19.114-5.316c2.274-1.789,4.013-5.155,6.661-6.336c1.606-0.716,3.6-0.524,5.312-0.833
					c1.563-0.282,3.084-0.813,4.535-1.452c6.725-2.966,9.864-9.12,12.269-15.669c2.445-6.656,4.689-13.658,4.872-20.808
					C3025.964,2839.558,3025.54,2836.074,3024.361,2832.817z"/>
				
					<linearGradient id="SVGID_00000081613486642768857880000018392846194796469946_" gradientUnits="userSpaceOnUse" x1="2871.1699" y1="3366.759" x2="2814.4243" y2="3575.4683" gradientTransform="matrix(0.958 -0.2868 0.2868 0.958 -895.9679 143.7209)">
					<stop  offset="0" style="stop-color:#41A362"/>
					<stop  offset="1" style="stop-color:#204F2E"/>
				</linearGradient>
				<path style="fill:url(#SVGID_00000081613486642768857880000018392846194796469946_);" d="M2769.38,2684.373
					c-2.625,14.196,4.533,27.287,12.764,38.245c4.773,6.354,10.207,11.593,18.487,12.321c6.838,0.602,14.099,0.118,20.855-1.037
					c13.706-2.344,27.32-8.943,35.204-20.812c2.045-3.079,3.766-6.425,4.824-9.973c0.144-0.482,0.344-1.057,0.458-1.583
					c1.204,0.112,3.152,0.047,3.25,0.043c5.026-0.192,9.016-2.925,11.449-6.865c1.339-0.617,2.373-2.091,1.825-3.881
					c-0.008-0.027-0.017-0.054-0.025-0.081c0.115-0.37,0.22-0.744,0.312-1.124c0.486-2.02-0.656-4.032-2.299-5.254
					c-2.63-8.131-5.781-16.064-11.486-22.651c-3.2-3.696-6.929-6.615-11.2-8.978c-4.241-2.346-8.855-4.052-12.875-6.785
					c-4.361-2.966-6.651-7.676-10.595-11.07c-2.975-2.56-6.927-4.042-10.838-4.228c-8.268-0.394-16.507,3.814-20.976,10.798
					c-3.893,6.083-5.289,13.135-5.136,20.219C2781.384,2662.068,2771.547,2672.652,2769.38,2684.373z"/>
				
					<linearGradient id="SVGID_00000091722727785560480730000004260814255152043412_" gradientUnits="userSpaceOnUse" x1="2897.0303" y1="3459.0422" x2="3074.1467" y2="3834.6851" gradientTransform="matrix(0.958 -0.2868 0.2868 0.958 -895.9679 143.7209)">
					<stop  offset="0" style="stop-color:#41A362"/>
					<stop  offset="1" style="stop-color:#204F2E"/>
				</linearGradient>
				<path style="fill:url(#SVGID_00000091722727785560480730000004260814255152043412_);" d="M2931.568,2800.59
					c2.872,10.728,9.918,19.632,20.073,24.277c7.134,3.263,15.263,4.187,22.616,1.82c4.915,9.659,13.503,17.315,24.179,20.208
					c12.032,3.261,24.938,0.414,34.698-7.223c4.985-3.901,9.192-7.482,15.173-9.818c5.436-2.123,11.101-3.725,16.303-6.413
					c10.25-5.296,17.203-15.516,16.328-27.315c-0.69-9.301-6.169-17.371-14.09-21.671c9.986-18.066,6.375-41.915-11.215-54.558
					c-7.956-5.719-18.235-8.347-28.034-7.507c-9.965-7.054-22.021-10.893-34.001-5.795c-9.184,3.908-14.501,13.301-14.024,22.651
					c-9.087-0.472-18.34,2.774-25.624,8.269C2936.134,2750.957,2925.755,2778.876,2931.568,2800.59z"/>
				
					<linearGradient id="SVGID_00000026868158768756198920000016237088516296500662_" gradientUnits="userSpaceOnUse" x1="2896.0134" y1="3629.9839" x2="2782.0854" y2="3518.6333" gradientTransform="matrix(0.958 -0.2868 0.2868 0.958 -895.9679 143.7209)">
					<stop  offset="0" style="stop-color:#41A362"/>
					<stop  offset="1" style="stop-color:#204F2E"/>
				</linearGradient>
				<path style="fill:url(#SVGID_00000026868158768756198920000016237088516296500662_);" d="M2776.25,2788.9
					c5.137,9.215,13.694,15.78,24.127,17.7c7.329,1.349,15.031,0.312,21.254-3.576c6.77,7.756,16.459,12.813,26.964,12.999
					c11.84,0.209,23.066-5.41,30.283-14.711c3.686-4.75,6.729-9.026,11.695-12.567c4.514-3.218,9.36-6.009,13.528-9.693
					c8.211-7.259,12.242-18.286,8.696-28.951c-2.795-8.406-9.716-14.568-18.011-16.689c5.002-18.96-3.863-40.087-23-47.648
					c-8.656-3.42-18.734-3.454-27.565-0.404c-10.817-4.183-22.813-4.919-32.664,2.559c-7.552,5.733-10.267,15.619-7.657,24.12
					c-8.479,1.676-16.249,6.815-21.681,13.567C2768.929,2742.123,2765.853,2770.249,2776.25,2788.9z"/>
				<g>
					
						<linearGradient id="SVGID_00000026847717767863397150000016760075762626136746_" gradientUnits="userSpaceOnUse" x1="3000.4883" y1="3499.6279" x2="2830.4355" y2="3630.8416" gradientTransform="matrix(0.958 -0.2868 0.2868 0.958 -895.9679 143.7209)">
						<stop  offset="0" style="stop-color:#41A362"/>
						<stop  offset="1" style="stop-color:#204F2E"/>
					</linearGradient>
					<path style="fill:url(#SVGID_00000026847717767863397150000016760075762626136746_);" d="M2847.9,2830.272
						c5.559,8.37,15.623,15.374,24.576,14.584c6,7.598,11.563,7.566,19.837,11.952c15.298,8.111,26.787,11.225,39.453,3.855
						c11.666-6.789,14.701-27.043,21.818-29.879s31.857-3.263,41.279-5.569c21.372-5.23,35.741-20.63,41.151-41.859
						c4.253-16.69-7.352-33.52-7.938-38.04c-0.586-4.52,18.862-26.693,20.953-40.931c2.206-15.017-2.598-33.238-15.034-45.186
						c-6.157-5.915-14.938-9.49-22.599-11.994c-2.16-0.706-4.278-1.125-6.439-1.689c-1.827-0.477-1.96-1.116-2.557-2.918
						c-1.425-4.298-3.219-8.533-5.572-12.565c-9.447-16.185-23.954-27.427-40.989-30.578c-14.624-2.704-30.726,2.905-37.383,5.09
						c-6.657,2.185-14.67-10.345-32.332-7.092c-17.662,3.253-19.862,17.344-26.838,19.634c-33.106-0.281-47.528,22.086-52.085,37.87
						c-5.709,19.775,3.319,28.008,4.031,31.552c-0.168,6.856-10.821,12.113-14.902,15.943c-9.481,8.896-9.817,26.622-2.416,41.129
						c5.112,10.021,15.052,15.485,17.688,20.78s-2.675,22.852,4.315,33.592c6.631,10.188,21.666,18.3,27.224,20.33
						C2848.702,2820.313,2845.388,2826.488,2847.9,2830.272z"/>
				</g>
				
					<linearGradient id="SVGID_00000104708272478885881410000015070409425443020184_" gradientUnits="userSpaceOnUse" x1="2680.821" y1="4310.7524" x2="2538.0845" y2="4475.751" gradientTransform="matrix(0.8849 -0.4657 0.4657 0.8849 -1490.0721 112.5819)">
					<stop  offset="0" style="stop-color:#41A362"/>
					<stop  offset="1" style="stop-color:#204F2E"/>
				</linearGradient>
				<path style="fill:url(#SVGID_00000104708272478885881410000015070409425443020184_);" d="M2934.699,2824.328
					c-67.131,33.698-141.559,168.968-141.559,168.968l-46.238-44.766c90.971-68.307,64.254-132.245,69.701-155.527
					c1.329-5.68,8.602-8.455,9.752,2.089c4.185,38.361,2.147,63.026,2.147,63.026c32.523-40.776,40.216-72.314,48.473-108.014
					c0,0,6.306-7.775,7.253,2.891c0.5,5.637-1.87,27.522-10.556,50.559c22.708-21.867,24.759-44.764,32.217-50.319
					c2.535-1.888,8.079-0.021,8.079-0.021s-21.175,58.486-67.882,116.715c0,0,50.167-55.707,73.802-65.699
					c4.407-1.793,6.356,2.059,1.98,7.485c0,0-11.751,8.936-26.154,25.388c21.782-11.985,25.676-15.154,33.308-19.171
					S2938.953,2818.916,2934.699,2824.328z"/>
				
					<linearGradient id="SVGID_00000120561326775322833320000015497624978599693982_" gradientUnits="userSpaceOnUse" x1="2768.4419" y1="3442.8499" x2="2961.5173" y2="3661.8848" gradientTransform="matrix(0.958 -0.2868 0.2868 0.958 -895.9679 143.7209)">
					<stop  offset="0" style="stop-color:#41A362"/>
					<stop  offset="1" style="stop-color:#204F2E"/>
				</linearGradient>
				<path style="fill:url(#SVGID_00000120561326775322833320000015497624978599693982_);" d="M2797.874,2743.428
					c4.266,4.006,9.305,7.724,15.051,9.237c2.992,0.788,6.096,1.029,9.157,0.518c1.634-0.273,3.194-0.823,4.719-1.461
					c1.607-0.673,3.543-2.109,5.305-2.238c3.054-0.223,6.494,1.759,9.65,1.935c2.748,0.154,5.623-0.175,8.267-0.939
					c6.178-1.786,11.654-5.583,15.311-10.898c1.829-2.657,2.788-5.605,3.706-8.655c0.964-3.204,3.957-3.022,6.574-4.664
					c6.307-3.956,8.948-11.481,9.935-18.51c1.384-9.844-1.177-22.972-10.052-28.501c1.435-7.061-3.138-14.615-9.733-17.852
					c-2.661-1.307-5.538-2.152-8.512-2.646c-2.464-4.321-6.666-7.503-12.004-8.207c-5.793-0.764-11.658,1.913-15.271,6.382
					c-15.696-7.165-34.881-4.311-47.259,8.321c-6.705,6.842-11.557,16.25-11.925,25.944c-0.301,7.921,3.469,15.713,10.381,18.884
					C2780.286,2722.737,2788.987,2735.083,2797.874,2743.428z"/>
				
					<linearGradient id="SVGID_00000142873935170919693120000015148465733306087589_" gradientUnits="userSpaceOnUse" x1="2959.7588" y1="3565.802" x2="3048.614" y2="3964.1174" gradientTransform="matrix(0.958 -0.2868 0.2868 0.958 -895.9679 143.7209)">
					<stop  offset="0" style="stop-color:#41A362"/>
					<stop  offset="1" style="stop-color:#204F2E"/>
				</linearGradient>
				<path style="fill:url(#SVGID_00000142873935170919693120000015148465733306087589_);" d="M2965.005,2735.447
					c-1.322,1.484-2.508,3.053-3.45,4.806c-0.945,1.758-1.587,3.741-2.727,5.387c-1.056,1.527-2.695,2.113-4.355,2.798
					c-1.887,0.779-3.618,1.639-5.268,2.859c-3.273,2.42-5.533,5.923-7.139,9.61c-2.963,6.801-3.363,14.896-1.845,22.102
					c0.73,3.465,1.927,6.905,3.579,10.04c1.803,3.421,4.751,6.562,5.645,10.392c0.802,3.439,0.215,7.089,0.553,10.586
					c0.38,3.932,2.059,7.431,4.587,10.44c2.483,2.955,5.631,5.272,8.086,8.254c2.133,2.592,2.688,5.662,3.143,8.9
					c1.001,7.116,2.391,13.879,9.424,17.366c3.25,1.612,7.009,2.242,9.439,5.12c2.539,3.007,4.558,6.017,7.664,8.517
					c11.129,8.959,27.549,9.124,39.158,1.159c0.705-0.484,1.128-1.217,1.313-2.027c0.592-0.023,1.185-0.065,1.777-0.144
					c6.672-0.889,12.648-5.123,16.088-10.838c3.976-6.606,4.695-14.008,4.391-21.542c-0.074-1.842-0.184-3.846,0.589-5.569
					c0.783-1.745,2.44-2.998,3.913-4.132c3.104-2.392,6.282-4.584,8.102-8.176c1.682-3.322,2.165-7.058,2.273-10.741
					c0.131-4.452,0.068-8.915,0.091-13.368c0.024-4.471,0.067-8.943,0.07-13.415c0.003-3.79-0.123-7.698-1.229-11.348
					c-1.182-3.901-3.342-7.063-6.674-9.444c-1.761-1.258-3.93-2.2-5.385-3.834c-1.288-1.446-1.924-3.373-2.643-5.14
					c-3.008-7.401-8.436-13.201-15.807-16.388c-3.048-1.318-7.395-1.235-10.034-3.262c-1.6-1.23-2.496-3.347-3.742-4.906
					c-1.138-1.423-2.505-2.67-3.943-3.784c-6.667-5.167-14.593-4.973-22.517-3.824c-8.053,1.168-16.346,2.727-23.662,6.448
					C2970.932,2730.147,2967.648,2732.478,2965.005,2735.447z"/>
				
					<linearGradient id="SVGID_00000140725363359085700880000011974961540960477610_" gradientUnits="userSpaceOnUse" x1="2942.6528" y1="3517.1082" x2="2791.9424" y2="3684.1118" gradientTransform="matrix(0.958 -0.2868 0.2868 0.958 -895.9679 143.7209)">
					<stop  offset="0" style="stop-color:#41A362"/>
					<stop  offset="1" style="stop-color:#204F2E"/>
				</linearGradient>
				<path style="fill:url(#SVGID_00000140725363359085700880000011974961540960477610_);" d="M2853.244,2652.424
					c-6.263,9.628-8.237,21.203-4.786,32.225c2.425,7.743,7.336,14.633,14.242,18.65c-4.028,10.459-3.976,22.358,1.182,32.568
					c5.813,11.508,16.928,19.462,29.551,21.686c6.447,1.136,12.11,1.894,18.043,4.877c5.392,2.712,10.541,5.96,16.206,8.102
					c11.161,4.219,23.828,2.498,32.296-6.335c6.675-6.962,9.091-16.757,6.92-25.822c20.798-4.815,36.639-24.085,34.197-46.355
					c-1.105-10.073-6.192-19.794-13.615-26.749c-1.467-12.541-6.853-24.467-19.058-30.153c-9.357-4.36-20.257-1.952-27.117,4.88
					c-5.921-7.314-14.817-12.184-24.079-13.985C2894.568,2621.61,2865.922,2632.937,2853.244,2652.424z"/>
				
					<linearGradient id="SVGID_00000092439892313973240370000013905921334593755029_" gradientUnits="userSpaceOnUse" x1="2438.1968" y1="4458.7036" x2="2436.0164" y2="4594.4385" gradientTransform="matrix(0.8849 -0.4657 0.4657 0.8849 -1490.0721 112.5819)">
					<stop  offset="0" style="stop-color:#41A362"/>
					<stop  offset="1" style="stop-color:#204F2E"/>
				</linearGradient>
				<path style="fill:url(#SVGID_00000092439892313973240370000013905921334593755029_);" d="M2746.903,2948.531
					c8.814-4.638,51.897,26.533,46.238,44.766C2787.482,3011.528,2729.505,2957.686,2746.903,2948.531z"/>
			</g>
			<g>
				<g>
					
						<linearGradient id="SVGID_00000125583058711556805970000016068380588480509369_" gradientUnits="userSpaceOnUse" x1="-1403.2642" y1="4371.4976" x2="-1558.4094" y2="4796.6655" gradientTransform="matrix(-0.9359 -0.3523 0.3523 -0.9359 -509.1968 6557.2427)">
						<stop  offset="0" style="stop-color:#41A362"/>
						<stop  offset="1" style="stop-color:#204F2E"/>
					</linearGradient>
					<path style="fill:url(#SVGID_00000125583058711556805970000016068380588480509369_);" d="M2495.455,2920.677
						c-26.134-19.608-54.584-36.079-84.954-48.248c-15.085-6.044-30.507-11.253-46.183-15.543
						c-7.263-1.988-14.579-3.774-21.928-5.416c-8.307-1.855-17.479-5.011-25.834-2.671c-7.829,2.193-12.352,13.13-4.316,18.422
						c11.937,7.862,30.281,7.515,44.133,10.767c15.212,3.571,30.224,8.058,44.943,13.296c29.96,10.662,59.014,23.892,86.567,39.795
						C2494.912,2935.136,2502.219,2925.751,2495.455,2920.677L2495.455,2920.677z"/>
					
						<linearGradient id="SVGID_00000176728658110812979040000014671140553693651877_" gradientUnits="userSpaceOnUse" x1="-1369.5903" y1="4383.7578" x2="-1524.77" y2="4809.0205" gradientTransform="matrix(-0.9359 -0.3523 0.3523 -0.9359 -509.1968 6557.2427)">
						<stop  offset="0" style="stop-color:#41A362"/>
						<stop  offset="1" style="stop-color:#204F2E"/>
					</linearGradient>
					<path style="fill:url(#SVGID_00000176728658110812979040000014671140553693651877_);" d="M2528.938,3003.713
						c-6.431-33.452-21.206-66.196-35.473-96.931c-15.114-32.559-33.072-63.862-52.201-94.211
						c-19.1-30.303-40.059-59.423-62.378-87.434c-11.058-13.877-22.465-27.475-34.207-40.778
						c-5.82-6.594-11.72-13.115-17.702-19.562c-6.002-6.467-11.913-14.285-19.738-18.551c-7.548-4.115-19.335,2.214-14.417,11.744
						c7.519,14.571,22.972,26.447,33.979,38.609c11.906,13.154,23.484,26.606,34.711,40.344
						c21.895,26.792,42.404,54.686,61.619,83.458c19.435,29.1,36.859,59.317,53.174,90.258c16.43,31.159,28.958,64.094,44.87,95.432
						C2523.214,3010.108,2529.847,3008.446,2528.938,3003.713L2528.938,3003.713z"/>
					
						<linearGradient id="SVGID_00000155852441797436156700000011577685735934780549_" gradientUnits="userSpaceOnUse" x1="-1499.9476" y1="4336.1968" x2="-1655.1152" y2="4761.4258" gradientTransform="matrix(-0.9359 -0.3523 0.3523 -0.9359 -509.1968 6557.2427)">
						<stop  offset="0" style="stop-color:#41A362"/>
						<stop  offset="1" style="stop-color:#204F2E"/>
					</linearGradient>
					<path style="fill:url(#SVGID_00000155852441797436156700000011577685735934780549_);" d="M2526.947,3007.277
						c2.947-4.95,1.951-12.728,1.918-18.254c-0.09-14.573,0.261-29.05-0.647-43.615c-1.099-17.622-3.312-35.435-6.746-52.755
						c-2.727-13.753-5.331-36.934-17.063-46.067c-6.595-5.134-18.249-0.531-18.325,8.301c-0.067,7.767,4.067,14.324,6.698,21.477
						c2.72,7.396,4.856,14.967,6.785,22.603c4.245,16.806,7.302,33.781,10.514,50.801c2.543,13.471,5.533,26.921,7.494,40.49
						c0.757,5.24,0.764,12.739,4.016,17.16C2522.801,3009.062,2525.853,3009.116,2526.947,3007.277L2526.947,3007.277z"/>
					
						<linearGradient id="SVGID_00000169537363248881906030000009673068134197475743_" gradientUnits="userSpaceOnUse" x1="-1448.0715" y1="4346.1953" x2="-1448.0715" y2="4636.5034" gradientTransform="matrix(-0.9534 -0.3016 0.3016 -0.9534 -443.5883 6577.8794)">
						<stop  offset="0" style="stop-color:#41A362"/>
						<stop  offset="1" style="stop-color:#204F2E"/>
					</linearGradient>
					<path style="fill:url(#SVGID_00000169537363248881906030000009673068134197475743_);" d="M2255.979,2689.323
						c12.039,3.717,32.248,56.308,43.196,78.223c-3.207-8.745-9.033-50.072-0.266-55.815s13.354,12.108,21.733,12.395
						c8.379,0.287,2.556-25.778,13.091-19.31c10.535,6.467,6.887,20.035,12.177,25.527c5.29,5.492,6.005-16.998,16.359-9.051
						c10.354,7.947-5.675,34.791,2.565,35.554c8.241,0.763,8.525-16.501,15.358-8.688c6.833,7.814-22.702,131.174-29.918,129.378
						c-17.208-4.284-45.415,10.544-60.681,19.565c-15.267,9.021-27.802,21.945-39.752,35.046c-3.112,3.411-7.186,7.176-11.669,6.072
						c-4.049-0.997-6.163-5.814-5.605-9.947c0.558-4.133,6.789-8.853,0.22-9.965c-6.569-1.112-14.013,2.583-23.656,4.439
						c-1.765,0.34-3.673,0.663-5.294-0.113c-4.591-2.197-1.746-9.469,2.516-12.252c4.261-2.783,12.961-6.783,13.649-11.826
						c-3.129-3.552-13.938-1.879-18.67-1.739c-4.732,0.14-10.101-3.869-10.698-8.565c-1.109-8.717,24.8-19.232,24.03-26.132
						c-0.77-6.899-26.624,1.045-18.136-16.583c9.19-19.085,24.463-13.91,77.267-7.332c1.437,0.124,2.845,0.336,4.246,0.567
						c-26.602-15.119-41.118-25.666-68.172-39.037c-4.557-2.252-22-11.177-20.308-22.732c1.692-11.555,21.709,5.197,18.99-2.712
						c-3.997-11.627-24.535-14.73-22.53-26.894s16.864-0.568,17.325-5.932s-15.208-18.833-12.767-29.065s20.523,0.507,26.993-1.928
						c6.47-2.435-5.341-17.588-4.517-20.941c1.522-6.193,6.697-6.967,12.71-4.843c6.014,2.124,12,11.765,19.251,16.432
						C2252.266,2705.787,2243.94,2685.607,2255.979,2689.323z"/>
					
						<linearGradient id="SVGID_00000078003980922681062050000009602585697851492998_" gradientUnits="userSpaceOnUse" x1="-1356.1288" y1="4688.9956" x2="-1105.873" y2="4688.9956" gradientTransform="matrix(-0.9033 -0.4291 0.4291 -0.9033 -606.9508 6508.8643)">
						<stop  offset="0" style="stop-color:#41A362"/>
						<stop  offset="1" style="stop-color:#204F2E"/>
					</linearGradient>
					<path style="fill:url(#SVGID_00000078003980922681062050000009602585697851492998_);" d="M2425.632,2713.61
						c-4.871,11.62,22.514,60.857,32.305,83.313c-4.652-8.07-32.621-39.047-42.651-36.005c-10.03,3.042,0.723,18.011-4.431,24.624
						c-5.154,6.612-21.416-14.573-23.212-2.343s10.954,18.134,11.774,25.715c0.82,7.581-16.892-6.296-17.437,6.745
						c-0.544,13.041,30.332,17.961,25.632,24.773c-4.7,6.812-18.128-4.044-16.516,6.21c1.612,10.254,52.595,20.346,88.32,33.794
						c25.797,9.71,40.786,31.9,44.036,25.212c7.75-15.949,23.311-27.052,40.024-32.979c16.714-5.926,34.668-7.253,52.385-8.019
						c4.613-0.199,10.114-0.91,12.143-5.057c1.832-3.746-0.507-8.458-4.036-10.68c-3.529-2.223-11.147-0.47-7.786-6.223
						c3.36-5.753,10.97-9.094,18.579-15.302c1.393-1.136,2.865-2.393,3.31-4.134c1.26-4.931-6.145-7.413-11.013-5.929
						c-4.868,1.484-13.517,5.593-17.828,2.886c-0.718-4.679,7.499-11.898,10.641-15.439c3.143-3.541,3.511-10.231,0.291-13.702
						c-5.976-6.442-30.662,6.69-35.461,1.675c-4.8-5.016,17.879-19.755-1.09-24.55c-20.537-5.191-26.363,9.846-55.186,54.576
						c-0.827,1.182-1.567,2.398-2.289,3.621c5.463-30.107,6.683-48.008,13.778-77.34c1.195-4.94,5.536-24.048-4.414-30.161
						c-9.95-6.113-9.938,19.989-14.262,12.83c-6.356-10.524,4.437-28.271-6.182-34.535s-11.252,12.574-15.664,9.487
						c-4.411-3.087-4.694-23.747-14.109-28.438c-9.416-4.691-12.775,16.071-18.793,19.472c-6.018,3.402-10.067-15.378-13.168-16.897
						c-5.728-2.805-9.641,0.668-11.868,6.644c-2.227,5.976,1.329,16.753,0.259,25.309S2430.503,2701.99,2425.632,2713.61z"/>
					
						<linearGradient id="SVGID_00000032614195031914314080000015025930392473413028_" gradientUnits="userSpaceOnUse" x1="3544.77" y1="2277.3533" x2="3383.9749" y2="2438.1484" gradientTransform="matrix(0.839 -0.5442 -0.5442 -0.839 645.1859 6431.71)">
						<stop  offset="0" style="stop-color:#41A362"/>
						<stop  offset="1" style="stop-color:#204F2E"/>
					</linearGradient>
					<path style="fill:url(#SVGID_00000032614195031914314080000015025930392473413028_);" d="M2392.321,2494.074
						c7.241,10.311-8.991,64.262-13.758,88.291c2.82-8.877,23.524-45.115,33.973-44.287s3.142,17.75,9.59,23.108
						c6.448,5.358,17.808-18.813,22.175-7.248c4.367,11.564-6.826,20.056-6.007,27.637c0.818,7.581,15.156-9.76,18.475,2.864
						c3.318,12.624-25.793,24.028-19.746,29.677c6.047,5.65,16.845-7.824,17.461,2.538c0.617,10.362-47.033,31.115-79.059,51.885
						c-23.126,14.998-33.028,39.878-37.632,34.039c-10.979-13.925-28.552-21.447-46.146-23.665
						c-17.594-2.218-35.417,0.322-52.889,3.36c-4.549,0.791-10.075,1.272-12.943-2.346c-2.591-3.268-1.312-8.371,1.661-11.296
						c2.972-2.925,10.789-2.841,6.277-7.743s-12.66-6.54-21.42-10.979c-1.603-0.813-3.31-1.726-4.116-3.331
						c-2.284-4.548,4.419-8.555,9.492-8.146c5.073,0.41,14.4,2.575,18.033-0.99c-0.298-4.725-9.868-10.021-13.694-12.809
						c-3.827-2.787-5.615-9.244-3.212-13.323c4.462-7.57,31.383-0.016,35-5.941c3.617-5.926-21.687-15.479-4.181-24.216
						c18.953-9.459,27.858,3.986,65.572,41.524c1.061,0.978,2.043,2.008,3.01,3.048c-11.77-28.244-16.787-45.471-29.985-72.61
						c-2.223-4.571-10.547-22.309-2.133-30.407c8.414-8.098,13.979,17.404,16.673,9.486c3.961-11.639-10.375-26.67-1.34-35.058
						s13.679,9.879,17.329,5.921c3.65-3.958-0.489-24.202,7.707-30.796c8.196-6.594,15.914,12.97,22.52,15.007
						c6.605,2.037,6.549-17.175,9.254-19.321c4.996-3.964,9.561-1.407,13.013,3.955c3.453,5.362,2.282,16.65,5.155,24.779
						C2379.303,2504.815,2385.08,2483.763,2392.321,2494.074z"/>
				</g>
				<g>
					<path style="fill:#FFFFFF;" d="M2509.884,2880.691c-1.336,0-2.596-0.816-3.102-2.137
						c-28.409-74.341-25.907-110.378-25.787-111.877c0.145-1.82,1.779-3.154,3.569-3.039c1.826,0.142,3.19,1.741,3.05,3.567
						c-0.026,0.353-2.404,36.298,25.371,108.977c0.656,1.714-0.203,3.633-1.916,4.287
						C2510.679,2880.618,2510.278,2880.691,2509.884,2880.691z"/>
					<path style="fill:#FFFFFF;" d="M2509.884,2880.688c-0.837,0-1.673-0.314-2.32-0.945c-1.311-1.281-1.336-3.382-0.056-4.693
						c1.25-1.281,30.864-31.446,54.375-40.724c1.714-0.674,3.636,0.168,4.307,1.87c0.674,1.704-0.163,3.633-1.869,4.307
						c-22.185,8.752-51.764,38.881-52.059,39.185C2511.609,2880.354,2510.746,2880.688,2509.884,2880.688z"/>
					<path style="fill:#FFFFFF;" d="M2509.882,2880.688c-0.804,0-1.61-0.291-2.249-0.878c-0.302-0.278-30.571-28.005-57.486-38.531
						c-1.708-0.667-2.551-2.593-1.884-4.301c0.669-1.711,2.59-2.56,4.302-1.883c28.092,10.982,58.299,38.66,59.57,39.832
						c1.347,1.242,1.433,3.343,0.19,4.69C2511.67,2880.328,2510.779,2880.688,2509.882,2880.688z"/>
					<path style="fill:#FFFFFF;" d="M2340.008,2671.172c-0.23,0-0.462-0.026-0.697-0.076c-1.793-0.383-2.936-2.147-2.553-3.94
						c16.314-76.368,8.376-111.237,8.295-111.58c-0.428-1.784,0.672-3.577,2.456-4.003c1.785-0.439,3.577,0.677,4.001,2.457
						c0.35,1.463,8.37,36.685-8.259,114.513C2342.918,2670.102,2341.541,2671.172,2340.008,2671.172z"/>
					<path style="fill:#FFFFFF;" d="M2340.002,2671.168c-0.692,0-1.391-0.215-1.987-0.661c-0.34-0.254-34.204-25.471-57.471-30.707
						c-1.79-0.403-2.913-2.18-2.512-3.97c0.403-1.787,2.177-2.93,3.968-2.51c24.657,5.549,58.564,30.799,59.995,31.869
						c1.468,1.1,1.767,3.181,0.667,4.651C2342.01,2670.709,2341.012,2671.168,2340.002,2671.168z"/>
					<path style="fill:#FFFFFF;" d="M2340.003,2671.168c-0.725,0-1.453-0.235-2.064-0.72c-1.435-1.14-1.675-3.23-0.533-4.664
						c1.077-1.358,26.662-33.352,52.728-48.529c1.594-0.915,3.62-0.386,4.542,1.199c0.921,1.585,0.385,3.616-1.199,4.541
						c-24.976,14.539-50.616,46.597-50.872,46.917C2341.948,2670.739,2340.981,2671.168,2340.003,2671.168z"/>
					<path style="fill:#FFFFFF;" d="M2340.008,2857.872c-0.363,0-0.733-0.063-1.097-0.188
						c-75.972-26.575-97.819-94.273-98.03-94.954c-0.545-1.75,0.433-3.61,2.181-4.155c1.754-0.548,3.612,0.433,4.158,2.18
						c0.203,0.647,21.165,65.225,93.884,90.66c1.731,0.604,2.642,2.5,2.038,4.231
						C2342.664,2857.013,2341.381,2857.872,2340.008,2857.872z"/>
					<path style="fill:#FFFFFF;" d="M2340.005,2857.868c-1.691,0-3.136-1.285-3.301-3.002c-0.172-1.78-4.1-43.868,3.985-67.814
						c0.586-1.737,2.469-2.665,4.208-2.081c1.737,0.585,2.67,2.471,2.084,4.208c-7.636,22.611-3.708,64.63-3.668,65.053
						c0.177,1.823-1.161,3.448-2.986,3.623C2340.218,2857.865,2340.111,2857.868,2340.005,2857.868z"/>
					<path style="fill:#FFFFFF;" d="M2272.308,2877.289c-1.179,0-2.322-0.628-2.923-1.737c-0.874-1.612-0.274-3.627,1.338-4.502
						c26.52-14.371,67.157-19.583,68.873-19.797c1.807-0.191,3.481,1.067,3.708,2.884c0.228,1.82-1.063,3.478-2.882,3.709
						c-0.408,0.05-41.124,5.275-66.534,19.044C2273.383,2877.16,2272.842,2877.289,2272.308,2877.289z"/>
				</g>
			</g>
			
				<linearGradient id="SVGID_00000154386791100656287230000004088909661441561739_" gradientUnits="userSpaceOnUse" x1="2570.5259" y1="2615.594" x2="2353.3335" y2="2955.0896">
				<stop  offset="0" style="stop-color:#FDF53F"/>
				<stop  offset="1" style="stop-color:#D93C65"/>
			</linearGradient>
			<path style="fill:url(#SVGID_00000154386791100656287230000004088909661441561739_);" d="M2554.086,2755.649l-63.548,173.548
				c-3.188,8.704-12.482,13.547-21.442,11.172l-111.643-29.594c-7.671-2.034-13.095-8.866-13.334-16.799l-3.116-103.176
				c-0.259-8.566,5.577-16.119,13.932-18.029l178.308-40.778C2547.113,2728.821,2558.979,2742.288,2554.086,2755.649z"/>
			<g>
				
					<linearGradient id="SVGID_00000145053268007093560970000003928958749316485292_" gradientUnits="userSpaceOnUse" x1="2405.894" y1="2766.4575" x2="2617.8557" y2="2766.4575">
					<stop  offset="0" style="stop-color:#A737D5"/>
					<stop  offset="1" style="stop-color:#EF497A"/>
				</linearGradient>
				<path style="fill:url(#SVGID_00000145053268007093560970000003928958749316485292_);" d="M2503.368,2790.634
					c0,0-54.788,31.221-89.408-33.059c-34.62-64.279,50.873-95.219,92.524-100.425c55.468-6.934,112.79,3.535,111.345,65.42
					c-0.781,33.448-36.598,48.641-36.598,48.641s1.407,11.268,8.95,24.61c9.332,16.504,25.175,36.116,25.068,40.7
					c-0.193,8.289-80.467,48.748-90.891,39.828c0,0-5.43-27.417-9.42-48.389C2511.242,2808.526,2503.368,2790.634,2503.368,2790.634
					z"/>
				<path style="fill:#FFFFFF;" d="M2502.063,2796.178c-0.904,0-1.802-0.364-2.458-1.083c-1.234-1.357-1.135-3.458,0.221-4.693
					c6.647-6.047,10.724-11.49,12.828-17.128c2.565-6.864,1.884-14.113-1.777-18.925c-3.821-5.021-11.438-6.642-15.981-3.396
					c-1.498,1.07-3.569,0.72-4.632-0.773c-1.067-1.49-0.72-3.564,0.771-4.631c7.42-5.291,19.158-3.068,25.126,4.776
					c5.029,6.612,6.069,16.296,2.713,25.273c-2.489,6.665-7.121,12.931-14.58,19.718
					C2503.659,2795.894,2502.858,2796.178,2502.063,2796.178z"/>
				<path style="fill:#FFFFFF;" d="M2577.333,2775.68c-9.241,0-18.534-5.073-23.011-13.221c-5.588-10.169-3.113-24.107,5.636-31.73
					c1.382-1.205,3.479-1.063,4.685,0.324c1.204,1.381,1.06,3.478-0.322,4.684c-6.487,5.651-8.323,15.986-4.18,23.526
					c4.143,7.537,13.845,11.524,22.101,9.083c1.751-0.519,3.605,0.479,4.127,2.239c0.52,1.76-0.482,3.607-2.241,4.129
					C2581.917,2775.367,2579.626,2775.68,2577.333,2775.68z"/>
			</g>
			
				<linearGradient id="SVGID_00000118385637017123131210000002484028321428758146_" gradientUnits="userSpaceOnUse" x1="2607.3447" y1="2725.8953" x2="2720.2466" y2="3794.6992">
				<stop  offset="0" style="stop-color:#53D8FF"/>
				<stop  offset="1" style="stop-color:#3840F7"/>
			</linearGradient>
			<path style="fill:url(#SVGID_00000118385637017123131210000002484028321428758146_);" d="M2836.75,3062.336
				c-56.527,13.959-122.387,22.414-210.951,22.675h-21.087c-506.081-1.174-464.848-300.043-464.848-300.043
				c5.156,27.163,48.181,44.932,106.704,56.466c116.423,22.987,294.884,21.37,358.144,19.883v-0.679h21.087v0.679
				c96.999,2.217,449.689,4.801,465.126-76.348C3090.925,2784.968,3120.162,2992.485,2836.75,3062.336z"/>
		</g>
	</g>
</g>
</svg>
