<?xml version="1.0" encoding="utf-8"?>
<!-- Generator: Adobe Illustrator 27.5.0, SVG Export Plug-In . SVG Version: 6.00 Build 0)  -->
<svg version="1.1" id="Layer_1" xmlns="http://www.w3.org/2000/svg" xmlns:xlink="http://www.w3.org/1999/xlink" x="0px" y="0px"
	 viewBox="0 0 282.578 530.481" style="enable-background:new 0 0 282.578 530.481;" xml:space="preserve">
<g>
	<g>
		<g>
			<g>
				<path style="fill:#622803;" d="M270.746,201.265c-0.096-0.349-0.318-0.624-0.69-0.742c-0.033-4.72-0.422-10.001-1.889-14.183
					c-1.816-5.178-5.57-10.062-9.178-14.116c-6.025-6.77-15.572-11.053-24.738-12.206c0.463-0.654,0.687-1.604,0.732-2.257
					c0.139-1.962-1.875-2.679-3.441-2.818c-1.65-0.147-3.457,1.056-4.311,2.405c-0.463,0.732-0.555,1.645-0.301,2.424
					c-10.152,0.643-20.357,5.232-27.355,12.456c-6.502,6.712-13.1,19.518-11.871,29.258c-0.072,0.017-0.145,0.026-0.217,0.043
					c-0.436,0.105-0.293,0.5-0.275,1.179c0.029,1.201,1.871,1.009,2.213,1.061c3.68,0.566,7.43,0.882,11.211,1.054
					c-0.852,0.296-1.516,0.834-1.734,1.778c-0.123,0.533,0.197,0.98,0.592,1.34c-0.02,0.024-0.031,0.052-0.047,0.075
					c1.289,1.368,3.398,2.449,4.688,3.189c2.68,1.539,5.588,3.202,8.58,4.079c-2.352,11.652-10.176,23.403-10.256,35.433
					c-0.17,0.227-0.34,0.455-0.486,0.699c-6.551-2.035-13.063-3.408-19.445-5.908c1.012-1.561,1.268-3.243,0.244-5.319
					c-0.068-0.138-0.148-0.261-0.238-0.374c0.941-1.499,0.654-3.916-0.938-4.861c1.533-1.525,1.936-4.214-0.303-5.419
					c-0.102-0.055-0.207-0.096-0.311-0.145c4.441-0.771,9.256-1.746,10.723-4.734c2.197-4.478-10.246-0.839-10.584-0.736
					c-6.394,1.936-13.828,2.441-18.514,7.835c-0.455,0.525-0.928,1.138-1.393,1.807c-0.451-0.315-0.904-0.63-1.352-0.95
					c-4.398-3.153-9.357-8.216-15.172-7.932c-0.389,0.02-4.218,1.456-4.579,1.546c7.182-3.195,17.39-8.809,23.485-13.925
					c6.797-5.705,11.715-13.45,14.09-21.83c-0.205-0.037-0.342-0.2-0.246-0.541c2.504-8.934,1.639-17.621-0.971-26.217
					c5.635,0.509,6.262-10.166,5.619-13.805c-0.381-2.161-2.225-4.682-4.488-6.164c6.859-5.402,5.127-16.949,2.207-23.929
					c-1.805-4.319-5.701-7.305-9.734-9.427c-4.174-2.196-8.674-1.146-12.934,0.071c-0.225-0.027-0.447-0.06-0.674-0.085
					c0.271-2.684-1.141-5.523-1.979-8.026c-0.449-1.342-0.805-3.332-1.619-4.757c-0.008-0.022-0.002-0.046-0.012-0.068
					c-0.486-1.248-1.129-1.704-2.123-1.868c-1.371-3.67-1.443-8.144-1.818-11.97c-0.52-5.354-0.533-10.76-0.297-16.128
					c0.533-12.084,5.584-22.717,7.854-34.413c1.307-6.746,0.621-14.608-5.707-18.759c-8.244-5.412-16.813-5.009-26.117-5.124
					c-0.064-0.001-0.123,0.021-0.176,0.05c-0.404-0.134-0.816-0.262-1.234-0.381c-7.727-2.207-17.035-2.18-23.588,2.939
					c-0.016,0.011-0.023,0.024-0.035,0.036c-0.916-0.189-1.871-0.207-2.732-0.075c-4.529,0.698-9.17,1.404-13.578,2.672
					c-3.613,1.039-7.627,3.013-10.939,5.632c-5.719-0.746-12.703,2.413-17.662,4.921c-2.707,1.369-6.228,3.124-8.887,5.423
					c-0.469,0.485-0.943,0.955-1.434,1.41c-0.168,0.189-0.352,0.369-0.506,0.564c-0.033-0.009-0.067-0.012-0.1-0.018
					c-0.924,0.796-1.928,1.51-3.123,2.052c-4.77,2.163-9.287,4.554-12.943,8.412c-1.133,1.194-2.365,3.693-4.137,4.128
					c-0.01,0.007-0.019,0.009-0.029,0.016C17.735,51.23,12.29,59.244,10.755,66.265c-1.663,7.606,4.988,15.934,8.813,21.813
					c5.265,8.094,12.23,15.047,18.875,21.991c3.822,3.996,7.475,8.131,11.146,12.264c1.703,1.918,3.383,4.792,5.91,5.721
					c0.676,2.485,1.715,4.768,2.9,7.074c0.883,1.722,1.361,3.604,2.625,5.072c-3.383,1.439-5.242,3.135-7.879,6.972
					c-2.906,4.229-5.012,9.577-5.301,14.735c-0.32,5.731,0.879,10.955,3.434,16.079c0.912,1.83,3.143,5.058,5.551,5.563
					c-0.758,3.188-0.588,6.582,0.564,9.675c1.205,3.237,4.66,6.556,7.787,4.51c0.016,3.623,0.939,7.241,2.162,10.61
					c5.508,15.167,22.15,21.104,37.305,22.671c-0.068,0.897,0.025,1.686,0.26,2.374c-1.828-1.138-4.037-1.57-6.461-1.123
					c-4.508,0.831-6.289,3.709-7.684,7.883c-2.188,6.558-0.893,12.919,0.154,19.531c0.492,3.112,1.111,5.968,1.904,8.73
					c-1.457,4.493-1.842,9.901-1.369,15.208c-0.836,1.945-2.35,4.015-3.211,5.852c-0.797,1.706-1.328,3.578-1.891,5.366
					c-0.697,2.211-1.213,4.396-1.32,6.67c-3.299-5.782-11.803-18.56-14.602-10.749c-1.445,4.036,2.973,6.893,5.809,8.567
					c2.996,1.77,5.258,4.419,7.57,6.998c-0.742-0.345-1.494-0.673-2.273-0.939c-3.27-1.111-6.756-1.334-10.176-1.249
					c-2.678,0.067-6.998-0.224-8.42,2.677c-1.104,2.246,0.475,5.942,3.367,5.065c6.248-1.892,14.137-2.473,20.834-0.91
					c-0.412,1.758-1.09,3.533-1.455,5.111c-0.748,3.229-1.248,6.572-1.555,9.872c-0.783,8.425-1.662,16.814-2.639,25.219
					c-1.775,15.309-1.379,30.941-0.025,46.257c2.797,31.618,6.949,63.133,11.514,94.53c0.057,0.387,0.303,0.517,0.584,0.484
					c0.066,0.24,0.154,0.462,0.258,0.673c-0.127,0.145-0.258,0.288-0.414,0.43c-0.664,0.306-1.314,0.716-2,1.211h-0.002
					c-8.188,4.337-17.711,4.952-25.768,9.301c-3.119,1.685-6.869,8.994-2.445,11.568c3.328,1.939,7.451,1.327,11.18,1.538
					c5.199,0.296,10.461,0.265,15.65-0.146c4.469-0.354,9.188-0.444,13.135-2.771c1.387-0.817,2.26-1.971,2.926-3.264
					c2.178,1.184,6.588-2.081,7.459-3.859c1.117-2.276,0.51-4.94,0.328-7.387c-0.217-2.913-0.752-5.739-1.926-8.405
					c0.156-0.631,0.217-1.346,0.123-2.185c-0.004-0.038-0.018-0.064-0.027-0.1c-0.131-5.233-1.465-10.596-2.078-15.74
					c-0.893-7.511-1.832-15.016-2.74-22.525c-0.916-7.58-1.082-15.241-1.818-22.84c-0.705-7.284-2.113-14.583-3.207-21.826
					c1.299-0.785,2.344-1.81,1.77-3.621c-0.373-1.182-0.861-2.331-1.4-3.463c0.396-1.277,0.547-2.623,0.793-3.935
					c0.195-1.042,0.453-2.125,0.535-3.199c0.68,0.177,1.359,0.367,2.043,0.535c6.928,1.706,13.977,1.154,21.027,0.909
					c4.586-0.158,9.383-0.343,14.207-0.719c-0.02,2.609,0.293,5.277,0.828,7.824c-0.723,2.063-1.209,4.16-1.148,6.017
					c0.055,1.715,1.799,2.745,1.98,4.553c0.219,2.181-0.039,4.596,0.086,6.827c0.664,12.073,1.603,24.113,3.5,36.063
					c1.898,11.966,4.982,23.848,8.287,35.491c0.375,1.323,0.949,3.648,2.144,4.962c-0.795,2.386-1.189,4.977-1.361,7.445
					c-0.143,2.01-0.58,5.059,1.014,6.675c2.199,2.231,6.726,2.182,9.582,0.803c4.363,3.302,11.541,4.593,15.922,4.807
					c5.416,0.265,11.104-0.358,16.518-0.643c4.627-0.242,9.299-0.837,13.592-2.607c2.648-0.236,5.248-0.827,5.943-2.305
					c1.563-3.323,0.072-7.793-2.648-10.009c-3.359-2.733-9.451-2.238-13.455-2.707c-7.98-0.932-16.473-2.21-24.15-4.695
					c-1.506-2.622-4.643-3.382-7.699-2.853c-0.039-0.044-0.074-0.086-0.119-0.134c-2.223-15.956-5.42-31.777-7.344-47.816
					c-1.086-9.064-1.594-18.05-1.656-27.173c-0.051-7.521-0.094-15.866-1.682-23.308c2.707-0.701,5.348-1.547,7.873-2.594
					c3.568-1.477,4.494-4.416,3.531-7.883c-2.008-7.227-3.338-13.975-3.967-21.512c-1.09-13.094-1.982-26.68-4.736-39.598
					c-0.221-3.705-0.846-7.428-1.275-11.079c0.654-1.153,1.047-2.536,1.104-4.236c2.791-3.712,3.762-9.831,3.842-13.569
					c0.252-11.821-5.592-22.073-9.15-32.892c0.533-0.419,1.113-0.769,1.816-0.963c1.131-0.311,1.902-0.66,2.469-1.726
					c0.158-0.298,0.213-0.624,0.201-0.961c6.414,4.235,12.928,8.164,20.299,10.546c4.781,1.545,9.604,2.934,14.44,4.3
					c3.996,1.129,8.162,2.55,12.352,2.386c0.25-0.01,0.512-0.15,0.738-0.35c3.852,0.522,6.104-3.324,8.346-6.523
					c3.838-5.475,4.152-11.938,4.858-18.376c0.947-8.646,0.746-17.346,1.851-25.982c0.092-0.724,0.016-1.309-0.174-1.804
					c2.334,0.497,4.639,0.791,7.012-0.054c0.207-0.073,0.346-0.038,0.434,0.054c0.266-0.121,0.527-0.26,0.789-0.416
					c2.135,0.747,4.275,0.709,6.186-0.698c1.9-0.24,3.199-0.55,4.871-1.744c0.455-0.326,0.898-0.726,1.316-1.167
					c0.014-0.008,0.023-0.011,0.035-0.02c1.736-1.467,3.43-2.941,4.959-4.629c0.838-0.926,1.873-2.207,2.217-3.549
					c0.533,0.012,1.068,0.024,1.602,0.036c1.607-0.179,3.32-0.09,5.021,0.022h2.07c2.133-0.069,4.238,0.285,6.305-0.079
					c0.039-0.007,0.125,0.018,0.238,0.062c0.373-0.032,0.746-0.066,1.113-0.113c0.449-0.059,0.836-0.156,1.168-0.285
					c0.293-0.005,0.611-0.179,0.805-0.456c0.467-0.376,0.732-0.864,0.848-1.426c-0.01-0.087-0.014-0.168,0-0.232
					c0.029-0.097,0.049-0.192,0.066-0.29C270.787,201.79,270.777,201.531,270.746,201.265z M224.143,208.998
					c-1.918-0.739-3.793-0.762-5.654-0.371c-0.275-0.055-0.551-0.118-0.822-0.192c-0.064-0.083-0.17-0.135-0.346-0.124
					c-0.029,0.002-0.057,0.002-0.086,0.004c-1.744-0.547-3.393-1.453-5-2.259c-1.137-0.57-2.453-0.872-3.768-1.063
					c6.969,0.013,13.959-0.261,20.752-0.256c1.146,0.001,2.295,0.002,3.443,0.003C230.437,207.538,228.75,210.776,224.143,208.998z"
					/>
				<path style="fill:#EE2C3F;" d="M80.25,308.28c-4.037-0.319-7.766-0.149-11.668,0.92c-1.156,0.474-1.658-0.499-1.504-2.915
					c1.006-0.162,2.02-0.243,3.041-0.243c1.969-0.06,3.896-0.04,5.859,0.122c2.809,0.234,5.387,1.435,7.981,2.371
					C82.691,308.438,81.434,308.373,80.25,308.28z"/>
				<path style="fill:#EE2C3F;" d="M76.033,295.772c-0.684-0.409-1.898-0.301-2.492-0.83c-2.467-2.304-2.182-3.698,0.853-4.184
					c1.02,0.799,1.883,1.91,2.854,2.775c3.396,3.039,5.119,6.828,7.842,10.24c0.008,0.076,0.014,0.155,0.023,0.229
					C82.146,301.109,79.516,297.877,76.033,295.772z"/>
				<path style="fill:#FFFFFF;" d="M229.098,158.413c0.344-0.518,1.023-0.831,1.604-0.98c0.658-0.169,1.559-0.052,2.1,0.359
					c0.625,0.473,0.189,1.454-0.141,2.052c-1.166-0.1-2.322-0.152-3.459-0.147C229.025,159.237,228.873,158.754,229.098,158.413z"/>
				<path style="fill:#EED9C9;" d="M163.143,234.039c3.486-4.658,9.646-6.438,14.912-8.07c2.102-0.651,4.193-1.322,6.311-1.919
					c2.674-0.751,7.432-0.224,2.787,1.617c-3.908,1.549-8.32,1.665-12.1,3.458c-1.996,0.557-3.893,1.627-5.295,2.845
					c-0.348,0.304-0.191,1.046,0.342,0.766c2.135-1.12,4.5-1.555,6.891-1.592c1.188-0.02,2.656,0.078,3.453,1.095
					c0.449,0.571-0.107,1.385-0.654,2.089c-0.719-0.133-1.455-0.188-2.174-0.233c-0.713-0.045-1.355,0.024-2.045,0.188
					c-0.816,0.194-1.584,0.782-2.441,0.817c-0.346,0.014-0.752,0.638-0.279,0.783c0.516,0.159,0.93,0.158,1.467,0.098
					c1.334-0.152,2.455-0.055,3.75,0.288c0.881,0.233,1.777,0.488,2.338,1.26c0.234,0.323,0.234,0.814,0.211,1.316
					c-0.232-0.04-0.465-0.068-0.689-0.084c-1.711-0.116-3.568-0.024-5.242,0.344c-0.436,0.096-0.689,0.892-0.105,0.942
					c1.5,0.134,2.977,0.445,4.469,0.616c2.074,0.236,2.48,2.391,1.508,4.002c-0.848,1.402-1.854,2.655-3.418,3.273
					c-1.734,0.685-1.436-1.436-1.238-2.602c0.256,0.034,0.514,0.018,0.775-0.085c0.549-0.217,0.74-0.962,0.332-1.379
					c-0.365-0.373-1.039-0.377-1.531-0.451c-0.613-0.091-1.188-0.142-1.809-0.082c-0.387,0.037-0.596,0.675-0.199,0.848
					c0.012,0.005,0.025,0.014,0.039,0.019c-0.01,0.013-0.02,0.02-0.025,0.033c-1.309,2.62-3.834,5.425-6.381,6.93
					c-1.404,0.83-4.932,0.318-6.158-0.487c-0.406-0.266-0.773-0.639-1.109-1.066c-0.352-0.761-0.742-1.5-1.229-2.162
					c-0.184-0.453-0.338-0.91-0.451-1.349c0.219-0.95,0.877-2.747,0.895-2.804C160.014,239.991,161.055,236.828,163.143,234.039z"/>
				<path style="fill:#EED9C9;" d="M180.443,232.238c-0.797-1.017-2.266-1.114-3.453-1.095c-0.063,0.001-0.125,0.006-0.188,0.007
					c0.003,0.006,0.007,0.008,0.009,0.014c0.311,0.856,0.631,1.881,0.815,2.931c0.716,0.045,1.448,0.1,2.164,0.232
					C180.336,233.623,180.893,232.81,180.443,232.238z"/>
				<path style="fill:#EED9C9;" d="M179.047,240.662c-1.408-0.161-2.803-0.443-4.215-0.587c-1.434,0.634-2.9,1.112-4.108,2.191
					c-1.209,1.08-2.345,2.238-3.547,3.325c-1.674,1.514-4.243,4.056-6.747,3.862c-0.266-0.021-0.51-0.07-0.745-0.133
					c0.048,0.099,0.102,0.192,0.147,0.292c0.336,0.428,0.703,0.801,1.109,1.066c1.227,0.806,4.754,1.317,6.158,0.487
					c2.547-1.505,5.072-4.31,6.381-6.93c0.006-0.013,0.016-0.021,0.025-0.033c-0.014-0.005-0.027-0.014-0.039-0.019
					c-0.396-0.173-0.188-0.811,0.199-0.848c0.621-0.06,1.195-0.009,1.809,0.082c0.492,0.074,1.166,0.078,1.531,0.451
					c0.408,0.417,0.217,1.162-0.332,1.379c-0.262,0.104-0.52,0.119-0.775,0.085c-0.197,1.167-0.496,3.287,1.238,2.602
					c1.564-0.618,2.57-1.871,3.418-3.273C181.527,243.053,181.121,240.898,179.047,240.662z"/>
				<path style="fill:#EED9C9;" d="M179.926,238.76c0.225,0.016,0.457,0.044,0.689,0.084c0.023-0.502,0.023-0.993-0.211-1.316
					c-0.561-0.771-1.457-1.026-2.338-1.26c-0.105-0.028-0.205-0.044-0.309-0.069c-0.066,0.974-0.354,1.879-0.985,2.602
					C177.83,238.706,178.902,238.691,179.926,238.76z"/>
				<path style="fill:#47494C;" d="M147.709,227.788c2.732,0.983,5.213,3.289,7.56,4.94c1.498,1.053,3.014,2.07,4.535,3.079
					c-1.674,2.973-2.975,6.534-2.766,9.519c-0.037,0.141-0.045,0.27-0.063,0.404c-0.176-0.038-0.375-0.038-0.619,0.062
					c-0.691,0.281-1.369,0.585-2.057,0.878c0.002-0.723-0.246-1.454-0.561-2.155c-0.109-1.083-0.338-2.173-0.49-3.223
					c-0.273-1.861-0.803-3.508-1.787-5.11c-0.189-0.311-0.658,0.056-0.563,0.348c0.447,1.378,0.689,2.803,0.865,4.236
					c-0.582-0.965-1.217-1.9-1.924-2.777c-0.316-0.391-0.918,0.136-0.68,0.535c1.006,1.684,1.695,3.485,2.357,5.326
					c0.402,1.124,0.508,2.505,1.178,3.508c-1.447,0.645-2.873,1.325-4.293,2.023c0.01-0.064,0.008-0.128-0.008-0.19
					c-1.195-5.209-5.002-7.1-9.766-8.584c-3.578-1.114-7.295-2.895-11.102-3.785c3.4-0.762,6.924-2.023,9.238-4.108
					c-0.149,0.443,0.324,0.727,0.637,0.347c0.049-0.062,0.102-0.124,0.15-0.186c0.262-0.316-0.047-0.743-0.387-0.546
					c0.041-0.043,0.086-0.084,0.125-0.128C140.674,229.353,142.523,225.922,147.709,227.788z"/>
				<path style="fill:#EE2C3F;" d="M122.816,230.81c4.938-0.669,9.772-1.847,14.457-3.468c-0.338,6.134-9.551,7.293-14.416,7.751
					c-0.014-0.89-0.023-1.78-0.039-2.671C122.81,231.921,122.908,231.322,122.816,230.81z"/>
				<path style="fill:#EED9C9;" d="M180.205,152.863c0.193,3.778-0.234,8.061-4.283,9.119c-0.037-0.113-0.072-0.228-0.109-0.341
					c-0.574-1.001-1.211-1.964-1.869-2.913c0.002-0.082,0.002-0.166-0.01-0.249c-0.066-0.463-0.426-0.89-0.523-1.385
					c-0.15-0.752-0.096-1.577-0.064-2.337c0.037-0.921,0.303-4.056,1.662-3.006c0.359,0.276,0.809-0.256,0.615-0.607
					c-1.518-2.782-3.725,1.278-4.014,2.816c-0.043,0.222-0.1,0.699-0.141,1.283c-1.41-2.002-2.732-4.052-3.623-6.351
					c-0.01-0.025-0.018-0.054-0.027-0.079c1.266-4.047,5.574-5.002,9.1-2.588C179.146,147.752,180.074,150.292,180.205,152.863z"/>
				<path style="fill:#47494C;" d="M55.447,126.688c-2.111-1.692-4.041-5.149-5.496-7.036c-2.377-3.08-4.853-6.062-7.473-8.938
					c-5.584-6.134-11.406-12.041-16.601-18.521c-4.688-5.85-9.57-12.899-12.06-20.007c-2.724-7.776,3.475-15.294,8.686-21.136
					c-1.708,5.874-1.698,12.364,1.049,17.682c1.988,3.851,4.728,7.224,7.787,10.344c-3.887-5.604-6.652-11.841-6.971-18.161
					c-0.146-1.097-0.213-2.23-0.18-3.409c0.057-1.893,0.33-3.774,0.785-5.61c2.852-7.809,8.465-12.252,15.889-16.22
					c-0.537,0.669-1.021,1.382-1.418,2.163c-1.691,3.336-2.188,6.672-1.285,10.319c0.828,3.341,5.373,5.917,7.725,8.047
					c3.619,3.276,6.76,6.847,9.656,10.606c-0.854-1.434-1.73-2.854-2.652-4.245c-3.02-4.556-7.982-7.157-11.051-11.607
					c-1.859-2.692-2.392-5.03-1.514-7.935c0.256-2.677,1.67-5.374,3.789-7.814c1.33-1.531,3.121-3.389,5.078-5.018
					c6.25-3.617,13.6-5.178,20.416-7.531c-0.977,1.044-1.832,2.152-2.506,3.323c-4.385,7.621-0.074,12.609,4.18,18.973
					c0.785,1.173,1.5,2.405,2.184,3.661c-1.445-3.246-3.154-6.314-4.746-9.524c-0.984-1.981-1.52-4.269-1.398-6.444
					c-1.088-8.862,12.037-15.77,18.867-17.276c3.738-0.823,7.945-1.483,11.772-1.536c2.75-0.038,3.775,1.517,4.062,3.553
					c0.049,0.068,0.084,0.155,0.094,0.279c0.256,3.8-0.658,7.971,0.359,11.685c0.807,2.948,1.658,5.914,2.855,8.731
					c2.004,4.714,3.586,9.587,5.43,14.359c-1.311-5.035-2.67-10.055-4.143-15.035c-1.564-5.288-3.254-10.469-2.588-16.049
					c0.34-2.852,0.488-5.368-1.367-7.724c-0.467-0.592-1.08-1.022-1.762-1.325c7.641-3.162,17.211-2.684,24.719,0.639
					c1.627,0.72,2.676,1.766,3.355,3c0.146,0.012,0.275,0.095,0.342,0.301c2.313,7.237,0.414,14.131,0.318,21.5
					c-0.066,5.051,0.439,10.015,1.445,14.899c-0.324-8.631,0.295-17.257,1.158-25.894c0.355-3.57,1.682-8.786-0.35-12.123
					c-1.225-2.012-2.893-3.329-4.83-4.283c2.861,0.365,5.805,0.552,8.649,0.884c4.563,0.533,12.262,3.694,15.371,7.185
					c6.936,7.782,1.342,20.289-1.061,28.765c-2.635,9.294-3.68,18.441-3.5,28.095c0.115,6.153-0.01,14.165,2.178,20.287
					c-3.404,0.01-6.984,0.064-10.428,0.404c-0.832-2.778-1.318-5.614-1.769-8.459c-2.818-8.922-4.834-18.061-6.91-27.184
					c0.313,2.986,0.721,5.966,1.209,8.94c0.814,4.971,2.059,9.845,3.01,14.785c0.787,4.104,1.229,8.185,2.596,12.132
					c-0.201,0.028-0.412,0.041-0.611,0.07c-4.238,0.634-8.436,1.228-12.602,1.91c-2.559-7.811-4.742-15.74-6.81-23.706
					c-2.168-5.498-4.336-10.994-6.354-16.546c3.848,13.512,7.729,27.015,11.588,40.522c-6.227,1.06-12.391,2.35-18.523,4.33
					c-0.875,0.283-1.742,0.589-2.615,0.885c-0.877-3.209-1.887-6.397-2.996-9.563c-3.32-6.019-6.434-12.199-9.535-18.316
					c-1.592-3.142-3.328-6.209-5.123-9.241c1.148,2.197,2.273,4.406,3.342,6.652c4.801,10.1,8.047,20.892,12.803,30.979
					c-4.982,1.74-9.895,3.679-14.736,5.775c-1.461-4.871-4.453-9.646-7.441-14.19c-2.584-3.482-5.246-6.906-7.768-10.436
					c-2.58-3.609-5.041-7.302-7.576-10.941c0.664,1.175,1.34,2.333,2.043,3.455c0.1,0.159,0.088,0.347,0.02,0.523
					c0.453,0.714,0.906,1.424,1.357,2.143c3.119,4.976,6.129,10.019,9.244,14.996c2.863,4.574,6.914,9.895,8.486,15.17
					c-2.965,1.308-5.908,2.665-8.828,4.071c-1.668,0.805-3.314,1.652-4.943,2.526c-2.141-4.952-5.584-9.525-9.127-13.819
					c-3.377-3.384-6.996-6.52-10.836-9.468c-2.076-1.594-4.279-3.207-6.451-4.89c0.697,0.607,1.4,1.215,2.08,1.823
					c8.688,7.795,17.107,16.938,23.463,26.819c-2.227,1.219-4.414,2.506-6.549,3.887c-1.828,1.182-4.936,2.729-5.811,4.963
					C55.539,126.601,55.49,126.642,55.447,126.688z"/>
				<path style="fill:#47494C;" d="M60.129,133.773c-1.168-2.076-2.435-4.084-3.549-6.192c-0.012-0.066-0.049-0.128-0.098-0.185
					c-0.039-0.072-0.08-0.144-0.119-0.217c5.521-4.777,13.209-7.858,19.707-10.953c7.771-3.702,15.758-6.94,23.873-9.806
					c8.855-3.126,17.725-5.117,27.017-6.388c4.424-0.607,8.844-1.726,13.299-1.962c1.875-0.1,9.865-1.375,10.637,0.372
					c0.172,0.39,0.473,0.536,0.791,0.544c0.016,0.369,0.031,0.729,0.074,1.031c0.154,1.104,0.459,2.187,0.725,3.268
					c0.547,2.22,0.854,4.645,1.553,6.851c-7.484-0.631-15.279-0.244-22.527,0.316c-9.787,0.757-19.059,2.291-28.387,5.39
					c-9.078,3.016-18.08,6.784-26.195,11.89c-5.529,3.479-9.438,7.225-12.799,11.89c0-0.272-0.195-0.501-0.586-0.369
					c-0.113,0.039-0.219,0.078-0.33,0.116c-0.019-0.133-0.064-0.262-0.15-0.378C61.844,137.352,61.121,135.538,60.129,133.773z"/>
				<path style="opacity:0.4;fill:#494C4E;" d="M14.623,74.244c0.105-0.139,0.202-0.28,0.318-0.415
					c2.97-3.427,6.933-3.438,10.622-1.724c-0.729-1.087-1.408-2.206-2.011-3.374c-2.747-5.317-2.757-11.808-1.049-17.682
					c-5.211,5.842-11.409,13.359-8.686,21.136C14.058,72.873,14.339,73.559,14.623,74.244z"/>
				<path style="opacity:0.4;fill:#494C4E;" d="M26.505,70.237c-0.183-5.583-1.016-11.606,4.197-15.213
					c5.65-3.909,11.154-1.734,15.899,1.865c-0.242-0.227-0.471-0.462-0.718-0.686c-2.352-2.13-6.896-4.706-7.725-8.047
					c-0.902-3.647-0.406-6.983,1.285-10.319c0.396-0.781,0.881-1.494,1.418-2.163c-7.424,3.968-13.037,8.411-15.889,16.22
					c-0.455,1.836-0.729,3.718-0.785,5.61c-0.033,1.179,0.033,2.313,0.18,3.409C24.526,64.065,25.294,67.196,26.505,70.237z"/>
				<path style="opacity:0.4;fill:#494C4E;" d="M41.836,50.958c1.828,2.651,4.325,4.648,6.687,6.792
					c-3.12-6.303-4.798-12.794,1.545-18.429c2.027-1.802,4.266-3.287,6.495-4.818c1.738-1.193,3.741-2.729,5.89-3.064
					c1.266-0.197,2.155,0.083,2.829,0.646c0.015-1.877,0.537-3.875,1.818-6.101c0.674-1.171,1.529-2.279,2.506-3.323
					c-6.816,2.354-14.166,3.914-20.416,7.531c-1.957,1.629-3.748,3.486-5.078,5.018c-2.119,2.44-3.533,5.138-3.789,7.814
					C39.443,45.928,39.977,48.266,41.836,50.958z"/>
				<path style="opacity:0.4;fill:#494C4E;" d="M84.767,73.464c-0.437,8.582,11.994,19.177,4.12,26.963
					c-2.713,2.683-6.034,1.836-9.22-0.14c1.899,3.146,3.578,6.374,4.56,9.647c4.842-2.097,9.754-4.035,14.736-5.775
					c-4.136-8.772-7.132-18.076-10.999-26.995C86.991,75.789,85.95,74.463,84.767,73.464z"/>
				<path style="opacity:0.4;fill:#494C4E;" d="M151.076,18.418c-3.109-3.491-10.809-6.652-15.371-7.185
					c-2.844-0.332-5.787-0.519-8.649-0.884c1.937,0.954,3.606,2.271,4.83,4.283c2.031,3.337,0.705,8.553,0.35,12.123
					c-0.863,8.638-1.482,17.264-1.158,25.894c-1.006-4.885-1.512-9.849-1.445-14.899c0.096-7.369,1.994-14.263-0.318-21.5
					c-0.066-0.206-0.195-0.289-0.342-0.301c-0.68-1.234-1.729-2.28-3.355-3c-7.508-3.322-17.078-3.801-24.719-0.639
					c0.682,0.304,1.295,0.733,1.762,1.325c1.855,2.355,1.707,4.871,1.367,7.724c-0.666,5.58,1.023,10.761,2.588,16.049
					c1.473,4.98,2.832,10,4.143,15.035c-1.844-4.773-3.426-9.646-5.43-14.359c-1.197-2.817-2.049-5.783-2.855-8.731
					c-1.018-3.714-0.104-7.885-0.359-11.685c-0.01-0.124-0.045-0.211-0.094-0.279c-0.287-2.036-1.312-3.591-4.062-3.553
					c-3.826,0.053-8.033,0.713-11.772,1.536c-6.83,1.507-19.955,8.414-18.867,17.276c-0.103,1.841,0.269,3.76,0.98,5.507
					c-0.035-5.374,2.527-9.58,7.041-12.893c1.417-1.04,7.878-5.01,8.845-1.364c1.27,4.792,0.614,9.949,1.846,14.745
					c0.88,3.427,2.768,6.784,4.222,9.998c1.651,3.653,3.33,7.3,4.849,11.011c2.964,7.247,6.003,15.245,5.821,23.211
					c-0.036,1.581-0.232,5.818-2.906,5.204c-2.969-0.682-5.398-4.485-7.119-6.712c-0.127-0.164-0.254-0.343-0.381-0.516
					c2.262,4.442,4.557,8.887,6.961,13.245c1.109,3.166,2.119,6.354,2.996,9.563c0.873-0.296,1.74-0.602,2.615-0.885
					c6.133-1.98,12.297-3.271,18.523-4.33c-3.859-13.508-7.74-27.011-11.588-40.522c2.018,5.552,4.186,11.048,6.354,16.546
					c2.068,7.966,4.252,15.896,6.81,23.706c4.166-0.683,8.363-1.276,12.602-1.91c0.199-0.029,0.41-0.042,0.611-0.07
					c-1.367-3.947-1.809-8.027-2.596-12.132c-0.951-4.94-2.195-9.814-3.01-14.785c-0.488-2.974-0.896-5.953-1.209-8.94
					c2.076,9.123,4.092,18.262,6.91,27.184c0.451,2.845,0.938,5.681,1.769,8.459c3.443-0.34,7.024-0.395,10.428-0.404
					c-2.188-6.122-2.063-14.134-2.178-20.287c-0.18-9.654,0.865-18.801,3.5-28.095C152.418,38.707,158.012,26.2,151.076,18.418z"/>
				<path style="opacity:0.4;fill:#494C4E;" d="M47.039,93.249c-0.535-0.241-1.08-0.459-1.639-0.644
					c2.847,6.461,9.132,11.008,10.705,18.131c0.625,2.829,0.107,8.815-3.866,9.068c-0.796,0.051-1.591-0.051-2.377-0.264
					c0.029,0.037,0.06,0.073,0.089,0.11c1.455,1.887,3.385,5.344,5.496,7.036c0.043-0.046,0.092-0.087,0.143-0.12
					c0.875-2.233,3.982-3.781,5.811-4.963c2.135-1.381,4.322-2.668,6.549-3.887C62.22,108.81,54.809,100.511,47.039,93.249z"/>
				<path style="opacity:0.4;fill:#494C4E;" d="M71.584,93.635c0.209,3.805,1.493,10.041-3.339,10.352
					c-7.378,0.475-12.372-5.368-18.225-9.101c3.406,2.682,6.642,5.51,9.673,8.547c3.543,4.294,6.986,8.867,9.127,13.819
					c1.629-0.874,3.275-1.722,4.943-2.526c2.92-1.406,5.863-2.764,8.828-4.071c-1.462-4.904-5.064-9.848-7.865-14.194
					C73.571,95.436,72.506,94.439,71.584,93.635z"/>
				<path style="opacity:0.4;fill:#494C4E;" d="M152.486,103.285c-0.266-1.081-0.57-2.163-0.725-3.268
					c-0.043-0.302-0.059-0.662-0.074-1.031c-0.318-0.008-0.619-0.154-0.791-0.544c-0.771-1.747-8.762-0.472-10.637-0.372
					c-4.455,0.236-8.875,1.355-13.299,1.962c-7.747,1.059-15.198,2.63-22.594,4.931c5.187,10.906-14.772,12.952-20.831,16.012
					c-5.53,2.792-10.293,6.996-15.714,10.011c-1.866,1.037-4.723,2.712-7.441,3.262c0.865,1.614,1.572,3.251,2.684,4.743
					c0.086,0.116,0.131,0.245,0.15,0.378c0.111-0.038,0.217-0.077,0.33-0.116c0.391-0.132,0.586,0.097,0.586,0.369
					c3.361-4.665,7.27-8.411,12.799-11.89c8.115-5.105,17.117-8.874,26.195-11.89c9.328-3.099,18.6-4.633,28.387-5.39
					c7.248-0.561,15.043-0.947,22.527-0.316C153.34,107.93,153.033,105.505,152.486,103.285z"/>
				<path style="opacity:0.4;fill:#494C4E;" d="M151.076,18.418c-3.109-3.491-10.809-6.652-15.371-7.185
					c-2.844-0.332-5.787-0.519-8.649-0.884c1.937,0.954,3.606,2.271,4.83,4.283c2.031,3.337,0.705,8.553,0.35,12.123
					c-0.863,8.638-1.482,17.264-1.158,25.894c-1.006-4.885-1.512-9.849-1.445-14.899c0.096-7.369,1.994-14.263-0.318-21.5
					c-0.066-0.206-0.195-0.289-0.342-0.301c-0.68-1.234-1.729-2.28-3.355-3c-7.508-3.322-17.078-3.801-24.719-0.639
					c0.682,0.304,1.295,0.733,1.762,1.325c1.855,2.355,1.707,4.871,1.367,7.724c-0.666,5.58,1.023,10.761,2.588,16.049
					c1.473,4.98,2.832,10,4.143,15.035c-1.844-4.773-3.426-9.646-5.43-14.359c-1.197-2.817-2.049-5.783-2.855-8.731
					c-1.018-3.714-0.104-7.885-0.359-11.685c-0.01-0.124-0.045-0.211-0.094-0.279c-0.287-2.036-1.312-3.591-4.062-3.553
					c-3.826,0.053-8.033,0.713-11.772,1.536c-0.47,0.104-0.971,0.235-1.493,0.389c4.105,1.876,7.151,6.595,9.15,10.519
					c4.493,8.821,7.152,18.52,9.548,28.083c0.876,3.501,1.652,7.032,2.613,10.512c2.039,7.378,5.599,14.201,6.911,21.806
					c0.936,5.42-0.573,10.138-4.706,13.884c-0.421,0.382-0.859,0.737-1.308,1.061c4.875-1.359,9.772-2.352,14.71-3.191
					c-3.859-13.508-7.74-27.011-11.588-40.522c2.018,5.552,4.186,11.048,6.354,16.546c2.068,7.966,4.252,15.896,6.81,23.706
					c4.166-0.683,8.363-1.276,12.602-1.91c0.199-0.029,0.41-0.042,0.611-0.07c-1.367-3.947-1.809-8.027-2.596-12.132
					c-0.951-4.94-2.195-9.814-3.01-14.785c-0.488-2.974-0.896-5.953-1.209-8.94c2.076,9.123,4.092,18.262,6.91,27.184
					c0.451,2.845,0.938,5.681,1.769,8.459c3.443-0.34,7.024-0.395,10.428-0.404c-2.188-6.122-2.063-14.134-2.178-20.287
					c-0.18-9.654,0.865-18.801,3.5-28.095C152.418,38.707,158.012,26.2,151.076,18.418z M127.096,89.938
					c-0.157,0.264-0.526,0.398-0.794,0.236c-5.699-3.45-7.805-11.695-9.293-17.696c-1.565-6.316-2.079-12.958-3.893-19.192
					c-1.897-6.524-4.073-13.014-5.226-19.727c-0.227-1.321-0.608-3.198-0.746-5.107c-0.526-3.423-0.424-6.841,1.016-9.589
					c1.375-2.624,4.878-3.491,7.553-2.462c3.236,1.246,4.378,4.351,4.541,7.625c0.254,5.089-0.504,10.206-0.378,15.314
					c0.201,8.205,1.189,16.322,3.018,24.326C124.659,71.394,131.737,82.131,127.096,89.938z M140.763,53.488
					c-1.026,4.273-0.89,8.232-0.93,12.569c-0.026,2.859-0.17,5.738-1.737,8.214c-0.135,0.212-0.563,0.458-0.794,0.236
					c-4.88-4.675-4.592-13.717-4.701-19.918c-0.09-5.066-0.265-10.028,0.339-15.066c0.251-2.095,0.495-4.345,0.861-6.587
					c0.035-3.926,0.3-8.78,3.141-11.473c4.171-3.955,9.012,4.306,9.662,7.436C148.333,37.219,142.637,45.677,140.763,53.488z"/>
				<path style="opacity:0.4;fill:#494C4E;" d="M152.486,103.285c-0.266-1.081-0.57-2.163-0.725-3.268
					c-0.043-0.302-0.059-0.662-0.074-1.031c-0.318-0.008-0.619-0.154-0.791-0.544c-0.771-1.747-8.762-0.472-10.637-0.372
					c-4.191,0.223-8.353,1.222-12.515,1.845c2.375,1.554,2.469,5.311,2.121,7.818c-0.15,1.079-0.473,2.054-0.909,2.944
					c0.85-0.079,1.697-0.159,2.555-0.226c7.248-0.561,15.043-0.947,22.527-0.316C153.34,107.93,153.033,105.505,152.486,103.285z"/>
				<path style="fill:#D9931F;" d="M51.992,174.168c-1.715-4.048-2.15-8.352-1.939-12.702c0.207-4.229,1.869-8.272,3.828-11.955
					c2.447-4.599,5.428-6.869,9.828-9.291c-1.42,2.031-2.752,4.233-4.074,6.666c-0.209,0.385,0.32,0.662,0.561,0.319
					c5.311-7.636,11.305-13.121,19.338-17.835c7.719-4.529,16.008-7.755,24.293-11.057c18.148-7.231,38.666-8.249,57.799-4.799
					c1.242,0.224,1.924-1.936,0.518-2.23c-0.35-0.073-0.703-0.136-1.055-0.202c0.904-0.094,1.814-0.148,2.744-0.091
					c4.035,0.248,7.027,2.754,9.939,5.264c6.705,5.771,8.717,20.034,2.43,26.739c-1.125-0.472-2.295-0.661-3.408-0.398
					c-2.41,0.568-4.76,1.953-5.742,4.016c-1.469-4.611-2.271-9.577-3.762-14.166c-1.215-3.732-2.885-6.475-4.951-9.316
					c-0.605-2.421-1.896-4.631-3.939-6.184c-4.33-3.292-11.652-1.225-15.955,0.976c-0.387,0.198-0.455,1.012,0.123,0.869
					c4.059-1.008,7.984-1.929,12.105-0.643c6.508,2.03,5.729,10.882,3.529,15.626c-1.969,4.245-5.748,7.54-9.514,10.151
					c-2.187,1.517-6.189,3.674-9.803,4.399c1.98-1.162,3.643-3.188,4.781-4.978c2.117-3.331,0.072-7.063-3.01-8.684
					c-0.291-0.153-0.578,0.378-0.27,0.55c3.693,2.054,3.471,5.663,1.121,8.734c-0.219,0.285-0.453,0.531-0.693,0.763
					c0.027-0.171,0.053-0.341,0.068-0.509c0.055-0.545,0.012-1.275-0.199-1.899c-0.641-4.629-5.803-6.436-10.822-5.593
					c-9.881,1.659-16.678,11.309-25.396,15.572c-4.941,2.416-10.152,3.567-15.527,4.505c-2.85,0.497-5.519,0.453-8.375,0.293
					c-6.953-0.392-5.23-8.267-3.598-12.423c0.18-0.459-0.412-0.645-0.602-0.227c-2.086,4.591-3.928,9.048-0.574,12.961
					c-1.883,3.665-3.43,7.306-4.223,11.408c-0.695,3.599-0.035,7.098,0.443,10.632c-0.529-0.894-1.137-1.678-1.713-2.229
					c-2.729-2.618-6.533-0.307-7.992,2.401c-0.342,0.635-0.623,1.294-0.875,1.964C54.775,180.696,52.807,176.09,51.992,174.168z"/>
				<path style="fill:#D9931F;" d="M51.364,162.179c0.213-0.245,0.638-0.49,0.889-0.139c0.992,1.392,3.555,12.079,6.54,7.384
					c1.825-2.868,1.894-6.875,4.822-8.974c0.198-0.142,0.493-0.105,0.638,0.09c1.589,2.16,0.692,9.969,3.022,12.177
					c-0.034-1.297,0.036-2.601,0.291-3.918c0.793-4.103,2.34-7.743,4.223-11.408c-1.817-2.121-2.103-4.402-1.656-6.777
					c-1.3,1.609-3.064,2.962-3.365-0.273c-0.107-1.153-0.049-2.394-0.311-3.523c-0.266-1.147-2.729,1.975-3.167,2.678
					c-1.167,1.871-2.151,4.325-3.93,5.726c-0.74,0.582-2.774,2.21-3.746,1.171c-1.063-1.136-0.48-3.224-0.267-4.589
					c0.171-1.093,0.515-2.058,0.883-3.095c0.03-0.084,1.144-2.821,0.011-2.673c-0.021,0.002-0.039,0.008-0.06,0.01
					c-0.823,1.005-1.589,2.129-2.301,3.467c-1.959,3.683-3.621,7.726-3.828,11.955c-0.046,0.95-0.055,1.898-0.032,2.842
					C50.36,163.553,50.796,162.836,51.364,162.179z"/>
				<path style="fill:#D9931F;" d="M163.674,130.927c2.511,0.82,3.758,3.727,5.388,5.583c0.62,0.706,2.045,2.479,2.965,0.321
					c0.249-0.583,0.22-1.261,0.17-1.881c-0.138-1.706-0.443-3.392-0.705-5.081c-0.392-2.532-1.345-11.64,4.161-9.281
					c0.712,0.305,1.852,1.85,3.129,3.74c-1.057-3.24-2.762-6.139-5.01-8.073c-1.411-1.217-2.845-2.427-4.403-3.385
					c-2.113-0.408-4.304-0.556-4.14,1.099c0.156,1.574,0.819,3.045,1.352,4.518c0.676,1.87,1.719,4.375,0.015,5.987
					c-1.662,1.572-4.266,0.022-5.614-1.112c-1.071-0.901-2.027-1.987-3.158-2.812c-0.545-0.396-0.505-0.51-0.443-0.001
					c0.415,0.816,0.734,1.683,0.959,2.579c1.732,2.383,3.183,4.703,4.323,7.589C162.957,130.735,163.292,130.802,163.674,130.927z"
					/>
				<path style="fill:#EED9C9;" d="M66.435,189.006c-0.398-0.846-0.918-1.635-1.344-2.213c-0.691-0.94-2.213-1.823-3.338-1.055
					c-1.305,0.891-0.781,2.032-1.195,3.302c-0.143,0.439,0.479,0.606,0.701,0.268c0.348-0.526,0.486-1.076,0.639-1.685
					c0.396-1.593,1.998,0.854,2.256,1.277c0.293,0.475,0.512,1.003,0.721,1.518c0.168,0.417,0.66,1.283,0.518,1.737
					c-0.096,0.305,0.008,0.538,0.195,0.677c-0.143,1.004-0.248,2.015-0.338,3.017c-0.01,0.113-0.008,0.227-0.016,0.34
					c-0.006,0.004-0.01,0.004-0.014,0.008c-3.352,2.708-5.879-2.65-6.563-4.817c-0.76-2.424-0.41-5.191,0.125-7.604
					c0.691-3.113,3.871-7.245,7.021-3.631c0.967,1.108,1.938,3.097,2.164,4.689c-0.4,1.348-1.041,2.705-1.463,3.924
					C66.478,188.84,66.461,188.924,66.435,189.006z"/>
				<path style="fill:#EED9C9;" d="M178.034,147.206c-0.925-0.193-1.947-0.031-3.019,0.662c-1.588,1.027-2.404,2.699-2.813,4.502
					c0.826-1.626,2.307-3.266,3.42-1.225c0.193,0.351-0.256,0.884-0.615,0.607c-1.359-1.05-1.625,2.085-1.662,3.006
					c-0.031,0.76-0.086,1.585,0.064,2.337c0.098,0.495,0.457,0.922,0.523,1.385c0.012,0.083,0.012,0.167,0.01,0.249
					c0.658,0.949,1.295,1.912,1.869,2.913c0.037,0.113,0.072,0.228,0.109,0.341c4.049-1.059,4.477-5.341,4.283-9.119
					C180.099,150.779,179.455,148.726,178.034,147.206z"/>
				<path style="fill:#EED9C9;" d="M65.393,192.155c0.143-0.454-0.35-1.32-0.518-1.737c-0.209-0.515-0.428-1.043-0.721-1.518
					c-0.258-0.424-1.859-2.87-2.256-1.277c-0.152,0.608-0.291,1.158-0.639,1.685c-0.223,0.339-0.844,0.172-0.701-0.268
					c0.414-1.27-0.109-2.411,1.195-3.302c0.678-0.463,1.497-0.321,2.194,0.065c-0.513-0.768-1.071-1.499-1.941-1.737
					c-1.601-0.438-2.694,0.138-3.504,1.157c-0.345,2.032-0.456,4.205,0.155,6.156c0.684,2.167,3.211,7.525,6.563,4.817
					c0.004-0.004,0.008-0.004,0.014-0.008c0.008-0.113,0.006-0.227,0.016-0.34c0.09-1.003,0.195-2.014,0.338-3.017
					C65.4,192.693,65.297,192.46,65.393,192.155z"/>
				<path style="fill:#EED9C9;" d="M68.363,206.235c-1.742-4.475-1.863-9.308-1.09-13.986c0.49-2.961,2.512-5.732,2.707-8.7
					c0.258-3.867-0.914-7.577-1.08-11.437c-0.209-4.885,1.414-9.76,3.322-14.232c0.275,0.278,0.572,0.554,0.904,0.826
					c4.035,3.314,13.992,0.417,18.301-0.599c7.324-1.724,13.955-5.588,19.633-10.43c3.768-3.214,7.041-6.443,11.731-8.331
					c3.631-1.461,7.445-2.004,10.732,0.453c0.82,0.613,1.285,1.34,1.494,2.099c-0.262,1.187,0.002,2.438-0.811,3.501
					c-0.467,0.612-1.643,0.928-2.338,1.135c-0.365,0.108-1.121,0.255-1.693,0.19c-0.031-0.057-0.064-0.109-0.094-0.172
					c-0.379-0.833-1.695,0.147-1.439,0.89c0.174,0.508,0.434,0.886,0.738,1.178c0.039,0.114,0.117,0.213,0.256,0.268
					c0.063,0.024,0.123,0.037,0.186,0.059c0.266,0.157,0.549,0.281,0.855,0.339c4.762,1.735,10.689-1.428,14.742-3.716
					c5.398-3.046,9.721-7.849,12.18-13.518c0.617-1.425,0.982-2.979,1.1-4.549c1.098,2.452,2.072,4.958,2.852,7.733
					c1.375,4.903,2.311,9.964,3.826,14.814c1.297,4.143,4.613,7.431,7.137,10.849c0.535,0.728,1.012,1.479,1.447,2.246
					c0.004,0.018-0.002,0.038,0.004,0.056c2.973,9.457,4.738,17.158,1.869,27.001c-2.703,9.271-8.332,16.651-15.852,22.532
					c-14.092,11.021-31.543,16.219-49.275,15.931C94.408,228.402,74.814,222.797,68.363,206.235z"/>
				<path style="fill:#EED9C9;" d="M126.818,177.564c1.938-0.225,3.816,0.285,5.34,1.968c3.502,3.866-0.427,8.808-4.099,11.51
					c6.328-0.512,19.741-3.697,17.673-10.554C143.302,172.432,134.192,174.031,126.818,177.564z"/>
				<path style="fill:#EED9C9;" d="M173.965,163.201c-0.006-0.018,0-0.038-0.004-0.056c-0.436-0.767-0.912-1.518-1.447-2.246
					c-2.523-3.418-5.84-6.706-7.137-10.849c-1.516-4.851-2.451-9.911-3.826-14.814c-0.779-2.775-1.754-5.281-2.852-7.733
					c-0.117,1.57-0.482,3.124-1.1,4.549c-2.459,5.669-6.781,10.472-12.18,13.518c-4.053,2.288-9.98,5.451-14.742,3.716
					c-0.307-0.058-0.59-0.182-0.855-0.339c-0.063-0.021-0.123-0.034-0.186-0.059c-0.139-0.055-0.217-0.153-0.256-0.268
					c-0.305-0.292-0.564-0.67-0.738-1.178c-0.256-0.742,1.06-1.723,1.439-0.89c0.029,0.063,0.062,0.115,0.094,0.172
					c0.572,0.064,1.328-0.082,1.693-0.19c0.695-0.207,1.871-0.522,2.338-1.135c0.812-1.063,0.549-2.314,0.811-3.501
					c-0.209-0.759-0.674-1.485-1.494-2.099c-3.287-2.457-7.102-1.914-10.732-0.453c-4.689,1.888-7.963,5.117-11.731,8.331
					c-5.678,4.842-12.308,8.706-19.633,10.43c-4.309,1.016-14.266,3.913-18.301,0.599c-0.332-0.273-0.629-0.548-0.904-0.826
					c-1.908,4.473-3.531,9.348-3.322,14.232c0.166,3.859,1.338,7.569,1.08,11.437c-0.195,2.969-2.217,5.739-2.707,8.7
					c-0.773,4.679-0.652,9.512,1.09,13.986c6.451,16.562,26.045,22.167,42.344,22.43c17.732,0.288,35.184-4.909,49.275-15.931
					c7.52-5.881,13.148-13.261,15.852-22.532C178.703,180.359,176.937,172.658,173.965,163.201z M166.664,195.597
					c-3.273,5.406-7.65,10.054-12.432,14.164c-4.219,3.626-8.799,6.963-14.196,8.55c-0.599,0.176-0.647-0.519-0.422-0.882
					c0.349-0.559,0.696-1.116,1.026-1.681c-3.904,2.517-8.32,5.111-12.977,5.31c-4.638,0.197-8.489-1.716-11.988-4.484
					c0.855,2.311,3.145,3.93,4.828,5.717c0.282,0.3-0.083,0.79-0.325,0.959c-5.781,4.023-13.559,3.078-19.952,1.192
					c-6.946-2.049-14.321-5.197-19.928-9.896c-5.721-4.794-9.193-11.318-8.275-18.931c0.291-2.417,1.128-4.726,1.404-7.133
					c0.359-3.134-0.646-5.73-1.878-8.541c-1.385-3.16-1.96-5.731-0.68-8.619c0.313-2.231,1.146-4.447,3.114-5.72
					c3.483-2.252,8.139-1.556,12.066-2.368c10.348-2.144,19.237-8.271,27.42-14.71c2.357-1.854,5.252-4.53,8.371-4.866
					c2.127-0.229,4.864,0.808,4.968,3.314c0.26,6.291-6.197,8.198-11.475,8.382c11.075,6.907,25.034-0.64,34.37-7.627
					c2.33-1.743,6.751-4.09,8.106,0.186c0.427,1.346,0.324,2.554,0.263,3.958c-0.099,2.27,0.581,4.324,1.867,6.199
					c1.701,2.48,3.756,4.616,5.689,6.906c3.306,3.918,6.276,8.458,6.173,13.798C171.687,184.684,169.712,190.562,166.664,195.597z"
					/>
				<path style="fill:#EE2C3F;" d="M121.182,232.749c0.082,0.828,0.207,1.647,0.342,2.467c-4.932,0.449-13.41,1.03-15.445-4.063
					c1.91,0.164,3.793,0.264,5.617,0.303c3.166,0.066,6.307-0.099,9.412-0.444C121.008,231.555,121.123,232.148,121.182,232.749z"/>
				<path style="fill:#E096B7;" d="M122.843,234.066c0.004,0.343,0.01,0.686,0.015,1.027c4.865-0.458,14.078-1.617,14.416-7.751
					c-0.361,0.125-0.729,0.23-1.091,0.349C134.461,229.312,124.599,233.752,122.843,234.066z"/>
				<path style="fill:#E096B7;" d="M121.373,234.292c-3.475,0.444-6.531,0.863-9.193,0.875c3.121,0.554,6.729,0.287,9.344,0.049
					c-0.051-0.308-0.098-0.616-0.143-0.925C121.378,234.291,121.375,234.292,121.373,234.292z"/>
				<path style="fill:#47494C;" d="M91.818,286.705c0.574,3.737,1.57,7.321,2.918,10.377c0.373,0.846,1.492,0.156,1.314-0.616
					c-1.121-4.815-2.139-9.525-2.52-14.474c-0.189-2.471-0.184-4.961-0.186-7.435c0.09-1.121,0.141-2.245,0.15-3.369
					c0.041-0.095,0.07-0.185,0.102-0.276c1.033,3.086,2.314,6.105,3.963,9.274c1.318,2.54,2.434,5.464,4.508,7.515
					c2.391,2.366,4.633,5.202,7.229,7.27c2.939,2.343,9.771-3.792,11.691-5.436c10.393-8.894,20.898-18.175,30.279-28.242
					c-0.125,5.971,2.08,11.65,4.031,17.225c2.852,8.139,3.732,17.352-0.029,25.293c0,0-0.008,0.002-0.014,0.003
					c-0.342,0.065-0.615,0.301-0.801,0.59c-15.315,0.02-30.35,3.897-45.664,4.281c-6.559,0.165-20.662,1.982-21.377-7.196
					C86.998,296.141,90.06,291.518,91.818,286.705z"/>
				<path style="fill:#47494C;" d="M159.389,305.188c-1.992,4.852-9.365,5.723-14.121,6.758c-6.012,1.309-12.041,2.262-18.172,2.783
					c-6.109,0.519-12.24,0.313-18.352-0.03c-3.475-0.194-14.27-0.185-17.586-3.917c-0.002-0.155-0.037-0.312-0.158-0.455
					c-0.025-0.028-0.051-0.057-0.076-0.085c2.129,0.767,4.52,1.11,6.637,1.254c9.359,0.638,18.543-0.471,27.777-1.852
					c5.008-0.748,10.002-1.592,15.016-2.291c4.68-0.65,9.432-0.553,14.076-1.257c0.117-0.018,0.223-0.071,0.318-0.142
					c0.082,0.032,0.156,0.072,0.26,0.085C156.711,306.255,158.158,305.911,159.389,305.188z"/>
				<path style="fill:#EE2C3F;" d="M159.965,304.61c-1.992,4.852-9.365,5.723-14.121,6.758c-6.012,1.309-12.041,2.262-18.172,2.783
					c-6.109,0.519-12.24,0.313-18.352-0.03c-3.475-0.194-14.27-0.184-17.586-3.917c-0.002-0.155-0.037-0.311-0.158-0.455
					c-0.025-0.028-0.051-0.057-0.076-0.085c2.129,0.767,4.519,1.11,6.637,1.254c9.359,0.638,18.543-0.471,27.777-1.853
					c5.008-0.748,10.002-1.592,15.016-2.291c4.68-0.65,9.432-0.553,14.076-1.257c0.117-0.018,0.223-0.071,0.318-0.142
					c0.082,0.032,0.156,0.072,0.26,0.085C157.287,305.678,158.734,305.334,159.965,304.61z"/>
				<path style="fill:#D88D28;" d="M107.064,508.706c0.426-1.131,0.828-2.283,1.363-3.353c0.133-0.267-0.104-0.627-0.408-0.453
					c-1.109,0.63-1.738,0.94-2.33,2.184c-2.225,4.675-5.201,5.78-9.994,6.436c-8.018,1.097-16.01,0.806-24.061,0.537
					c-1.555-0.052-3.086-0.007-4.639-0.113c-6.793-0.467-2.266-7.601,0.078-8.881c2.594-1.415,5.752-2.05,8.576-2.845
					c5.164-1.451,10.41-2.765,14.764-5.938c0.137,0.361,0.508,0.601,0.953,0.386c0.002,0.005,0.004,0.011,0.004,0.011
					c1.801-0.926,2.951-1.604,4.709-1.467c0.777,0.365,1.662,0.598,2.564,0.732c1.225,0.692,2.152,1.751,3.469,2.317
					c0.646,0.279,1.441-0.569,1.211-1.205c-0.145-0.402-0.361-0.757-0.609-1.092c2.875-0.385,6.381-0.767,8.189-2.694
					C111.801,498.506,113.143,508.057,107.064,508.706z"/>
				<path style="fill:#5A5B5E;" d="M101.314,394.957c-0.096,0.368-0.189,0.744-0.275,1.124c-0.66-1.2-1.34-2.387-1.979-3.567
					c-0.021-0.042-0.051-0.066-0.08-0.094c0.785,2.316,1.512,4.661,2.221,6.997c0.344,1.133,0.781,2.48,0.527,3.689
					c-0.342,1.622-1.314,2.902-2.443,4.07c0.227,0.181,0.537,0.238,0.854,0.057c0.152-0.088,0.316-0.175,0.48-0.263
					c-0.492,7.189,1.537,14.361,2.279,21.471c0.795,7.596,1.021,15.234,1.899,22.823c0.871,7.507,1.988,14.988,2.984,22.478
					c0.73,5.498,2.148,11.14,2.303,16.684c-0.357,0.818-0.785,1.631-1.52,2.019c-1.592,0.842-4.422,0.859-6.186,0.826
					c-2.666-0.051-5.594-0.221-7.807-1.857c0.006-0.068,0.023-0.137,0.01-0.207c-2.609-16.156-4.777-32.246-6.432-48.531
					c-1.672-16.463-3.799-32.936-5.008-49.439c-1.207-16.49,0.07-32.947,1.98-49.336c0.852-7.297,1.078-14.65,1.959-21.939
					c0.252-2.098,1.037-4.78,1.549-7.46c0.215,2.101,0.492,4.172,0.848,6.213c-0.17,0.128-0.281,0.371-0.18,0.576
					c0.867,1.749,0.617,4.031,0.703,5.913c0.133,2.906,0.441,5.77,0.467,8.69c0.055,5.746-0.498,11.492-0.854,17.221
					c-0.709,11.387-2.244,22.685-1.766,34.119c0.029,0.676,0.754,1.192,1.389,0.807c1.125-0.683,5.021,1.148,6.281,1.525
					c2.254,0.673,4.52,1.307,6.791,1.916C101.881,392.604,101.619,393.797,101.314,394.957z"/>
				<path style="fill:#D88D28;" d="M173.228,491.395c1.236,0.355,1.979,1.48,3.201,1.902c0.676,0.232,1.287-0.192,1.539-0.773
					c3.145,2.109,7.098,2.757,10.773,3.609c4.746,1.1,9.551,1.907,14.377,2.557c4.02,0.542,9.07-0.074,11.949,3.417
					c5.01,6.077-5.365,6.638-8.727,7.772c-0.027,0.009-0.049,0.029-0.076,0.043c-2.35,0.399-4.709,0.775-7.135,0.925
					c-4.371,0.27-8.758,0.2-13.131,0.413c-8.086,0.393-15.658-2.611-22.44-6.76c-0.361-0.222-0.918,0.171-0.762,0.603
					c0.275,0.758,0.678,1.453,1.168,2.098c-1.805,0.175-3.621,0.438-5.207-0.677c-1.498-1.054-0.963-4.628-0.922-6.228
					c0.043-1.697,0.143-3.398,0.238-5.1c0.418,0.143,0.881,0.186,1.41,0.072c1.049-0.225,2.055-0.589,3.041-1.014
					c-0.049,0.198-0.107,0.395-0.133,0.599c-0.066,0.53,0.563,0.814,0.881,0.337c0.787-1.17,1.771-2.044,2.902-2.707
					c0.479-0.242,0.957-0.475,1.441-0.702c0.494-0.196,1.008-0.367,1.545-0.507C170.555,490.913,171.857,491.002,173.228,491.395z"
					/>
				<path style="fill:#B1741E;" d="M110.904,493.268c-1.809,1.928-5.314,2.31-8.189,2.694c0.248,0.335,0.465,0.689,0.609,1.092
					c0.23,0.636-0.564,1.484-1.211,1.205c-1.316-0.566-2.244-1.625-3.469-2.317c-0.902-0.135-1.787-0.367-2.564-0.732
					c-1.758-0.137-2.908,0.541-4.709,1.472c0,0-0.002-0.011-0.004-0.016c-0.445,0.215-0.816-0.024-0.953-0.386
					c-0.859,0.627-1.762,1.164-2.684,1.66c2.248-0.316,4.512-0.395,6.592-0.181c4.946,0.509,6.526,4.782,3.573,8.755
					c-1.931,2.599-6.043,2.82-8.953,3.098c-5.403,0.515-10.77,1.073-16.21,0.975c-1.924-0.034-6.809,0.492-9.017-1.112
					c-0.735,2.119-0.305,4.223,3.28,4.469c1.553,0.107,3.084,0.062,4.639,0.113c8.051,0.269,16.043,0.56,24.061-0.537
					c4.793-0.655,7.77-1.761,9.994-6.436c0.592-1.243,1.221-1.554,2.33-2.184c0.305-0.174,0.541,0.187,0.408,0.453
					c-0.535,1.07-0.938,2.223-1.363,3.353C113.143,508.057,111.801,498.506,110.904,493.268z"/>
				<path style="fill:#B1741E;" d="M215.068,502.107c-2.879-3.491-7.93-2.875-11.949-3.417c-4.826-0.649-9.631-1.457-14.377-2.557
					c-3.676-0.853-7.629-1.5-10.773-3.609c-0.252,0.581-0.863,1.006-1.539,0.773c-1.223-0.422-1.965-1.547-3.201-1.902
					c-0.344-0.099-0.684-0.178-1.02-0.235c1.614,1.919,2.843,4.409,4.946,5.719c3.704,2.308,8.493,0.362,12.217,2.651
					c1.686,1.036,2.991,2.854,1.353,4.647c-1.928,2.11-4.973,1.94-7.658,1.928c-3.035-0.014-6.056,0.138-9.078-0.248
					c-5.734-0.732-12.339-2.543-16.085-7.198c-0.024,0.547-0.051,1.094-0.064,1.64c-0.041,1.6-0.576,5.174,0.922,6.228
					c1.586,1.114,3.402,0.852,5.207,0.677c-0.49-0.645-0.893-1.34-1.168-2.098c-0.156-0.433,0.4-0.825,0.762-0.603
					c6.781,4.148,14.354,7.152,22.44,6.76c4.373-0.213,8.76-0.144,13.131-0.413c2.426-0.149,4.785-0.525,7.135-0.925
					c0.027-0.014,0.049-0.034,0.076-0.043C209.703,508.744,220.078,508.184,215.068,502.107z"/>
				<path style="fill:#5A5B5E;" d="M160.25,440.796c1.93,15.858,3.531,32.593,7.906,47.987c-0.852,0.307-1.658,0.716-2.395,1.205
					c-1.227,0.459-2.441,0.941-3.619,1.482c-5.07,2.329-6.164-8.68-6.982-11.717c-2.879-10.681-5.354-21.404-6.875-32.372
					c-1.389-10.009-1.719-20.071-2.377-30.139c-0.096-1.466,0.18-3.479,0.219-5.35c-1.227-1.874-2.574-3.675-3.055-5.923
					c-0.365-1.714,0.287-3.486,0.633-5.137c0.512-2.438,1.019-4.862,1.73-7.245c-0.195,0.036-0.392,0.158-0.5,0.359
					c-0.443,0.83-0.914,1.751-1.373,2.723c-0.137-1.403-0.31-2.807-0.418-4.212c1.01-0.091,2.018-0.2,3.027-0.313
					c0.189-0.092,0.387-0.117,0.527-0.055c3.889-0.447,7.75-1.068,11.486-1.973c-0.494,7.839,0.457,15.656,0.438,23.5
					C158.602,422.762,159.146,431.717,160.25,440.796z"/>
				<path style="fill:#333538;" d="M107.781,473.741c-0.996-7.489-2.113-14.971-2.984-22.478
					c-0.877-7.589-1.104-15.228-1.899-22.823c-0.742-7.109-2.771-14.281-2.279-21.471c-0.164,0.088-0.328,0.175-0.48,0.263
					c-0.316,0.182-0.627,0.124-0.854-0.057c1.129-1.168,2.102-2.448,2.443-4.07c0.254-1.209-0.184-2.556-0.527-3.689
					c-0.709-2.336-1.436-4.681-2.221-6.997c0.029,0.027,0.059,0.052,0.08,0.094c0.639,1.181,1.318,2.367,1.979,3.567
					c0.086-0.38,0.18-0.756,0.275-1.124c0.305-1.16,0.566-2.353,0.996-3.477c-2.271-0.609-4.537-1.243-6.791-1.916
					c-0.049-0.015-0.107-0.035-0.164-0.054c-0.586,2.276,0.777,3.764,1.967,5.853c0.713,1.25,0.711,2.471,0.371,3.813
					c-0.625,2.473-0.483,4.063-0.007,6.487c0.91,4.64,0.954,9.446,1.501,14.143c0.632,5.42,1.385,10.826,1.992,16.25
					c1.256,11.209,1.993,22.487,3.579,33.662c1.081,7.621,2.771,15.323,2.974,23.054c0.299-0.094,0.584-0.199,0.832-0.33
					c0.734-0.388,1.162-1.2,1.52-2.019C109.93,484.881,108.512,479.239,107.781,473.741z"/>
				<path style="fill:#333538;" d="M91.366,388.117c-0.008,0.303-0.007,0.607,0.009,0.908c0.113,2.186,0.7,4.253,1.06,6.399
					c0.711,4.255,1.037,8.545,1.264,12.85c0.522,9.933,1.645,19.763,2.821,29.637c2.204,18.49,4.636,36.955,7.523,55.352
					c0.837-0.022,1.728-0.079,2.562-0.223c-0.244-8.432-2.284-16.768-3.248-25.136c-1.305-11.324-2.215-22.7-3.593-34.013
					c-0.71-5.831-1.53-11.652-2.105-17.5c-0.293-2.984-0.266-6.106-0.843-9.049c-0.328-1.669-0.98-3.497-1.022-5.201
					c-0.018-0.74,0.255-1.515,0.515-2.193c0.883-2.313,0.34-3.433-0.822-5.148c-0.809-1.193-1.494-2.224-1.692-3.658
					c-0.09-0.655,0.047-1.365,0.308-2.095C93.266,388.728,92.265,388.353,91.366,388.117z"/>
				<path style="fill:#333538;" d="M95.244,436.956c-1.209-10.246-2.139-20.422-2.804-30.714c-0.318-4.936-1.251-9.651-1.951-14.525
					c-0.186-1.295-0.204-2.55-0.129-3.793c-0.4-0.047-0.73-0.022-0.981,0.075c-0.81,7.885,0.609,15.805,1.491,23.736
					c1.108,9.977,1.55,20.039,2.504,30.036c1.645,17.227,3.822,34.406,6.99,51.418c0.678,0.047,1.354,0.067,2.015,0.08
					c0.149,0.003,0.324,0.003,0.487,0.004C99.935,474.557,97.465,455.771,95.244,436.956z"/>
				<path style="fill:#333538;" d="M88.275,388c-0.134-0.094-0.242-0.224-0.317-0.373c-0.241,7.618-0.378,15.238-0.033,22.892
					c1.244,27.592,5.398,54.893,9.448,82.183c0.58,0.157,1.172,0.284,1.774,0.363c-3.12-16.859-5.293-33.89-6.896-50.959
					c-0.978-10.404-1.37-20.907-2.65-31.277C88.661,403.223,87.462,395.574,88.275,388z"/>
				<path style="fill:#333538;" d="M96.132,492.272c-4.096-27.449-8.317-54.939-9.383-82.695
					c-0.611-15.93,0.814-31.735,0.758-47.653c-0.047-13.518-0.717-27.196,1.837-40.523c-0.017-0.036-0.027-0.075-0.045-0.111
					c-0.1-0.202,0.007-0.439,0.173-0.569c0.001-0.008,0.003-0.016,0.004-0.023c-0.076-0.439-0.136-0.885-0.205-1.327
					c-3.011,16.314-2.758,32.878-3.937,49.438c-0.684,9.602-1.545,19.248-1.834,28.89c1.24,15.011,3.13,29.998,4.651,44.977
					c1.654,16.285,3.822,32.375,6.432,48.531c0.014,0.07-0.004,0.139-0.01,0.207C95.059,491.772,95.587,492.04,96.132,492.272z"/>
				<path style="fill:#333538;" d="M84.334,366.692c0.793-16.909,0.918-33.963,4.49-50.558c-0.064-0.545-0.138-1.086-0.193-1.635
					c-0.512,2.68-1.297,5.362-1.549,7.46c-0.881,7.288-1.107,14.642-1.959,21.939c-1.758,15.08-2.974,30.219-2.218,45.388
					C83.361,381.764,83.98,374.237,84.334,366.692z"/>
				<path style="fill:#333538;" d="M88.589,366.276c0.357-4.383,0.753-8.767,1.026-13.163c0.355-5.729,0.908-11.475,0.854-17.221
					c-0.025-2.921-0.334-5.784-0.467-8.69c-0.043-0.934-0.003-1.965-0.058-2.982c-2.054,13.11-1.22,26.479-1.318,39.733
					C88.62,364.729,88.601,365.502,88.589,366.276z"/>
				<path style="fill:#333538;" d="M144.66,394.478c-0.102-0.732-0.201-1.452-0.283-2.146c-0.411,0.042-0.821,0.09-1.233,0.127
					c0.108,1.405,0.281,2.809,0.418,4.212C143.929,395.897,144.299,395.168,144.66,394.478z"/>
				<path style="fill:#333538;" d="M154.998,442.574c-1.486-17.016-4.977-33.958-3.907-51.083c-1.197,0.184-2.397,0.354-3.604,0.501
					c-0.106,3.237-0.205,6.5,0.27,9.68c0.3,2.005,1.314,3.607,1.728,5.543c0.364,1.7,0.443,3.396,0.492,5.13
					c0.144,5.155,1.676,10.239,2.228,15.38c0.537,5.005,0.832,10.025,1.191,15.045c1.178,16.444,3.535,32.996,9.072,48.561
					c0.311-0.139,0.627-0.268,0.94-0.4C160.156,474.861,156.43,458.954,154.998,442.574z"/>
				<path style="fill:#333538;" d="M157.108,390.352c0.105,14.442,0.839,28.915,2.392,43.291
					c-0.596-6.655-0.893-13.289-0.877-20.023c0.02-7.844-0.932-15.661-0.438-23.5C157.83,390.205,157.466,390.272,157.108,390.352z"
					/>
				<path style="fill:#333538;" d="M155.984,390.593c-0.37,0.076-0.734,0.166-1.107,0.238c-1.409,33.2,2.64,66.749,11.521,98.787
					c0.561-0.321,1.142-0.613,1.758-0.835c-1.854-6.521-3.206-13.283-4.3-20.117C158.415,443.054,156.17,416.766,155.984,390.593z"
					/>
				<path style="fill:#333538;" d="M153.761,391.033c-0.52,0.095-1.036,0.196-1.558,0.282c-0.693,11.375,0.602,22.688,1.994,33.988
					C153.424,413.886,153.272,402.439,153.761,391.033z"/>
				<path style="fill:#333538;" d="M159.74,466.89c1.492,7.87,3.189,15.704,4.78,23.581c0.259-0.103,0.52-0.202,0.779-0.303
					C163.172,482.486,161.307,474.721,159.74,466.89z"/>
				<path style="fill:#333538;" d="M152.365,444.371c-0.39-5.438-0.65-10.896-1.282-16.313c-0.601-5.135-2.106-10.209-2.229-15.38
					c-0.059-2.463-0.303-4.709-1.241-7.001c-0.628-1.533-0.957-3.018-1.089-4.67c-0.237-2.976-0.183-5.953-0.122-8.931
					c-0.075,0.014-0.153,0.032-0.23,0.069c-0.237,0.026-0.475,0.048-0.713,0.073c0.329,3.453,1.096,7.072,0.203,10.308
					c-0.596,2.157,0.337,2.782,1.091,4.263c0.614,1.207,0.723,2.921,0.893,4.267c1.217,9.643,1.529,19.34,2.516,29
					c0.991,9.7,2.925,19.443,5.201,28.954C153.876,460.86,152.954,452.595,152.365,444.371z"/>
				<path style="fill:#333538;" d="M154.088,468.733c-2.095-9.325-4.152-18.814-5.049-28.342
					c-0.959-10.183-0.635-20.883-2.83-30.903c-0.303-1.382-0.531-2.269-1.584-3.262c-0.238-0.225-0.485-0.467-0.613-0.771
					c-0.412-0.987-0.247-1.521,0.265-2.468c1.028-1.906,0.884-4.549,0.558-7.183c-0.418,1.664-0.775,3.344-1.129,5.029
					c-0.346,1.65-0.998,3.423-0.633,5.137c0.48,2.248,1.828,4.049,3.055,5.923c-0.039,1.87-0.315,3.884-0.219,5.35
					c0.658,10.067,0.988,20.13,2.377,30.139c1.521,10.968,3.996,21.691,6.875,32.372c0.68,2.523,1.553,10.546,4.737,11.851
					C158.244,483.928,155.803,476.365,154.088,468.733z"/>
				<path style="fill:#47494C;" d="M161.643,326.723c1.225,9.147,2.471,18.282,3.217,27.491c0.504,6.229,0.879,12.472,1.977,18.632
					c0.449,2.527,1.328,4.94,1.918,7.433c1.32,5.572-7.691,6.462-10.871,7.184c-6.283,1.428-12.662,2.362-19.027,3.324
					c-8.408,1.271-16.156,2.622-24.611,0.805c-6.494-1.396-12.904-3.077-19.287-4.919c-1.537-0.444-3.373-1.315-5.02-1.117
					c-0.99-11.601,0.887-23.112,1.617-34.684c0.406-6.389,0.852-12.722,0.588-19.129v-0.013c1.27,4.076,2.852,8.084,4.727,12.074
					c-0.566-1.834-1.086-3.684-1.564-5.541c-1.08-4.196-2.229-8.425-2.914-12.714c-1.016-4.262-1.484-8.688-2.59-12.873
					c1.85,2.135,5.908,2.843,9.008,3.403c8.621,1.563,17.742,1.845,26.471,1.226c9.127-0.647,18.369-2.067,27.121-4.801
					c3.02-0.944,5.588-2.057,7.279-3.889c-0.1,4.403,0.225,8.787,0.166,13.2c-0.043,3.147-0.5,6.299-1.129,9.419
					c0.02,0.08,0.021,0.175-0.008,0.298c-0.166,0.656-0.32,1.315-0.479,1.973c-0.197,0.875-0.402,1.747-0.615,2.613
					c-0.113,0.495-0.225,0.991-0.336,1.487c-0.551,3.539-1.084,7.06-1.793,10.587c-0.988,4.913-1.908,9.806-2.912,14.684
					c2.674-7.872,4.67-16.068,6.754-24.051C160.373,334.828,161.148,330.804,161.643,326.723z"/>
				<path style="fill:#FFFDF5;" d="M157.879,266.115c1.52,4.059,2.559,8.116,3.365,12.372c1.295,6.818,4.27,21.347-4.137,24.788
					c6.561-13.998-1.934-28.849-5.104-42.779c0.521-0.564,1.053-1.12,1.566-1.689c0.139,0.029,0.299,0.006,0.447-0.105
					c0.5-0.373,0.947-0.805,1.394-1.23C155.65,260.459,156.818,263.274,157.879,266.115z"/>
				<path style="fill:#47494C;" d="M157.523,253.516c-0.98,0.481-1.793,1.134-2.482,1.905c-0.16-0.006-0.334,0.05-0.502,0.205
					c-7.936,7.295-15.568,14.908-23.527,22.182c-3.684,3.367-7.367,6.736-11.09,10.062c-1.969,1.759-3.932,3.277-6.289,4.508
					c-3.238,1.69-6.258-2.741-8.357-4.421c-3.857-3.084-5.609-7.919-7.822-12.186c-2.855-5.505-3.834-10.883-4.693-16.954
					c-0.838-5.917-1.84-11.427-0.318-17.34c0.9-3.503,1.916-6.41,6.029-7.231c3.568-0.713,6.191,0.573,8.602,2.936
					c0.367,0.363,0.936-0.191,0.879-0.632c3.676,1.786,9.516,1.52,12.85,1.261c0.824-0.064,1.77-0.159,2.785-0.293
					c3.664,0.98,7.494,2.593,10.85,4.087c5.025,2.237,9.572,3.575,12.992,8.186c0.018,0.023,0.039,0.033,0.059,0.053
					c-7.221,3.624-14.09,7.907-20.635,12.676c-3.25,2.366-6.752,5.158-9.322,8.473c0-0.006,0.002-0.01,0.002-0.016
					c0.072-0.681-0.689-0.874-1.184-0.688c-1.291,0.486-2.361,1.623-3.24,2.963c-1.654-4.042-3.82-7.88-5.426-11.956
					c-0.639-1.615-1.182-3.255-1.664-4.911c0.156-0.102,0.285-0.252,0.32-0.447c0.473-2.549,0.418-5.331,0.48-7.922
					c0.016-0.583-0.752-0.286-0.801,0.161c-0.188,1.72-0.576,3.509-0.777,5.279c-0.609-2.564-1.064-5.167-1.398-7.797
					c-0.055-0.439-0.6-0.237-0.615,0.123c-0.428,9.827,3.168,21.142,8.865,29.247c-0.553,1.105-1.002,2.223-1.35,3.146
					c-0.723,1.92-2.029,5.087-1.059,7.131c0.174,0.365,0.729-0.068,0.629-0.39c-0.586-1.866,1.031-4.639,1.732-6.252
					c0.713-1.643,1.914-4.464,3.568-5.89c0.035,0.289,0.17,0.444,0.344,0.52c-1.568,2.663-2.463,5.631-2.178,8.949
					c0.029,0.339,0.496,0.257,0.537-0.037c1.272-9.256,9.625-14.977,16.799-19.926c8.256-5.695,16.578-10.357,25.686-14.554
					c0.352,0.898,0.678,1.809,1.02,2.708c0.27,0.704,0.521,1.407,0.756,2.124C158.848,253.395,157.916,253.324,157.523,253.516z"/>
				<path style="fill:#47494C;" d="M221.465,220.323c-0.59,5.015-0.777,10.043-1.023,15.083c-0.281,5.735-0.861,11.426-1.664,17.109
					c-0.793,5.612-4.369,14.992-11.227,14.863c-0.158-0.003-0.305,0.05-0.441,0.122c-8.293-1.898-16.471-4.034-24.623-6.528
					c-5.707-1.746-10.764-4.777-16.033-7.345c3.877-0.954,7.168-5.221,7.914-8.949c0.104,0.062,0.205,0.123,0.309,0.183
					c-0.904,1.142-0.832,3.002,0.043,4.155c1.563,2.05,4.854-0.319,6.121-1.532c6.586,2.917,13.568,5.152,20.383,5.411
					c-0.316,0.743-0.58,1.514-0.828,2.265c-0.496,1.487-1.328,3.565-0.258,4.968c0.326,0.428,0.889,0.012,0.893-0.429l0.014,0.001
					c-0.072-1.952,0.725-3.73,1.623-5.465c0.264,2.038,0.777,4.085,1.619,6.141c0.275,0.674,1.15,0.116,1.023-0.479
					c-1.859-8.569,0.678-15.96,3.174-24.097c1.244-4.053,2.504-8.118,3.551-12.225c0.652-2.564,1.572-5.365,1.645-8.062
					c0.084,0.019,0.168,0.04,0.252,0.057c1.137,0.908,2.162,1.388,3.756,1.811C220.008,218.002,221.893,216.681,221.465,220.323z"/>
				<path style="fill:#EE2C3F;" d="M154.477,255.684c0.021-0.02,0.041-0.039,0.062-0.058c0.168-0.155,0.342-0.211,0.502-0.205
					c0.689-0.771,1.502-1.424,2.482-1.905c0.393-0.191,1.324-0.12,1.053-0.958c-0.234-0.717-0.486-1.42-0.756-2.124
					c-0.342-0.899-0.668-1.809-1.02-2.708c-1.308,0.603-2.595,1.218-3.873,1.842C153.167,251.653,153.708,253.705,154.477,255.684z"
					/>
				<path style="fill:#EE2C3F;" d="M148.645,255.357c0.424,1.5,0.955,2.934,1.572,4.32c1.102-1.036,2.198-2.078,3.309-3.105
					c-0.824-2.09-1.408-4.258-1.675-6.471c-1.207,0.599-2.398,1.212-3.582,1.833C148.265,253.092,148.33,254.241,148.645,255.357z"
					/>
				<path style="fill:#EE2C3F;" d="M221.171,223.275c0.089-0.984,0.179-1.969,0.294-2.952c0.428-3.643-1.457-2.321-3.779-2.941
					c-1.594-0.424-2.619-0.903-3.756-1.811c-0.084-0.017-0.168-0.038-0.252-0.057c-0.036,1.341-0.281,2.707-0.6,4.058
					C215.196,221.965,218.122,223.409,221.171,223.275z"/>
				<path style="fill:#EE2C3F;" d="M220.836,227.982c0.07-1.171,0.134-2.343,0.228-3.513c-3.091,0.164-6.099-1.107-8.369-3.381
					c-0.224,0.846-0.455,1.68-0.661,2.488c-0.176,0.688-0.364,1.374-0.551,2.06C214.101,227.54,217.68,228.467,220.836,227.982z"/>
				<path style="opacity:0.3;fill:#494C4E;" d="M159.805,235.808c-1.521-1.009-3.037-2.026-4.535-3.079
					c-2.348-1.651-4.828-3.957-7.56-4.94c-5.186-1.866-7.035,1.564-10.416,4.412c-0.039,0.044-0.084,0.085-0.125,0.128
					c0.34-0.197,0.648,0.229,0.387,0.546c-0.049,0.061-0.102,0.124-0.15,0.186c-0.313,0.38-0.785,0.097-0.637-0.347
					c-2.315,2.085-5.838,3.347-9.238,4.108c3.807,0.891,7.523,2.671,11.102,3.785c4.764,1.484,8.57,3.375,9.766,8.584
					c0.016,0.063,0.018,0.127,0.008,0.19c1.42-0.698,2.846-1.379,4.293-2.023c-0.67-1.003-0.775-2.384-1.178-3.508
					c-0.662-1.841-1.351-3.642-2.357-5.326c-0.238-0.399,0.363-0.926,0.68-0.535c0.707,0.877,1.342,1.813,1.924,2.777
					c-0.176-1.434-0.418-2.858-0.865-4.236c-0.096-0.292,0.373-0.658,0.563-0.348c0.984,1.602,1.514,3.249,1.787,5.11
					c0.152,1.05,0.381,2.14,0.49,3.223c0.314,0.701,0.563,1.433,0.561,2.155c0.688-0.293,1.365-0.597,2.057-0.878
					c0.244-0.1,0.443-0.1,0.619-0.062c0.017-0.134,0.025-0.264,0.063-0.404C156.83,242.342,158.131,238.78,159.805,235.808z
					 M148.758,240.339c-0.355,3.767-6.084,0.683-7.881-0.253c-1.813-0.944-3.343-1.847-3.244-4.132
					c0.003-0.074,0.028-0.142,0.036-0.215c-0.032-0.111-0.037-0.243,0.025-0.408c0.02-0.054,0.05-0.115,0.072-0.171
					c0.15-0.535,0.423-1.028,0.775-1.474c1.695-2.688,5.142-6.013,7.865-4.469c1.639,0.929,1.93,2.949,2.098,4.663
					C148.71,235.991,148.958,238.219,148.758,240.339z"/>
				<path style="opacity:0.3;fill:#494C4E;" d="M155.299,278.517c-1.951-5.574-4.156-11.254-4.031-17.225
					c-9.381,10.067-19.887,19.349-30.279,28.242c-1.92,1.644-8.752,7.778-11.691,5.436c-2.596-2.067-4.838-4.903-7.229-7.27
					c-2.074-2.051-3.189-4.975-4.508-7.515c-1.648-3.169-2.93-6.189-3.963-9.274c-0.031,0.092-0.061,0.182-0.102,0.276
					c-0.01,1.124-0.061,2.248-0.15,3.369c0.002,2.475-0.004,4.965,0.186,7.435c0.381,4.948,1.398,9.659,2.52,14.474
					c0.178,0.772-0.941,1.462-1.314,0.616c-1.348-3.056-2.344-6.64-2.918-10.377c-1.758,4.813-4.82,9.436-4.404,14.782
					c0.715,9.179,14.818,7.361,21.377,7.196c15.314-0.384,30.35-4.262,45.664-4.281c0.185-0.289,0.459-0.525,0.801-0.59
					c0.006-0.001,0.014-0.003,0.014-0.003C159.031,295.868,158.15,286.655,155.299,278.517z M129.014,300.552
					c-5.39,4.564-13.308,5.29-20.02,6.355c-4.286,0.68-14.167,3.252-16.954-1.497c-0.074-0.127-0.077-0.273-0.041-0.417
					c-1.649-1.48-2.605-3.924-1.528-5.982c0.414-0.791,1.235-1.422,2.165-1.285c1.271,0.187,2.106,1.414,2.691,2.489
					c0.753,0.351,1.497,0.725,2.244,1.08c0.102-2.304-0.729-4.493-0.097-6.806c0.113-0.413,0.508-0.759,0.934-0.546
					c5.624,2.811,10.584,7.407,17.367,5.064c3.509-1.212,6.807-2.979,10.319-4.179c1.079-0.369,4.708-1.782,5.329,0.12
					C132.063,296.908,130.446,299.339,129.014,300.552z"/>
				<path style="fill:#E5E6E7;" d="M87.595,380.728c0.052,0.355,0.114,0.706,0.182,1.055c0.077-9.582,1.243-19.095,1.839-28.669
					c0.355-5.729,0.908-11.475,0.854-17.221c-0.025-2.921-0.334-5.784-0.467-8.69c-0.086-1.882,0.164-4.164-0.703-5.913
					c-0.102-0.205,0.01-0.448,0.18-0.576c-0.355-2.041-0.633-4.112-0.848-6.213c-0.512,2.68-1.297,5.362-1.549,7.46
					c-0.881,7.288-1.107,14.642-1.959,21.939c-0.051,0.436-0.1,0.873-0.149,1.311C86.479,356.994,85.875,368.935,87.595,380.728z"/>
				<path style="opacity:0.6;fill:#494C4E;" d="M107.781,473.741c-0.996-7.489-2.113-14.971-2.984-22.478
					c-0.877-7.589-1.104-15.228-1.899-22.823c-0.742-7.109-2.771-14.281-2.279-21.471c-0.164,0.088-0.328,0.175-0.48,0.263
					c-0.316,0.182-0.627,0.124-0.854-0.057c1.129-1.168,2.102-2.448,2.443-4.07c0.254-1.209-0.184-2.556-0.527-3.689
					c-0.709-2.336-1.436-4.681-2.221-6.997c0.029,0.027,0.059,0.052,0.08,0.094c0.639,1.181,1.318,2.367,1.979,3.567
					c0.086-0.38,0.18-0.756,0.275-1.124c0.305-1.16,0.566-2.353,0.996-3.477c-2.271-0.609-4.537-1.243-6.791-1.916
					c-0.992-0.297-3.613-1.49-5.234-1.653c0.312,0.442,0.642,0.876,1.016,1.289c1.044,1.152,2.962,2.85,3.015,4.555
					c0.112,3.584-3.001,2.63-5.436,2.211c2.146,6.856,5.838,12.802,6.775,20.105c1.131,8.806,1.455,17.691,2.288,26.526
					c0.838,8.893,1.655,17.789,2.299,26.698c0.162,2.24,0.296,4.522,0.092,6.762c-0.157,1.722-0.732,3.366-0.273,5.107
					c0.921,3.48,2.599,6.692,3.25,10.25c0.036,0.196-0.054,0.402-0.188,0.573c0.199,0.43,0.401,0.858,0.603,1.286
					c1.646-0.022,3.61-0.18,4.84-0.83c0.734-0.388,1.162-1.2,1.52-2.019C109.93,484.881,108.512,479.239,107.781,473.741z"/>
				<path style="opacity:0.6;fill:#494C4E;" d="M160.25,440.796c-1.104-9.079-1.648-18.034-1.627-27.177
					c0.02-7.844-0.932-15.661-0.438-23.5c-3.736,0.904-7.598,1.525-11.486,1.973c-0.141-0.063-0.338-0.037-0.527,0.055
					c-1.01,0.112-2.018,0.222-3.027,0.313c0.108,1.405,0.281,2.809,0.418,4.212c0.459-0.972,0.93-1.892,1.373-2.723
					c0.108-0.201,0.305-0.323,0.5-0.359c-0.711,2.383-1.219,4.808-1.73,7.245c-0.158,0.755-0.378,1.536-0.537,2.325
					c1.874-2.892,4.027-5.578,6.947-7.459c0.378-0.243,0.813,0.079,0.703,0.511c-0.515,2.018-1.479,4.042-1.688,6.124
					c-0.148,1.478-0.16,3.052,1.474,3.496c0.31,0.084,0.793,0.204,1.04,0.427c1.872,1.698,1.664,3.717,1.084,6.023
					c-2.27,9.022-1.86,18.19-0.972,27.382c1.017,10.523,2.592,21.136,5.066,31.423c1.144,4.759,2.621,9.473,4.306,14.067
					c0.71,1.936,1.585,3.819,2.386,5.725c0.742-0.309,1.49-0.607,2.247-0.891c0.736-0.489,1.543-0.898,2.395-1.205
					C163.781,473.389,162.18,456.654,160.25,440.796z"/>
				<path style="opacity:0.3;fill:#494C4E;" d="M168.754,380.278c-0.59-2.492-1.469-4.905-1.918-7.433
					c-1.098-6.16-1.473-12.402-1.977-18.632c-0.746-9.209-1.992-18.345-3.217-27.491c-0.494,4.081-1.27,8.105-2.315,12.103
					c-2.084,7.982-4.08,16.179-6.754,24.051c1.004-4.878,1.924-9.771,2.912-14.684c0.709-3.527,1.242-7.048,1.793-10.587
					c0.111-0.496,0.223-0.992,0.336-1.487c0.213-0.866,0.418-1.738,0.615-2.613c0.158-0.657,0.313-1.316,0.479-1.973
					c0.029-0.123,0.027-0.218,0.008-0.298c0.629-3.12,1.086-6.272,1.129-9.419c0.059-4.413-0.266-8.797-0.166-13.2
					c-1.691,1.832-4.26,2.944-7.279,3.889c-8.752,2.733-17.994,4.153-27.121,4.801c-8.729,0.619-17.85,0.337-26.471-1.226
					c-3.1-0.561-7.158-1.268-9.008-3.403c1.105,4.185,1.574,8.611,2.59,12.873c0.686,4.289,1.834,8.518,2.914,12.714
					c0.479,1.857,0.998,3.707,1.564,5.541c-1.875-3.99-3.457-7.998-4.727-12.074v0.013c0.264,6.407-0.182,12.74-0.588,19.129
					c-0.73,11.571-2.607,23.083-1.617,34.684c1.647-0.198,3.482,0.673,5.02,1.117c6.383,1.842,12.793,3.523,19.287,4.919
					c8.455,1.817,16.203,0.466,24.611-0.805c6.365-0.962,12.744-1.896,19.027-3.324C161.062,386.74,170.074,385.851,168.754,380.278
					z M131.391,386.237c-5.355,1.732-10.423,1.885-15.785-0.07c-6.299-2.297-11.97-5.881-17.471-9.66
					c-0.438-0.302-0.022-1.011,0.372-1.118c3.395-0.92,6.771-0.288,10.208,0.04c3.626,0.346,7.094-0.25,10.489-1.39
					c-6.166-2.055-11.835-3.57-15.874-9.286c-3.617-5.118-6.655-11.091-8.098-17.218c-0.101-0.428,0.312-1.053,0.804-0.902
					c0.99,0.302,1.939,0.733,2.936,1.017c2.678,0.762,2.09-1.975,1.692-3.573c-0.557-2.234-1.075-4.487-1.801-6.674
					c-1.99-5.999-4.704-12.08-4.653-18.511c0.004-0.443,0.381-0.821,0.826-0.759c0.183,0.025,0.345,0.069,0.513,0.108
					c0.185-0.141,0.412-0.193,0.609-0.049c5.025,3.678,11.308,4.503,17.385,4.643c5.684,0.131,11.43,0.171,17.068-0.647
					c6.474-0.939,12.773-2.616,19.146-4.049c1.51-0.339,4.456-1.226,4.706,1.159c0.472,4.501-0.666,9.102-2.523,13.503
					c-0.838,5.883-1.949,11.72-4.034,17.277c-3.402,9.07-9.5,16.746-13.982,25.268c6.651-0.236,11.404-5.787,17.333-8.207
					c0.271-0.11,0.602,0.123,0.576,0.419C151.002,377.311,139.681,383.559,131.391,386.237z"/>
				<path style="fill:#47494C;" d="M157.879,266.115c1.52,4.059,2.559,8.116,3.365,12.372c1.295,6.818,4.27,21.347-4.137,24.788
					c6.561-13.998-1.934-28.849-5.104-42.779c0.521-0.564,1.053-1.12,1.566-1.689c0.139,0.029,0.299,0.006,0.447-0.105
					c0.5-0.373,0.947-0.805,1.394-1.23C155.65,260.459,156.818,263.274,157.879,266.115z"/>
				<path style="opacity:0.4;fill:#494C4E;" d="M157.879,266.115c1.52,4.059,2.559,8.116,3.365,12.372
					c1.295,6.818,4.27,21.347-4.137,24.788c6.561-13.998-1.934-28.849-5.104-42.779c0.521-0.564,1.053-1.12,1.566-1.689
					c0.139,0.029,0.299,0.006,0.447-0.105c0.5-0.373,0.947-0.805,1.394-1.23C155.65,260.459,156.818,263.274,157.879,266.115z"/>
				<path style="opacity:0.4;fill:#494C4E;" d="M110.226,296.147c5.321,2.001,10.256-1.647,14.553-4.47
					c3.929-2.582,7.791-5.321,11.962-7.508c5.914-3.099,14.009-5.907,19.773-1.613c-0.348-1.367-0.752-2.719-1.215-4.039
					c-1.951-5.574-4.156-11.254-4.031-17.225c-9.381,10.067-19.887,19.349-30.279,28.242c-1.92,1.644-8.752,7.778-11.691,5.436
					c-2.596-2.067-4.838-4.903-7.229-7.27c-2.074-2.051-3.189-4.975-4.508-7.515c-1.648-3.169-2.93-6.189-3.963-9.274
					c-0.031,0.092-0.061,0.182-0.102,0.276c-0.005,0.547-0.02,1.095-0.044,1.642C96.975,281.815,101.103,292.718,110.226,296.147z"
					/>
				<path style="opacity:0.4;fill:#494C4E;" d="M161.995,297.547c1.854-5.876,0.148-14.325-0.751-19.06
					c-0.807-4.256-1.846-8.313-3.365-12.372c-1.061-2.841-2.229-5.656-2.467-8.645c-0.447,0.426-0.894,0.857-1.394,1.23
					c-0.149,0.111-0.309,0.135-0.447,0.105c-0.514,0.569-1.045,1.125-1.566,1.689c1.807,7.939,5.338,16.175,6.831,24.383
					C161.634,288.494,162.388,293.035,161.995,297.547z"/>
				<path style="opacity:0.3;fill:#494C4E;" d="M158.576,252.558c-0.234-0.717-0.486-1.42-0.756-2.124
					c-0.342-0.899-0.668-1.809-1.02-2.708c-0.348,0.16-0.688,0.326-1.033,0.488c-0.056,3.909-5.736,5.949-8.353,7.828
					c-6.658,4.782-13.851,9.95-19.421,15.995c-0.911,0.987-8.835,10.681-10.666,8.016c-1.036-1.508-0.994-3.206-0.411-4.898
					c-1.304,2.112-2.241,4.437-2.601,7.051c-0.041,0.294-0.508,0.376-0.537,0.037c-0.285-3.318,0.609-6.286,2.178-8.949
					c-0.174-0.075-0.309-0.23-0.344-0.52c-1.654,1.426-2.855,4.246-3.568,5.89c-0.701,1.613-2.318,4.386-1.732,6.252
					c0.1,0.321-0.455,0.755-0.629,0.39c-0.971-2.044,0.336-5.211,1.059-7.131c0.348-0.924,0.797-2.041,1.35-3.146
					c-5.697-8.105-9.293-19.42-8.865-29.247c0.016-0.36,0.561-0.562,0.615-0.123c0.334,2.63,0.789,5.232,1.398,7.797
					c0.201-1.771,0.59-3.559,0.777-5.279c0.049-0.447,0.816-0.744,0.801-0.161c-0.063,2.591-0.008,5.373-0.48,7.922
					c-0.035,0.195-0.164,0.346-0.32,0.447c0.482,1.656,1.025,3.296,1.664,4.911c1.605,4.076,3.771,7.914,5.426,11.956
					c0.879-1.34,1.949-2.477,3.24-2.963c0.494-0.187,1.256,0.007,1.184,0.688c0,0.006-0.002,0.01-0.002,0.016
					c2.57-3.314,6.072-6.107,9.322-8.473c6.545-4.768,13.414-9.052,20.635-12.676c-0.02-0.02-0.041-0.029-0.059-0.053
					c-3.42-4.61-7.967-5.948-12.992-8.186c-3.355-1.494-7.185-3.106-10.85-4.087c-1.016,0.134-1.961,0.229-2.785,0.293
					c-3.334,0.26-9.174,0.525-12.85-1.261c0.057,0.44-0.512,0.995-0.879,0.632c-2.25-2.205-4.695-3.45-7.912-3.029
					c2.244,3.293,0.745,7.356,0.627,11.023c-0.322,9.878,3.394,18.696,6.378,27.847c0.947,2.905,3.446,11.579-2.363,11.372
					c-0.813-0.029-1.579-0.333-2.297-0.828c1.032,1.643,2.229,3.16,3.771,4.392c2.1,1.68,5.119,6.111,8.357,4.421
					c2.357-1.23,4.32-2.749,6.289-4.508c3.723-3.325,7.406-6.694,11.09-10.062c7.959-7.273,15.592-14.887,23.527-22.182
					c0.168-0.155,0.342-0.211,0.502-0.205c0.689-0.771,1.502-1.424,2.482-1.905C157.916,253.324,158.848,253.395,158.576,252.558z
					 M107.55,247.386c0.025-2.95,0.554-6.209,3.488-7.228c0.107-0.037,0.211-0.066,0.316-0.1c0.672-0.313,1.406-0.457,2.174-0.458
					c0.893-0.071,1.68,0.036,2.353,0.335c0.05,0.014,0.1,0.022,0.15,0.036c0.998,0.278,1.507,1.134,2.025,1.934
					c1.524,2.35,3.395,3.325,6.166,3.176c3.087-0.167,6.557-0.428,9.039,1.841c1.597,1.46,3.144,3.688,2.28,5.975
					c-1.203,3.188-4.29,5.328-7.029,7.155c-2.816,1.879-5.531,3.765-8.109,5.959c-0.74,0.63-1.935,1.605-3.164,2.295
					c-0.748,0.701-1.639,1.068-2.626,0.793c-0.442-0.04-0.829-0.229-1.142-0.589c-0.183-0.14-0.368-0.301-0.556-0.487
					c-2.995-2.986-4.513-8.565-5.221-12.557C107.233,252.863,106.908,249.982,107.55,247.386z"/>
				<path style="opacity:0.3;fill:#494C4E;" d="M217.685,217.383c-1.594-0.424-2.619-0.903-3.756-1.811
					c-0.084-0.017-0.168-0.038-0.252-0.057c-0.058,2.136-0.646,4.336-1.213,6.434c0.631-0.749,1.365-1.347,2.239-1.671
					c2.359-0.874,2.911,1.849,2.697,3.684c-0.708,6.057-3.081,11.733-4.08,17.734c-0.886,5.319-0.742,10.837-1.951,16.105
					c-0.324,1.411-1.208,4.62-3.373,3.952c-1.588-0.49-2.176-2.477-2.497-3.926c-0.341-1.537-0.617-3.211-0.807-4.927
					c-0.074,2.269,0.092,4.586,0.615,6.998c0.127,0.595-0.748,1.152-1.023,0.479c-0.842-2.056-1.355-4.103-1.619-6.141
					c-0.898,1.734-1.695,3.513-1.623,5.465l-0.014-0.001c-0.004,0.44-0.566,0.856-0.893,0.429c-0.606-0.794-0.595-1.805-0.387-2.803
					c-0.891,1.769-2.316,3.187-4.231,3.52c-2.336,0.407-4.977-0.906-7.148-1.549c-2.049-0.606-4.169-0.969-6.189-1.682
					c-2.703-0.955-7.517-3.201-5.436-6.863c1.043-1.833,3.699-1.775,5.978-1.4c0.074-0.01,0.151-0.003,0.229,0.032
					c0.012,0.005,0.023,0.009,0.034,0.014c0.875,0.154,1.683,0.347,2.3,0.486c0.109,0.025,0.177,0.08,0.227,0.146
					c0.77,0.092,1.552,0.131,2.327,0.192c-2.365-0.792-4.707-1.722-7-2.737c-1.268,1.213-4.559,3.582-6.121,1.532
					c-0.875-1.153-0.947-3.014-0.043-4.155c-0.104-0.06-0.205-0.121-0.309-0.183c-0.746,3.729-4.037,7.995-7.914,8.949
					c5.27,2.567,10.326,5.599,16.033,7.345c8.152,2.494,16.33,4.631,24.623,6.528c0.137-0.072,0.283-0.125,0.441-0.122
					c6.857,0.129,10.434-9.251,11.227-14.863c0.803-5.684,1.383-11.374,1.664-17.109c0.246-5.04,0.434-10.068,1.023-15.083
					C221.893,216.681,220.008,218.002,217.685,217.383z"/>
				<path style="fill:#EED9C9;" d="M224.236,215.284c-0.096,0.063-0.201,0.107-0.318,0.101c-0.639-0.038-1.279-0.06-1.92-0.076
					c-2.209-1.01-5.781-0.798-7.896-1.441c-0.227-0.068-0.453,0.003-0.631,0.139c-0.203-0.088-0.508,0.038-0.555,0.31
					c-0.004,0.018-0.01,0.037-0.012,0.057c-1.037-0.324-2.049-0.767-3.016-1.389c-1.609-1.032-3.131-2.188-4.846-3.04
					c-0.854-0.426-2.293-0.948-2.717-1.907c-0.76-1.717,1.242-2.471,2.627-2.378c2.004,0.136,3.84,0.605,5.666,1.472
					c0.576,0.273,1.162,0.616,1.752,0.967c0.002,0.001,0.006,0.002,0.006,0.002h-0.002c1.518,0.902,3.09,1.865,4.764,1.892
					c0.355,0.006,0.459,0.264,0.416,0.543c2.463-0.387,4.57-0.339,7.133,0.615c1.035,0.385,2.096,0.531,3.19,0.313
					c2.486-0.497,3.988-2.913,5.318-4.838c0.48-0.694,1.207-1.39,1.883-1.882c0.547,0.001,1.094,0.001,1.641,0.001
					c-0.105,0.346-0.34,0.828-0.771,1.501c-1.184,1.843-2.262,3.763-3.223,5.73C231.125,215.237,227.746,215.596,224.236,215.284z"
					/>
				<path style="fill:#EED9C9;" d="M237.607,214.074c-1.064,1.371-2.75,1.518-4.379,1.439c1.268-1.487,2.104-3.764,2.94-5.252
					c0.928-1.654,2.623-3.494,3.32-5.44c0.143,0.029,0.301,0.011,0.461-0.076c0.621,0.001,1.242,0.001,1.861,0.002
					c-0.027,0.604-0.353,1.459-0.473,1.777c-0.541,1.447-1.156,2.852-1.811,4.252C238.978,211.949,238.404,213.046,237.607,214.074z
					"/>
				<path style="fill:#EED9C9;" d="M243.728,210.901c-0.768,1.157-1.838,2.116-3.027,2.817c-0.264,0.155-0.537,0.266-0.816,0.359
					c1.197-1.679,2.031-3.796,2.834-5.488c0.363-0.77,1.133-2.38,1.354-3.825C246.287,205.563,244.867,209.176,243.728,210.901z"/>
				<path style="fill:#EED9C9;" d="M249.449,205.458c-0.594,1.37-1.771,2.535-2.734,3.681c0.006-0.014,0.012-0.028,0.018-0.043
					c0.359-1.113,0.471-2.624,0.236-3.913c0.365-0.1,0.717-0.267,1.063-0.431h0.148c0.518,0,1.043,0.01,1.564,0.017
					C249.646,205.051,249.498,205.346,249.449,205.458z"/>
				<path style="fill:#CACBCD;" d="M227.887,200.465c-6.689,0.008-13.377,0.05-20.066,0.074c-6.254,0.024-13.002-0.49-19.191,0.762
					c0.834-9.865,6.252-20.387,12.768-27.599c7.299-8.078,19.803-11.56,30.397-11.19c9.807,0.341,21.273,6.23,27.441,13.759
					c3.113,3.802,5.834,7.944,7.494,12.586c0.869,2.431,0.662,5.634,0.861,8.205c0.088,1.145,0.283,2.265,0.469,3.387
					C254.666,200.453,241.277,200.45,227.887,200.465z"/>
				<path style="fill:#CACBCC;" d="M193.35,197.613c-0.307,1.037-0.597,2.08-0.848,3.135c2.537-0.248,5.128-0.296,7.706-0.283
					c-0.034-1.102,0.027-2.206,0.13-3.309C198.018,197.42,195.688,197.576,193.35,197.613z"/>
				<path style="fill:#FFFFFF;" d="M200.453,195.958c0.201-1.489,0.514-2.974,0.92-4.439c-1.974,0.032-3.966,0.205-5.95,0.197
					c-0.633,1.532-1.2,3.096-1.706,4.681C195.971,196.359,198.216,196.209,200.453,195.958z"/>
				<path style="fill:#FFFFFF;" d="M195.96,190.503c1.925-0.004,3.853-0.164,5.766-0.194c1.688-5.37,4.599-10.459,7.863-14.688
					c3.463-4.487,7.803-8.922,12.779-12.181C210.362,168.489,201.228,178.52,195.96,190.503z"/>
				<path style="fill:#CACBCD;" d="M267.59,197.062c-0.199-2.571,0.008-5.775-0.861-8.205c-1.66-4.642-4.381-8.784-7.494-12.586
					c-5.784-7.06-16.229-12.679-25.595-13.632c3.948,10.779,5.271,23.462-5.2,29.331c-7.918,4.438-18.904,4.737-27.801,4.736
					c-3.118-0.001-8.109,0.023-10.715-2.36c-0.648,2.32-1.101,4.655-1.295,6.955c6.189-1.252,12.938-0.737,19.191-0.762
					c6.689-0.024,13.377-0.066,20.066-0.074c13.391-0.015,26.779-0.012,40.172-0.017
					C267.873,199.326,267.678,198.206,267.59,197.062z"/>
				<path style="fill:#CACBCD;" d="M239.377,163.943c2.984,2.786,6.088,5.755,8.244,9.249c2.445,3.963,4.084,8.396,4.617,13.04
					c0.542,4.725,0.34,9.486,0.577,14.222c5.081-0.001,10.161-0.004,15.243-0.006c-0.186-1.122-0.381-2.242-0.469-3.387
					c-0.199-2.571,0.008-5.775-0.861-8.205c-1.66-4.642-4.381-8.784-7.494-12.586c-4.679-5.711-12.406-10.475-20.145-12.594
					C239.185,163.766,239.283,163.855,239.377,163.943z"/>
				<path style="fill:#D9931F;" d="M150.672,118.147c-4.121-1.286-8.047-0.365-12.105,0.643c-0.208,0.052-0.33-0.023-0.386-0.146
					c-2.396,0.774-4.69,1.897-6.779,3.281c-0.262,0.174-1.063,0.773-1.98,1.449c3.774-0.832,7.619-0.829,11.15,0.448
					c3.517,1.273,7.447,3.82,7.141,8.098c-0.281,3.934-2.594,7.128-5.65,9.481c-0.298,0.229-0.864,0.264-0.851-0.26
					c0.124-5.097-4.767-8.008-9.153-9.204c-4.723-1.289-9.507-1.039-13.951,1.112c-7.393,3.58-13.42,9.394-20.729,13.169
					c-5.911,3.054-14.77,7.284-21.536,4.675c-2.097-0.808-3.273-1.98-3.803-3.34c-1.043,4.148-1.018,9.213,4.525,9.525
					c2.856,0.16,5.525,0.204,8.375-0.293c5.375-0.938,10.586-2.089,15.527-4.505c8.719-4.264,15.516-13.913,25.396-15.572
					c5.02-0.843,10.182,0.964,10.822,5.593c0.211,0.624,0.254,1.354,0.199,1.899c-0.016,0.168-0.041,0.338-0.068,0.509
					c0.24-0.232,0.475-0.478,0.693-0.763c2.35-3.071,2.572-6.681-1.121-8.734c-0.309-0.172-0.021-0.703,0.27-0.55
					c3.082,1.62,5.127,5.353,3.01,8.684c-1.139,1.789-2.801,3.815-4.781,4.978c3.613-0.726,7.615-2.883,9.803-4.399
					c3.766-2.611,7.545-5.906,9.514-10.151C156.4,129.029,157.18,120.178,150.672,118.147z"/>
				<path style="fill:#D9931F;" d="M59.787,147.332c-0.664,1.289-1.219,2.625-1.516,4.078c6.307-5.348,11.565-11.902,18.289-16.75
					c7.732-5.575,16.91-9.176,25.831-12.37c9.882-3.54,19.885-6.248,30.271-7.846c5.177-0.797,10.337-1.583,15.587-1.39
					c3.695,0.137,7.407,0.408,11.083,0.082c-18.472-2.969-38.08-1.768-55.507,5.177c-8.285,3.302-16.574,6.527-24.293,11.057
					c-8.033,4.714-14.027,10.199-19.338,17.835C60.086,147.36,59.919,147.384,59.787,147.332z"/>
				<path style="fill:#D9931F;" d="M174.947,117.407c0.493,1.181,0.871,2.429,1.113,3.729c0.777,4.172,1.448,11.806-2.576,14.771
					c-4.157,3.064-7.123,1.6-9.57-1.374c1.117,3.983,1.888,8.158,3.137,12.078c0.982-2.063,3.332-3.447,5.742-4.016
					c1.113-0.263,2.283-0.073,3.408,0.398C182.103,136.699,180.69,123.744,174.947,117.407z"/>
				<path style="fill:#D9931F;" d="M71.789,157.391c-1.12-1.307-1.651-2.676-1.797-4.089c-0.986,3.354-1.928,6.721-3.165,9.991
					c-1.404,3.713-3.354,9.49-7.252,11.416c-3.745,1.85-6.612-0.428-8.64-3.625c0.278,1.042,0.628,2.071,1.057,3.084
					c0.814,1.922,2.783,6.528,5.438,7.398c0.252-0.67,0.533-1.329,0.875-1.964c1.459-2.708,5.264-5.02,7.992-2.401
					c0.576,0.552,1.184,1.336,1.713,2.229c-0.479-3.534-1.139-7.033-0.443-10.632C68.359,164.696,69.906,161.056,71.789,157.391z"/>
			</g>
			<path style="fill:#622803;" d="M102.074,183.014c2.205-0.592,3.039-4.646,1.857-9.056c-1.18-4.412-3.926-7.509-6.131-6.922
				c-2.207,0.592-3.037,4.647-1.859,9.058C97.127,180.506,99.869,183.605,102.074,183.014z M99.803,172.664
				c-0.373-1.394-0.109-2.679,0.59-2.865c0.697-0.189,1.568,0.794,1.941,2.19c0.371,1.395,0.109,2.68-0.59,2.865
				C101.047,175.043,100.18,174.064,99.803,172.664z"/>
			<path style="fill:#622803;" d="M145.529,154.688c-2.285-0.03-4.186,3.646-4.252,8.211c-0.061,4.568,1.736,8.295,4.02,8.327
				c2.283,0.031,4.188-3.645,4.252-8.209C149.611,158.449,147.812,154.723,145.529,154.688z M148.545,160.687
				c-0.021,1.444-0.623,2.609-1.348,2.597c-0.723-0.008-1.289-1.187-1.271-2.635c0.021-1.443,0.625-2.607,1.346-2.598
				C147.994,158.061,148.564,159.242,148.545,160.687z"/>
			<path style="fill:#622803;" d="M117.221,185.186c1.641-6.024,11.529-9.843,16.918-7.779c3.672,1.405,4.092,5.028,1.85,8.102
				c-1.867,2.559-4.09,3.892-7.191,4.351c-0.875,0.129-1.295,1.887-0.203,1.827c4.475-0.246,7.09-1.943,9.711-5.664
				c1.773-2.517,1.947-6.819-0.463-8.928c-6.061-5.302-19.932,0.389-21.191,8.054C116.58,185.572,117.125,185.534,117.221,185.186z"
				/>
			<path style="fill:#622803;" d="M121.732,215.452c3.086,2.477,7.885,1.731,11.176,0.292c4.504-1.969,8.143-5.287,10.869-9.316
				c3.424-5.058,6.406-8.957,10.887-12.893c0.566-0.316,1.127-0.649,1.676-1.021c2.965-2.008,8.012-7.48,1.803-9.141
				c-0.555-0.147-1.096,0.747-0.486,0.988c6.674,2.641-2.824,7.68-4.176,8.375c-2.434,1.25-5.25,1.811-7.904,2.389
				c-4.422,0.962-8.855,1.33-13.24,2.547c-4.102,1.139-8.07,2.666-12.059,4.141c-2.326,0.858-4.66,1.693-7.004,2.505
				c-1.598,0.564-3.209,1.085-4.834,1.565c-2.006,0.583-11.578,0.991-6.473-4.885c0.271-0.313-0.146-0.64-0.422-0.34
				c-3.307,3.611-1.139,6.576,3.154,7.257c1.334,0.212,2.746,0.063,4.16-0.264c1.688,0.423,3.393,0.727,5.082,1.221
				C117.129,209.803,119.252,213.461,121.732,215.452z"/>
			<path style="fill:#FFFFFF;" d="M132.359,199.656c4.086-1.234,8.379-1.819,12.557-2.73c-0.92,1.98-1.814,3.682-3.707,5.265
				c-2.512,2.102-6.141,3.077-9.229,3.85c-5.512,1.381-10.338,1.161-15.373-0.986C121.859,203.25,127.039,201.264,132.359,199.656z"
				/>
			<path style="fill:#F05D69;" d="M115.156,205.563c9.1,4.438,29.205,3.865,31.111-8.943c1.717-0.412,3.41-0.895,5.051-1.527
				c-5.438,5.134-8.977,11.941-15.109,16.419c-2.721,1.985-6.195,3.499-9.588,3.156c-3.598-0.364-5.506-2.726-7.893-5.091
				c-2.018-2-4.541-2.482-7.154-2.724C112.824,206.423,114.027,205.956,115.156,205.563z"/>
			<path style="fill:#622803;" d="M138.674,216.926c-2.566,2.124-4.857,3.928-8.182,4.713c-2.539,0.6-8.357-0.571-10.139-2.71
				c-0.271-0.324-0.723,0.103-0.557,0.438c1.568,3.193,5.965,4.826,9.32,4.751c4.078-0.09,7.746-3.586,10.107-6.574
				C139.551,217.132,139.119,216.559,138.674,216.926z"/>
			<path style="fill:#622803;" d="M100.068,163.122c1.689-0.804,1.414-3.423-0.365-3.19c-2.105-0.434-4.893,0.529-6.725,2.165
				c-0.738,0.535-1.391,1.185-1.875,2.017c-0.668,1.148,0.231,2.262,1.426,2.166c1.295-0.104,2.471-0.768,3.602-1.357
				C97.412,164.252,98.766,163.741,100.068,163.122z"/>
			<path style="fill:#622803;" d="M141.644,152.258c0.264,0.154,0.592,0.184,0.877-0.018c0.676-0.243,1.357-0.451,2.059-0.551
				c0.117-0.014,0.234-0.029,0.354-0.042c0.228-0.018,0.459-0.033,0.693-0.022c1.031,0.048,2.092-0.045,3.017-0.533
				c0.844-0.445,1.502-1.648,0.938-2.501c-0.096-0.289-0.295-0.53-0.656-0.633c-0.082-0.023-0.162-0.034-0.242-0.051
				c-1.1-0.484-2.502-0.288-3.627-0.101c-1.297,0.216-2.65,0.634-3.807,1.303c-0.022,0.008-0.045,0.014-0.066,0.021
				c0.002,0.005,0.004,0.009,0.006,0.015c-0.131,0.076-0.27,0.142-0.395,0.225C139.322,150.362,140.029,152.463,141.644,152.258z"/>
			<path style="fill:#622803;" d="M123.744,243.932c1.014-0.434,1.645-1.528,1.521-2.686c-0.141-1.339-1.117-2.18-2.459-1.723
				c-0.107,0.037-0.207,0.086-0.307,0.141c-0.459,0.206-0.799,0.632-1.066,1.049c-0.268,0.42-0.334,1.039-0.229,1.635
				c0.012,0.063,0.021,0.125,0.039,0.184c0.209,0.873,0.797,1.646,1.682,1.602c0.076-0.004,0.143-0.024,0.215-0.035
				c0.047-0.004,0.094-0.015,0.141-0.023c0.082-0.017,0.166-0.031,0.246-0.057C123.6,243.996,123.672,243.964,123.744,243.932z"/>
			<path style="fill:#622803;" d="M141.615,246.822c-1.031-1.146-2.506-0.492-3.184,0.632c-0.238,0.149-0.438,0.384-0.576,0.609
				c-0.287,0.467-0.164,1.149-0.088,1.653c0.059,0.386,0.137,0.961,0.367,1.291c0.967,1.385,2.631,0.877,3.635-0.162
				c0.516-0.535,0.756-1.32,0.779-2.046C142.57,248.077,142.076,247.335,141.615,246.822z"/>
			<path style="fill:#622803;" d="M150.543,272.826c-0.191-0.875-1.031-1.478-1.893-1.485c-0.221-0.047-0.449-0.06-0.672-0.017
				c-1.41,0.27-2.057,1.903-1.842,3.178c0.221,1.308,1.406,2.02,2.654,1.56C150.06,275.594,150.83,274.122,150.543,272.826z"/>
			<path style="fill:#622803;" d="M154.695,294.032c-0.783-0.665-1.971-0.224-2.615,0.405c-0.744,0.728-1.326,1.674-1.336,2.745
				c-0.012,1.253,1.1,1.853,2.162,1.566c0.941-0.09,1.758-1.015,2.141-1.786C155.518,296.017,155.559,294.765,154.695,294.032z"/>
		</g>
		<path style="fill:#FFFDF5;" d="M57.952,159.567c-0.538-1.2-1.734-1.575-2.919-1.13c-0.671,0.252-1.135,0.917-1.478,1.506
			c-0.054,0.102-0.1,0.206-0.139,0.314c-0.051,0.142-0.103,0.284-0.153,0.426c0.061-0.182,0.064-0.198,0.011-0.049
			c-0.162,0.436-0.227,0.726-0.274,1.188c-0.094,0.937,0.182,2.088,0.963,2.684c0.305,0.231,0.618,0.348,0.929,0.38
			c0.25,0.083,0.531,0.109,0.843,0.052c1.089-0.199,1.803-1.155,2.179-2.134C58.339,161.695,58.45,160.679,57.952,159.567z"/>
		<path style="fill:#FFFDF5;" d="M61.203,155.833c-0.578-0.218-1.35,0.066-1.692,0.573c-0.198,0.294-0.384,0.563-0.463,0.917
			c-0.024,0.105-0.034,0.21-0.034,0.311c-0.012,0.043-0.031,0.083-0.041,0.126c-0.087,0.351-0.017,0.653,0.128,0.959
			c0.01,0.021,0.018,0.042,0.028,0.063c0.011,0.021,0.019,0.043,0.03,0.064c0.005-0.004,0.009-0.007,0.014-0.011
			c0.057,0.09,0.114,0.181,0.199,0.249c0.575,0.466,1.402,0.155,1.821-0.364c0.308-0.382,0.604-0.92,0.698-1.404
			C62.008,156.722,61.82,156.066,61.203,155.833z"/>
		<path style="fill:#FFFDF5;" d="M168.836,126.783c-0.165-0.274-0.389-0.514-0.664-0.677c-1.015-0.6-2.095-0.121-2.648,0.867
			c-0.433,0.773-0.284,1.726,0.343,2.334c0.868,0.844,2.284,0.311,2.934-0.501C169.237,128.26,169.381,127.276,168.836,126.783z"/>
		<path style="fill:#D9931F;" d="M140.78,133.986c-3.449-8.261-15.593-8.912-22.979-6.706c-4.716,1.408-8.989,4.093-12.945,6.96
			c-5.321,3.856-10.734,8.901-17.713,8.959c-0.573,0.004-0.938,0.954-0.244,1.051c8.274,1.152,14.176-3.975,20.664-8.338
			c8.848-5.949,24.547-11.26,32.252-1.33C140.178,135.05,140.998,134.506,140.78,133.986z"/>
		<path style="fill:#D9931F;" d="M122.263,122.55c-4.412,0.637-8.19,2.687-11.552,5.507c0.008-0.004,0.015-0.003,0.023-0.008
			c3.232-1.934,6.58-3.455,10.284-4.234c4.501-0.946,8.261,0.779,12.381,2.147C130.039,123.545,126.661,121.916,122.263,122.55z"/>
		<path style="fill:#EED9C9;" d="M100.185,187.382c-3.781-1.797-8.737,0.222-12.096,2.181c-3.537,2.064-5.265,4.759-6.946,8.27
			c-0.235,0.49,0.369,0.798,0.688,0.393c2.052-2.595,3.789-4.983,6.879-6.475c3.672-1.773,7.21-1.835,11.072-2.654
			C100.539,188.937,101.018,187.777,100.185,187.382z"/>
		<path style="fill:#EED9C9;" d="M104.095,187.954c-0.232-0.093-0.47-0.14-0.69-0.26c-0.654-0.356-1.505,0.75-1.066,1.317
			c0.196,0.254,0.427,0.44,0.661,0.656C103.91,190.51,105.344,188.453,104.095,187.954z"/>
		<g>
			<path style="fill:#F05D69;" d="M123.669,185.623c-0.012,0.001-0.021,0-0.033,0.002
				C123.496,185.644,123.432,185.651,123.669,185.623z"/>
			<path style="fill:#EED9C9;" d="M125.461,179.645c-0.839,0.197-1.679,0.709-2.287,1.364c-1.037,0.632-1.795,2.017-1.685,3.087
				c0.121,1.17,1.049,1.649,2.146,1.529c0.14-0.018,0.354-0.049,0.418-0.063c0.267-0.064,0.535-0.169,0.786-0.283
				c0.529-0.241,1.02-0.58,1.463-0.955c0.873-0.736,1.781-1.75,1.772-2.963C128.065,179.985,126.644,179.365,125.461,179.645z"/>
		</g>
		<path style="fill:#EED9C9;" d="M162.149,168.954c-5.379-2.387-12.386,1.035-15.657,5.294c-0.289,0.375,0.073,0.807,0.477,0.534
			c2.3-1.552,5.045-2.762,7.719-3.467c2.374-0.626,4.72-0.418,7.094-0.794C162.48,170.41,162.904,169.289,162.149,168.954z"/>
		<path style="fill:#EED9C9;" d="M63.835,180.573c-0.174-0.092-0.368-0.116-0.562-0.143c-0.085,0.006-0.171,0.012-0.256,0.018
			c-0.011-0.005-0.017-0.01-0.054-0.021c-0.662-0.405-1.415,0.529-0.885,1.094c0.217,0.23,0.494,0.436,0.765,0.602
			c0.359,0.218,0.666,0.156,1.009-0.063c0.135-0.086,0.255-0.235,0.312-0.385C64.334,181.229,64.285,180.813,63.835,180.573z"/>
		<path style="fill:#EED9C9;" d="M170.907,147.357c-0.058-0.026-0.116-0.048-0.177-0.069c-0.607-0.218-1.246,0.292-1.382,0.874
			c-0.126,0.544,0.304,1.232,0.935,1.031c0.145-0.046,0.291-0.091,0.433-0.146C171.39,148.791,171.648,147.685,170.907,147.357z"/>
		<path style="fill:#EED9C9;" d="M177.184,226.545c-3.494,0.813-7.166,2.079-10.048,4.287c-3.157,2.42-4.222,5.318-5.65,8.9
			c-0.128,0.318,0.25,0.41,0.406,0.152c1.797-2.949,3.155-5.761,5.926-7.988c2.704-2.174,6.452-2.915,9.483-4.525
			C177.662,227.179,177.739,226.416,177.184,226.545z"/>
		<path style="fill:#EED9C9;" d="M213.179,211.127c-0.495-0.916-1.801-1.22-2.741-1.498c-1.082-0.318-2.269-0.438-3.191-1.136
			c-0.554-0.42-1.247,0.486-0.781,0.965c0.725,0.746,1.689,1.095,2.602,1.553c1.1,0.551,2.162,1.686,3.466,1.406
			C213.092,212.297,213.46,211.646,213.179,211.127z"/>
		<path style="fill:#FFFFFF;" d="M77.449,503.442c-0.989-0.765-2.627-0.511-3.739-0.217c-1.086,0.287-2.356,0.96-2.943,1.978
			c-0.797,0.758-1.443,1.952-0.8,2.977c0.653,1.04,2.237,0.755,3.224,0.54c1.315-0.287,2.71-0.825,3.771-1.671
			C78.011,506.213,78.714,504.42,77.449,503.442z"/>
		<path style="fill:#FFFFFF;" d="M80.936,502.746c-1.187,0-1.864,2.125-0.496,2.125C81.628,504.871,82.305,502.746,80.936,502.746z"
			/>
		<path style="fill:#FFFFFF;" d="M169.695,498.781c-0.066-0.905-0.563-1.631-1.315-2.109c-1.222-0.778-2.804-0.47-3.429,0.928
			c-0.217,0.483-0.291,1.03-0.252,1.569c-0.006,0.036-0.021,0.071-0.02,0.107c0.018,1.248,0.703,2.481,2.104,2.452
			c0.035-0.001,0.07-0.011,0.105-0.013c0.491,0.055,0.997-0.02,1.43-0.243c0.518-0.268,0.916-0.791,1.076-1.343
			C169.608,499.727,169.731,499.273,169.695,498.781z"/>
		<path style="fill:#FFFFFF;" d="M172.989,501.016c-0.718,0-1.347,0.508-1.51,1.212c-0.141,0.604,0.199,1.374,0.908,1.374
			c0.718,0,1.347-0.508,1.51-1.212C174.038,501.785,173.698,501.016,172.989,501.016z"/>
		<path style="fill:#FFFFFF;" d="M149.096,122.334c-1.554,0-2.44,2.781-0.648,2.781
			C150.001,125.115,150.888,122.334,149.096,122.334z"/>
		<path style="fill:#FFFFFF;" d="M81.169,137.324c-0.284-0.278-0.662-0.373-1.049-0.357c-0.002,0-0.003-0.002-0.004-0.002
			c-0.747-0.273-1.351-0.05-1.979,0.381c-1.012,0.691-1.789,2.241-1.991,3.421c-0.216,1.259,0.371,2.944,1.872,2.95
			c1.458,0.006,2.482-1.166,3.2-2.293C81.991,140.208,82.278,138.41,81.169,137.324z"/>
		<path style="fill:#FFFFFF;" d="M78.006,145.717c-1.125,0-1.768,2.016-0.469,2.016C78.662,147.732,79.305,145.717,78.006,145.717z"
			/>
	</g>
	<path style="opacity:0.6;fill:#535458;" d="M28.172,81.614c-0.794-0.269-1.542-0.17-2.209,0.14
		c-0.982-0.236-2.278,0.796-2.14,1.861c0.012,0.089,0.038,0.178,0.051,0.267c-1.72,3.372,0.88,7.544,2.77,10.254
		c1.75,2.509,4.714,6.132,8.05,7.046c1.394,0.88,2.956,1.366,4.696,1.115c1.488-0.214,3.105-2.013,2.895-3.574
		C41.371,91.937,34.693,83.822,28.172,81.614z"/>
	<path style="opacity:0.6;fill:#535458;" d="M42.998,72.466c-0.76-0.887-1.709-1.11-2.799-0.641
		c-0.964,0.415-1.414,1.223-1.748,2.158c-0.081,0.226-0.105,0.465-0.092,0.705c-0.065,0.368-0.004,0.741,0.248,1.063
		c1.07,1.364,1.838,3.004,3.276,4.041c1.631,1.176,3.476-0.572,3.576-2.237C45.578,75.606,44.192,73.86,42.998,72.466z"/>
	<path style="opacity:0.6;fill:#535458;" d="M101.288,273.203c-1.809-10.088-5.974-19.989-6.001-30.348
		c-0.002-0.768-1.08-0.538-1.18,0.08c-1.627,10.083,0.93,22.294,5.411,31.361C100.06,275.393,101.44,274.053,101.288,273.203z"/>
	<path style="opacity:0.6;fill:#535458;" d="M121.89,360.698c-1.527-3.189-4.31-5.528-6.642-8.143
		c-2.771-3.107-5.275-6.416-7.519-9.921c-3.799-5.935-6.186-13.177-9.448-19.459c-0.381-0.733-1.434,0.139-1.255,0.775
		c2.063,7.34,3.897,14.484,7.287,21.363c2.983,6.054,9.491,14.745,15.703,17.696C121.342,363.641,122.394,361.755,121.89,360.698z"
		/>
</g>
</svg>
